<svg width="574" height="389" viewBox="0 0 574 389" fill="none" xmlns="http://www.w3.org/2000/svg">
<g style="mix-blend-mode:luminosity" opacity="0.3">
<path d="M109.916 333.84C92.9942 284.235 154.964 268.184 154.964 268.184C154.964 265.221 154.128 261.45 154.128 257.88C154.128 242.095 166.967 215.693 188.417 211C200.486 208.358 215.165 194.045 211.506 194.045C208.139 194.045 194.314 188.181 197.123 183.732C198.447 181.634 210.749 184.432 221.682 160.894C215.502 165.786 207.567 166.998 200.879 164.681C216.759 157.734 225.915 130.032 232.602 116.138C236.322 137.892 261.938 157.061 265.36 159.479C266.69 160.418 259.703 161.94 248.609 159.67C247.723 159.488 260.087 175.243 282.791 179.348C280.832 183.884 268.297 184.782 268.297 184.782C274.3 197.011 283.3 200.181 292.967 199.643C299.888 199.258 287.928 212.246 276.818 212.141C276.818 212.141 288.718 226.772 290.133 215.004C298.95 141.709 354.061 141.709 347.998 265.153C347.998 265.153 392.086 292.821 356.344 333.84H109.916Z" fill="#CBECA9"/>
<path d="M566.929 333.841C555.55 328.152 556.06 271.742 589.025 271.742C592.543 271.742 591.285 273.023 591.285 267.023C591.285 234.497 627.079 210.312 660.474 210.312C678.556 210.312 689.548 219.276 689.548 219.276C702.396 204.612 732.696 200.993 748.622 213.244C748.622 172.088 775.063 145.155 802.55 145.155C819.207 145.155 838.097 156.453 844.742 167.527C863.006 121.04 933.829 -68.0873 945.552 249.581C945.552 238.359 992.673 230.722 992.673 270.664C992.673 292.793 973.367 285.026 999.856 285.026C1008.23 285.026 1022.81 296.014 1019.85 313.753C1017.26 329.281 1003.19 333.839 994.786 333.839H566.929V333.841Z" fill="#CBECA9"/>
<path d="M196.537 250.874C176.693 248.508 147.777 262.788 147.777 289.126C147.777 318.113 170.938 327.737 196.494 327.737C206.078 327.737 210.766 323.491 210.766 323.491C210.822 323.491 210.876 323.496 210.929 323.508C227.851 327.092 245.271 319.993 245.271 297.558C245.271 276.521 228.201 273.097 228.201 273.097C225.458 257.18 208.434 252.293 196.537 250.874Z" fill="#A5D254"/>
<path d="M191.465 304.242C191.465 304.211 176.171 306.557 172.019 302.85C168.445 299.66 158.925 292.709 158.925 275.999C158.925 270.477 160.312 265.051 163.199 260.316C154.265 266.893 147.777 276.656 147.777 289.128C147.777 318.115 170.938 327.739 196.494 327.739C206.078 327.739 210.766 323.493 210.766 323.493C212.419 323.493 230.65 327.954 240.344 314.815C222.588 319.2 204.343 316.897 191.465 304.242Z" fill="#93B648"/>
<path d="M225.693 294.461C221.608 294.743 205.627 300.948 201.813 303.268C201.616 301.105 201.373 298.931 201.109 296.838C202.681 293.45 205.038 290.008 208.552 286.996C207.107 288.143 203.169 290.041 200.591 292.996C199.69 286.677 198.766 281.869 198.766 281.869L196.081 311.594C187.41 306.946 169.051 307.197 156.926 293.419C166.671 309.469 188.777 308.755 195.271 320.559L194.069 333.857H205.495C205.495 333.857 200.631 328.47 202.028 317.286C202.276 315.295 202.33 312.888 202.256 310.282C202.507 309.917 202.783 309.486 203.098 308.947C208.281 300.042 228.35 294.275 225.693 294.461Z" fill="#925120"/>
<path d="M126.073 205.007C130.621 215.81 141.04 218.825 151.672 218.825C171.231 218.825 182.89 208.712 182.89 187.472C182.89 183.577 179.242 175.777 178.151 173.595C196.599 169.142 206.467 151.879 206.467 134.427C206.467 115.123 197.151 113.316 197.151 113.316C197.151 113.316 201.687 104.17 201.687 92.0631C201.687 58.1807 171.899 0 107.062 0C51.9364 0 18.4491 28.1885 12.8246 93.4105C10.8308 116.533 29.4434 146.931 55.9026 146.931C85.1756 146.931 69.3636 136.971 69.3636 157.576C69.3636 170.835 79.895 182.116 91.0927 182.116C110.292 182.116 94.0818 176.752 94.0818 204.835C94.0818 228.743 117.646 243.897 127.025 230.55C130.896 225.04 128.553 217.407 126.073 205.007Z" fill="#A5D254"/>
<path d="M112.797 181.653C109.224 181.653 95.4956 173.114 95.4956 158.893C95.4956 151.742 98.6286 144.37 104.053 138.607C89.4446 132.114 83.5407 118.224 83.5407 103.936C83.5407 91.3594 86.9647 93.7666 80.5797 93.7666C52.3052 93.7666 22.6999 50.1596 49.1475 15.8672C28.5823 30.5467 16.0653 55.8138 12.8232 93.4095C10.8293 116.532 29.442 146.93 55.9011 146.93C67.5865 146.93 72.0768 145.346 73.2672 144.749C73.6805 144.423 73.7847 144.489 73.2672 144.749C72.2455 145.552 69.3622 148.766 69.3622 157.575C69.3622 170.834 79.8936 182.115 91.0912 182.115C110.289 182.115 94.0804 176.751 94.0804 204.834C94.0804 228.742 117.645 243.896 127.024 230.549C130.897 225.037 128.553 217.404 126.073 205.004C130.621 215.807 141.042 218.823 151.673 218.823C168.62 218.823 179.623 211.213 182.262 195.366C162.252 209.705 108.91 208.951 112.797 181.653Z" fill="#93B648"/>
<path d="M73.2673 144.75C73.6807 144.425 73.7848 144.491 73.2673 144.75V144.75Z" fill="#00B314"/>
<path d="M168.956 153.033C156.331 183.895 145.893 196.579 139.503 205.771C139.503 147.399 140.88 172.16 124.777 72.8574V126.859C106.1 115.258 102.418 97.8633 102.023 95.4743C102.132 96.3489 102.415 99.3 102.415 105.169C102.415 120.641 117.063 136.249 124.777 154.844V246.551C113.844 234.858 115.259 214.235 115.259 231.472C115.259 246.126 121.09 251.369 124.777 257.582V333.845H139.503V235.531C147.706 207.585 165.254 185.431 168.956 153.033Z" fill="#925120"/>
<path d="M102.023 95.4718C101.963 95.1147 101.975 95.0866 102.023 95.4718V95.4718Z" fill="#925120"/>
<path d="M249.158 247.727L285.2 234.107L283.018 228.334L246.976 241.953L249.158 247.727Z" fill="#007D9C"/>
<path d="M96.9429 298.699L60.9014 312.318L63.0831 318.092L99.1246 304.473L96.9429 298.699Z" fill="#007D9C"/>
<path d="M272.642 262.684L277.381 260.894C284.763 258.105 288.487 249.86 285.698 242.478L282.877 235.012L251.407 246.902L254.227 254.368C257.015 261.75 265.26 265.473 272.642 262.684Z" fill="#004F8B"/>
<path d="M91.3904 331.168L86.6504 332.959C79.2685 335.748 71.0236 332.025 68.2345 324.643L65.4124 317.177L96.8826 305.286L99.7031 312.752C102.495 320.134 98.7723 328.379 91.3904 331.168Z" fill="#004F8B"/>
<path d="M283.028 228.339L280.272 221.043L58.0775 304.98L60.8335 312.276L283.028 228.339Z" fill="#FF545D"/>
<path d="M279.445 229.704L283.056 228.346L276.843 197.023C276.36 194.577 272.663 195.309 273.146 197.752L279.445 229.704Z" fill="#007D9C"/>
<path d="M64.4784 310.926L60.8726 312.295L44.8192 284.691C43.5644 282.536 46.8214 280.642 48.0745 282.793L64.4784 310.926Z" fill="#007D9C"/>
<path d="M247.014 241.955L250.625 240.598C241.363 229.638 241.113 228.494 239.531 228.807C238.293 229.051 237.757 230.526 238.552 231.506L247.014 241.955Z" fill="#007D9C"/>
<path d="M96.9091 298.674L93.3032 300.043C93.004 285.696 92.4353 284.674 93.829 283.862C94.9202 283.226 96.2957 283.98 96.3486 285.241L96.9091 298.674Z" fill="#007D9C"/>
<path d="M277.919 221.955L274.457 223.263C267.12 186.019 266.448 186.168 268.909 185.683C271.37 185.199 270.704 185.381 277.919 221.955Z" fill="#FF0404"/>
<path d="M60.4989 304.107L63.9609 302.799C44.8357 270.01 45.4375 269.677 43.2717 270.941C41.1059 272.204 41.7259 271.901 60.4989 304.107Z" fill="#FF0404"/>
<path d="M271.922 236.898C273.397 236.341 272.556 234.111 271.079 234.668C269.603 235.225 270.446 237.455 271.922 236.898Z" fill="#FAE99F"/>
<path d="M74.8792 311.347C73.4028 311.904 72.5613 309.674 74.036 309.117C75.5107 308.56 76.3539 310.79 74.8792 311.347Z" fill="#FAE99F"/>
<path d="M261.224 240.941C262.699 240.384 261.857 238.154 260.381 238.711C258.906 239.268 259.749 241.498 261.224 240.941Z" fill="#FAE99F"/>
<path d="M85.576 307.307C84.0996 307.864 83.2581 305.634 84.7328 305.077C86.2092 304.52 87.0507 306.75 85.576 307.307Z" fill="#FAE99F"/>
<path d="M189.878 288.805C186.119 282.026 179.567 277.635 172.023 276.685V273.968C172.023 270.627 166.974 270.634 166.974 273.968H166.97V276.566C159.293 277.176 152.483 281.355 148.439 288.071L120.411 333.83H126.518L152.97 290.8C160.367 278.515 178.285 278.816 185.251 291.371C192.96 305.267 203.599 324.016 209.285 333.83H215.091C208.304 321.017 206.294 318.39 189.878 288.805Z" fill="#004F8B"/>
<path d="M277.879 295.533L279.05 280.354C279.281 277.363 274.755 277.011 274.523 280.005L270.383 333.815L274.936 333.834L277.567 299.542H412.192L414.822 333.858L419.375 333.838L415.236 280.005C415.14 278.755 414.049 277.82 412.799 277.917C411.549 278.013 410.615 279.104 410.711 280.354L411.881 295.533H277.879Z" fill="#007D9C"/>
<path d="M281.591 291.301C280.19 291.301 279.055 292.437 279.055 293.837V295.533H410.709V293.837C410.709 292.437 409.573 291.301 408.173 291.301H281.591Z" fill="#FF545D"/>
<path d="M554.024 333.848L563.123 333.831L585.128 118.005C585.383 115.509 583.564 113.278 581.068 113.024C578.572 112.769 576.341 114.586 576.087 117.084L554.024 333.848Z" fill="#00C4BA"/>
<path d="M1035.24 333.859C1049.26 333.859 1061.34 341.276 1066.82 351.968C1001.17 355.481 917.53 344.417 849.376 344.417C700.829 344.417 696.299 375.134 623.852 375.134C568.285 375.134 511.726 347.145 341.967 347.145C218.021 347.145 131.851 372.052 103.828 372.052C67.6413 372.052 47.5621 360.557 0.0517578 363.146C1.00405 346.927 16.0853 333.859 34.7046 333.859H1035.24Z" fill="#A5D254"/>
<path d="M1066.82 351.968C1072.65 363.371 1070.32 377.287 1059.77 386.696C1047.28 397.836 1034.26 395.764 1013.78 395.764C1002.6 395.764 45.9135 395.764 34.7043 395.764C14.7756 395.764 -1.01988 380.832 0.051451 363.146C48.3951 360.511 66.7069 372.053 103.828 372.053C131.851 372.053 218.02 347.146 341.967 347.146C511.726 347.146 568.285 375.134 623.852 375.134C696.299 375.134 700.828 344.418 849.376 344.418C917.549 344.418 1001.15 355.482 1066.82 351.968Z" fill="#93B648"/>
<path d="M438.672 65.7129H429.161V333.849H438.672V65.7129Z" fill="#F7B46D"/>
<path d="M438.672 333.852H444.389V152.958H438.672V333.852Z" fill="#007D9C"/>
<path d="M503.524 333.852H513.036V65.7155H503.524L503.524 333.852Z" fill="#F7B46D"/>
<path d="M503.524 152.955H497.807V333.849H503.524V152.955Z" fill="#007D9C"/>
<path d="M429.161 65.7129V106.653C436.431 114.083 448.969 116.604 459.287 109.396C466.297 104.499 475.557 104.499 482.567 109.396C492.826 116.563 505.386 114.123 512.693 106.653V65.7129H429.161Z" fill="#FF545D"/>
<path d="M497.79 219.784H444.373V229.957H497.79V219.784Z" fill="#004F8B"/>
<path d="M497.79 218.021H444.373V219.786H497.79V218.021Z" fill="#FF545D"/>
<path d="M444.085 303.84H498.23C499.407 303.84 500.363 302.884 500.363 301.707C500.363 300.528 499.409 299.574 498.23 299.574H444.085C442.908 299.574 441.953 300.53 441.953 301.707C441.953 302.886 442.906 303.84 444.085 303.84Z" fill="#FCBA76"/>
<path d="M444.085 320.247H498.23C499.407 320.247 500.363 319.291 500.363 318.114C500.363 316.935 499.409 315.981 498.23 315.981H444.085C442.908 315.981 441.953 316.937 441.953 318.114C441.953 319.291 442.908 320.247 444.085 320.247Z" fill="#FCBA76"/>
<path d="M444.085 270.697H498.23C499.407 270.697 500.363 269.742 500.363 268.564C500.363 267.386 499.409 266.432 498.23 266.432H444.085C442.908 266.432 441.953 267.387 441.953 268.564C441.953 269.743 442.906 270.697 444.085 270.697Z" fill="#FCBA76"/>
<path d="M444.085 287.103H498.23C499.407 287.103 500.363 286.148 500.363 284.971C500.363 283.792 499.409 282.838 498.23 282.838H444.085C442.908 282.838 441.953 283.794 441.953 284.971C441.953 286.149 442.906 287.103 444.085 287.103Z" fill="#FCBA76"/>
<path d="M444.085 237.883H498.23C501.047 237.883 501.054 233.617 498.23 233.617H444.085C442.908 233.617 441.953 234.573 441.953 235.75C441.953 236.929 442.906 237.883 444.085 237.883Z" fill="#FCBA76"/>
<path d="M444.085 254.29H498.23C501.047 254.29 501.054 250.024 498.23 250.024H444.085C442.908 250.024 441.953 250.98 441.953 252.157C441.953 253.336 442.906 254.29 444.085 254.29Z" fill="#FCBA76"/>
<path d="M396.028 164.669H429.155V160.317H393.538C391.069 160.317 389.165 162.3 389.165 164.669C389.165 188.23 389.165 310.262 389.165 333.874H393.538V216.263H429.05V212.219H393.538V201.704H429.05V197.66H393.538V192.576H429.05V188.532H393.538V167.16C393.538 165.783 394.654 164.669 396.028 164.669Z" fill="#00C4BA"/>
<path d="M669.527 330.355C670.048 331.881 669.148 333.134 667.53 333.134C646.23 333.134 645.756 333.731 644.982 331.477C642.866 325.387 641.257 317.092 631.591 315.46C607.635 309.725 602.511 309.662 595.812 302.204L537.02 233.196L549.183 222.422L605.084 285.283C612.684 293.422 618.469 292.966 651.116 298.83C656.221 299.743 660.421 303.365 662.077 308.277L669.527 330.355Z" fill="#007D9C"/>
<path d="M537.583 199.98C535.016 202.436 534.903 206.499 537.329 209.097L549.183 222.421L537.02 233.196C536.033 231.716 532.969 230.051 529.998 230.051H513.021V156.657C520.366 151.477 527.196 153.139 531.673 153.884C539.544 155.199 545.989 160.875 548.285 168.524C553.632 186.309 547.637 190.336 537.583 199.98Z" fill="#FF545D"/>
</g>
</svg>
