<svg width="1440" height="724" viewBox="0 0 1440 724" fill="none" xmlns="http://www.w3.org/2000/svg">
<g clip-path="url(#clip0_329_29609)">
<rect width="1440" height="724" fill="#096CF6"/>
<g style="mix-blend-mode:luminosity" opacity="0.35">
<g opacity="0.74">
<path d="M707.007 222.807H646.643V320.871H707.007V222.807Z" fill="#A6C7ED"/>
<path d="M676.042 249.275H587.413V607.454H676.042V249.275Z" fill="#CCDBF2"/>
<path d="M982.154 168.975H909.692V607.453H982.154V168.975Z" fill="#CCDBF2"/>
<path d="M780.321 182.246H691.692V607.452H780.321V182.246Z" fill="#CCDBF2"/>
<path d="M893.836 607.452H805.207V182.246L893.836 236.268V607.452Z" fill="#CCDBF2"/>
<path d="M764.999 155.701H707.007V182.242H764.999V155.701Z" fill="#CCDBF2"/>
<path d="M754.544 144.254H717.469V155.702H754.544V144.254Z" fill="#CCDBF2"/>
<path d="M955.531 111.664H951.729V188.295H955.531V111.664Z" fill="#CCDBF2"/>
<path d="M1107.09 236.271H1005.47V372.537H1107.09V236.271Z" fill="#CCDBF2"/>
<path d="M1119.61 288.832H631.724V607.454H1119.61V288.832Z" fill="#CCDBF2"/>
<path d="M717.466 265.26H633.386V607.458H717.466V265.26Z" fill="#B7CDED"/>
<path d="M754.541 265.26H717.465V607.458H754.541V265.26Z" fill="#A6C7ED"/>
<path d="M941.439 331.307H849.111V607.454H941.439V331.307Z" fill="#B7CDED"/>
<path d="M982.154 331.307H941.44V607.454H982.154V331.307Z" fill="#A6C7ED"/>
<path d="M1024.33 222.807H967.268V607.455H1024.33V222.807Z" fill="#B7CDED"/>
<path d="M1049.5 222.807H1024.34V607.455H1049.5V222.807Z" fill="#A6C7ED"/>
<path d="M815.842 236.271H744.626V607.455H815.842V236.271Z" fill="#B7CDED"/>
<path d="M847.247 236.271H815.843V607.455H847.247V236.271Z" fill="#A6C7ED"/>
<path d="M780.319 406.199H661.112V607.452H780.319V406.199Z" fill="#D2E3FC"/>
<path d="M935.272 390.902H816.065V607.447H935.272V390.902Z" fill="#D2E3FC"/>
<path d="M1046.98 607.451H974.184V411.223L1046.98 442.932V607.451Z" fill="#D2E3FC"/>
<path d="M808.747 249.275H754.541V257.26H808.747V249.275Z" fill="#D2E3FC"/>
<path d="M808.747 265.018H754.541V273.002H808.747V265.018Z" fill="#D2E3FC"/>
<path d="M808.747 280.766H754.541V288.75H808.747V280.766Z" fill="#D2E3FC"/>
<path d="M808.747 296.504H754.541V304.488H808.747V296.504Z" fill="#D2E3FC"/>
<path d="M808.747 312.248H754.541V320.232H808.747V312.248Z" fill="#D2E3FC"/>
<path d="M808.747 327.994H754.541V335.978H808.747V327.994Z" fill="#D2E3FC"/>
<path d="M808.747 343.736H754.541V351.721H808.747V343.736Z" fill="#D2E3FC"/>
<path d="M808.747 359.479H754.541V367.463H808.747V359.479Z" fill="#D2E3FC"/>
<path d="M808.747 375.221H754.541V383.205H808.747V375.221Z" fill="#D2E3FC"/>
<path d="M943.787 390.905H807.55L875.667 339.475L943.787 390.905Z" fill="#D2E3FC"/>
<path d="M988.106 236.271H974.184V242.496H988.106V236.271Z" fill="#D2E3FC"/>
<path d="M1014.5 236.271H1000.57V242.496H1014.5V236.271Z" fill="#D2E3FC"/>
<path d="M988.106 250.154H974.184V256.379H988.106V250.154Z" fill="#D2E3FC"/>
<path d="M1014.5 250.154H1000.57V256.379H1014.5V250.154Z" fill="#D2E3FC"/>
<path d="M988.106 264.037H974.184V270.261H988.106V264.037Z" fill="#D2E3FC"/>
<path d="M1014.5 264.037H1000.57V270.261H1014.5V264.037Z" fill="#D2E3FC"/>
<path d="M988.106 277.926H974.184V284.15H988.106V277.926Z" fill="#D2E3FC"/>
<path d="M1014.5 277.926H1000.57V284.15H1014.5V277.926Z" fill="#D2E3FC"/>
<path d="M988.106 291.809H974.184V298.033H988.106V291.809Z" fill="#D2E3FC"/>
<path d="M1014.5 291.809H1000.57V298.033H1014.5V291.809Z" fill="#D2E3FC"/>
<path d="M988.106 305.691H974.184V311.916H988.106V305.691Z" fill="#D2E3FC"/>
<path d="M1014.5 305.691H1000.57V311.916H1014.5V305.691Z" fill="#D2E3FC"/>
<path d="M988.106 319.576H974.184V325.8H988.106V319.576Z" fill="#D2E3FC"/>
<path d="M1014.5 319.576H1000.57V325.8H1014.5V319.576Z" fill="#D2E3FC"/>
<path d="M988.106 333.463H974.184V339.687H988.106V333.463Z" fill="#D2E3FC"/>
<path d="M1014.5 333.463H1000.57V339.687H1014.5V333.463Z" fill="#D2E3FC"/>
<path d="M988.106 347.346H974.184V353.57H988.106V347.346Z" fill="#D2E3FC"/>
<path d="M1014.5 347.346H1000.57V353.57H1014.5V347.346Z" fill="#D2E3FC"/>
<path d="M988.106 361.229H974.184V367.453H988.106V361.229Z" fill="#D2E3FC"/>
<path d="M1014.5 361.229H1000.57V367.453H1014.5V361.229Z" fill="#D2E3FC"/>
<path d="M988.106 375.117H974.184V381.341H988.106V375.117Z" fill="#D2E3FC"/>
<path d="M1014.5 375.117H1000.57V381.341H1014.5V375.117Z" fill="#D2E3FC"/>
<path d="M988.106 389H974.184V395.224H988.106V389Z" fill="#D2E3FC"/>
<path d="M1014.5 389H1000.57V395.224H1014.5V389Z" fill="#D2E3FC"/>
<path d="M663.431 277.518H640.481V296.11H663.431V277.518Z" fill="#D2E3FC"/>
<path d="M663.43 339.299H640.481V357.892H663.43V339.299Z" fill="#D2E3FC"/>
<path d="M701.789 313.059H678.84V331.651H701.789V313.059Z" fill="#D2E3FC"/>
<path d="M701.789 374.844H678.84V393.437H701.789V374.844Z" fill="#D2E3FC"/>
<path d="M788.424 405.617H655.914V415.466H788.424V405.617Z" fill="#D2E3FC"/>
<path d="M1219.31 345.482H1107.52V587.161H1219.31V345.482Z" fill="#CCDBF2"/>
<path d="M593.867 368.699H482.073V610.377H593.867V368.699Z" fill="#CCDBF2"/>
<path d="M404.228 378.34H351.432V620.022H404.228V378.34Z" fill="#CCDBF2"/>
<path d="M494.806 235.924H400.337V596.399H494.806V235.924Z" fill="#CCDBF2"/>
<path d="M351.087 301.164H256.619V661.639H351.087V301.164Z" fill="#CCDBF2"/>
<path d="M1277.31 364.125H1204.43V605.803H1277.31V364.125Z" fill="#CCDBF2"/>
</g>
<path d="M353.798 532.637H339.46C324.267 532.637 311.91 520.257 311.91 505.044V481.451H319.898V505.044C319.898 515.849 328.673 524.637 339.46 524.637H353.798V532.637Z" fill="#CEA282"/>
<path d="M360.568 551.586L360.312 543.586H360.568C372.342 543.586 381.924 533.989 381.924 522.197V503.744H389.911V522.197C389.911 538.402 376.747 551.586 360.568 551.586Z" fill="#CEA282"/>
<path d="M387.754 530.963L387.498 522.963H387.754C399.532 522.963 409.113 513.366 409.113 501.574V483.121H417.101V501.574C417.101 517.779 403.933 530.963 387.754 530.963Z" fill="#CEA282"/>
<path d="M356.102 458.504H347.906V596.962H356.102V458.504Z" fill="#D8AF8B"/>
<path d="M364.301 458.504H356.105V596.962H364.301V458.504Z" fill="#CEA282"/>
<path d="M359.581 473.914C363.74 448.348 346.418 424.246 320.891 420.08C295.365 415.915 271.3 433.264 267.141 458.831C262.983 484.397 280.305 508.5 305.831 512.665C331.358 516.83 355.423 499.481 359.581 473.914Z" fill="#77A52F"/>
<path d="M406.607 435.48C411.602 404.514 390.588 375.357 359.671 370.354C328.755 365.351 299.642 386.397 294.647 417.362C289.652 448.327 310.666 477.485 341.582 482.488C372.499 487.491 401.612 466.445 406.607 435.48Z" fill="#7FAD36"/>
<path d="M395.724 513.263C416.123 513.263 432.66 496.7 432.66 476.269C432.66 455.838 416.123 439.275 395.724 439.275C375.325 439.275 358.788 455.838 358.788 476.269C358.788 496.7 375.325 513.263 395.724 513.263Z" fill="#6EA027"/>
<path d="M659.216 492.69H636.678C629.884 492.69 624.361 487.154 624.361 480.35V474.598H628.355V480.35C628.355 484.946 632.089 488.69 636.678 488.69H659.216V492.69Z" fill="#39CFFF"/>
<path d="M681.751 492.69H659.213V488.69H681.751C686.34 488.69 690.078 484.946 690.078 480.35V474.598H694.072V480.35C694.072 487.154 688.549 492.69 681.751 492.69Z" fill="#39B1FF"/>
<path d="M659.215 457.359H656.979V581.601H659.215V457.359Z" fill="#39CFFF"/>
<path d="M659.164 433.619V453.624H652.682L649.711 448.552C646.975 443.88 646.651 438.683 648.804 433.859L648.836 433.783L659.164 433.619Z" fill="#FF903E"/>
<path d="M659.081 433.619V453.624H665.567L668.539 448.552C671.274 443.88 671.598 438.683 669.445 433.859L669.413 433.783L659.081 433.619Z" fill="#FF9D4D"/>
<path d="M659.202 461.052H658.144C656.031 461.052 654.318 459.596 654.318 457.8V454.512H659.202V461.052Z" fill="#00AFFC"/>
<path d="M661.453 457.359H659.216V581.601H661.453V457.359Z" fill="#39B1FF"/>
<path d="M659.205 461.052H660.263C662.376 461.052 664.089 459.596 664.089 457.8V454.512H659.205V461.052Z" fill="#0A98EC"/>
<path d="M658.957 433.619H657.076V454.508H658.957V433.619Z" fill="#00AFFC"/>
<path d="M660.836 433.619H658.955V454.508H660.836V433.619Z" fill="#0A98EC"/>
<path d="M653.15 430.424H648.086C646.52 430.424 645.254 431.156 645.254 432.06V432.092C645.254 432.996 646.52 433.728 648.086 433.728H659.133V430.424H653.15Z" fill="#39CFFF"/>
<path d="M673.014 432.056C673.014 431.152 671.744 430.42 670.182 430.42H665.118H659.135V433.724H670.182C671.748 433.724 673.014 432.992 673.014 432.088V432.056Z" fill="#39B1FF"/>
<path d="M659.132 430.424H668.873V430.392C668.873 428.656 666.437 427.252 663.429 427.252H662.051H659.128V430.424H659.132Z" fill="#0A98EC"/>
<path d="M659.134 427.248H656.21H654.832C651.825 427.248 649.389 428.656 649.389 430.388V430.42H659.13V427.248H659.134Z" fill="#00AFFC"/>
<path d="M663.044 427.247V427.231C663.044 426.45 661.946 425.814 660.596 425.814H659.13V427.243L663.044 427.247Z" fill="#39B1FF"/>
<path d="M659.133 425.818H657.668C656.314 425.818 655.219 426.45 655.219 427.234V427.25H659.133V425.818Z" fill="#39CFFF"/>
<path d="M652.023 585.242H646.004C644.147 585.242 642.637 586.11 642.637 587.186V587.226C642.637 588.298 644.143 589.17 646.004 589.17H659.136V585.246H652.023V585.242Z" fill="#39CFFF"/>
<path d="M675.629 587.186C675.629 586.114 674.124 585.242 672.262 585.242H666.244H659.13V589.166H672.262C674.12 589.166 675.629 588.294 675.629 587.222V587.186Z" fill="#39B1FF"/>
<path d="M659.13 585.241H670.709V585.201C670.709 583.141 667.813 581.469 664.243 581.469H662.605H659.13V585.241Z" fill="#0A98EC"/>
<path d="M659.133 581.473H655.658H654.021C650.45 581.473 647.555 583.145 647.555 585.205V585.245H659.133V581.473Z" fill="#00AFFC"/>
<path d="M663.783 581.471V581.455C663.783 580.527 662.481 579.775 660.872 579.775H659.13V581.471H663.783Z" fill="#39B1FF"/>
<path d="M659.131 579.773H657.39C655.78 579.773 654.478 580.525 654.478 581.454V581.469H659.131V579.773Z" fill="#39CFFF"/>
<path d="M659.164 455.715H654.607C652.946 455.715 651.6 454.571 651.6 453.155V453.127H659.164V455.715Z" fill="#39CFFF"/>
<path d="M659.162 455.715H663.719C665.381 455.715 666.731 454.571 666.731 453.155V453.127H659.166L659.162 455.715Z" fill="#39B1FF"/>
<path d="M655.127 440.022C655.127 441.602 654.029 442.882 652.675 442.882C651.321 442.882 650.223 441.602 650.223 440.022C650.223 438.442 651.321 437.162 652.675 437.162C654.029 437.162 655.127 438.442 655.127 440.022Z" fill="#FFC44D"/>
<path d="M654.26 440.022C654.26 441.042 653.549 441.87 652.674 441.87C651.799 441.87 651.088 441.042 651.088 440.022C651.088 439.002 651.799 438.174 652.674 438.174C653.549 438.174 654.26 439.002 654.26 440.022Z" fill="#FFFFC6"/>
<path d="M691.944 449.578V469.583H685.462L682.49 464.511C679.754 459.839 679.435 454.642 681.584 449.818L681.615 449.742L691.944 449.578Z" fill="#FF903E"/>
<path d="M691.866 449.578V469.583H698.348L701.32 464.511C704.056 459.839 704.379 454.642 702.226 449.818L702.194 449.742L691.866 449.578Z" fill="#FF9D4D"/>
<path d="M691.981 477.005H690.922C688.81 477.005 687.096 475.549 687.096 473.753V470.465H691.981V477.005Z" fill="#00AFFC"/>
<path d="M691.984 477.005H693.042C695.155 477.005 696.868 475.549 696.868 473.753V470.465H691.984V477.005Z" fill="#0A98EC"/>
<path d="M691.736 449.578H689.854V470.467H691.736V449.578Z" fill="#00AFFC"/>
<path d="M693.615 449.578H691.734V470.467H693.615V449.578Z" fill="#0A98EC"/>
<path d="M685.928 446.377H680.863C679.298 446.377 678.032 447.109 678.032 448.013V448.045C678.032 448.949 679.298 449.681 680.863 449.681H691.911V446.377H685.928Z" fill="#39CFFF"/>
<path d="M705.791 448.013C705.791 447.109 704.521 446.377 702.96 446.377H697.895H691.913V449.681H702.96C704.525 449.681 705.791 448.949 705.791 448.045V448.013Z" fill="#39B1FF"/>
<path d="M691.91 446.377H701.651V446.345C701.651 444.609 699.215 443.205 696.207 443.205H694.829H691.906V446.377H691.91Z" fill="#0A98EC"/>
<path d="M691.912 443.205H688.988H687.61C684.603 443.205 682.167 444.613 682.167 446.345V446.377H691.908V443.205H691.912Z" fill="#00AFFC"/>
<path d="M695.824 443.204V443.188C695.824 442.408 694.725 441.771 693.375 441.771H691.91V443.2L695.824 443.204Z" fill="#39B1FF"/>
<path d="M691.911 441.775H690.445C689.091 441.775 687.997 442.407 687.997 443.191V443.207H691.911V441.775Z" fill="#39CFFF"/>
<path d="M691.943 471.674H687.385C685.724 471.674 684.374 470.53 684.374 469.118V469.09H691.938V471.674H691.943Z" fill="#39CFFF"/>
<path d="M691.945 471.674H696.502C698.163 471.674 699.509 470.53 699.509 469.118V469.09H691.945V471.674Z" fill="#39B1FF"/>
<path d="M687.906 455.979C687.906 457.559 686.808 458.839 685.454 458.839C684.1 458.839 683.001 457.559 683.001 455.979C683.001 454.399 684.1 453.119 685.454 453.119C686.808 453.119 687.906 454.399 687.906 455.979Z" fill="#FFC44D"/>
<path d="M687.038 455.979C687.038 456.999 686.327 457.827 685.453 457.827C684.578 457.827 683.867 456.999 683.867 455.979C683.867 454.959 684.578 454.131 685.453 454.131C686.327 454.131 687.038 454.959 687.038 455.979Z" fill="#FFFFC6"/>
<path d="M626.38 449.578V469.583H619.894L616.922 464.511C614.186 459.839 613.867 454.642 616.016 449.818L616.048 449.742L626.38 449.578Z" fill="#FF903E"/>
<path d="M626.301 449.578V469.583H632.787L635.759 464.511C638.495 459.839 638.814 454.642 636.665 449.818L636.633 449.742L626.301 449.578Z" fill="#FF9D4D"/>
<path d="M626.419 477.005H625.361C623.248 477.005 621.535 475.549 621.535 473.753V470.465H626.419V477.005Z" fill="#00AFFC"/>
<path d="M626.422 477.005H627.48C629.593 477.005 631.306 475.549 631.306 473.753V470.465H626.422V477.005Z" fill="#0A98EC"/>
<path d="M626.177 449.578H624.295V470.467H626.177V449.578Z" fill="#00AFFC"/>
<path d="M628.057 449.578H626.176V470.467H628.057V449.578Z" fill="#0A98EC"/>
<path d="M620.37 446.377H615.306C613.74 446.377 612.474 447.109 612.474 448.013V448.045C612.474 448.949 613.744 449.681 615.306 449.681H626.353V446.377H620.37Z" fill="#39CFFF"/>
<path d="M640.234 448.013C640.234 447.109 638.968 446.377 637.402 446.377H632.338H626.355V449.681H637.402C638.968 449.681 640.234 448.949 640.234 448.045V448.013Z" fill="#39B1FF"/>
<path d="M626.352 446.377H636.093V446.345C636.093 444.609 633.657 443.205 630.65 443.205H629.272H626.348V446.377H626.352Z" fill="#0A98EC"/>
<path d="M626.354 443.205H623.43H622.052C619.045 443.205 616.608 444.613 616.608 446.345V446.377H626.35V443.205H626.354Z" fill="#00AFFC"/>
<path d="M630.266 443.204V443.188C630.266 442.408 629.168 441.771 627.818 441.771H626.352V443.2L630.266 443.204Z" fill="#39B1FF"/>
<path d="M626.354 441.775H624.888C623.534 441.775 622.439 442.407 622.439 443.191V443.207H626.354V441.775Z" fill="#39CFFF"/>
<path d="M626.381 471.674H621.824C620.163 471.674 618.813 470.53 618.813 469.118V469.09H626.377L626.381 471.674Z" fill="#39CFFF"/>
<path d="M626.384 471.674H630.941C632.602 471.674 633.952 470.53 633.952 469.118V469.09H626.388V471.674H626.384Z" fill="#39B1FF"/>
<path d="M622.348 455.979C622.348 457.559 621.25 458.839 619.896 458.839C618.542 458.839 617.444 457.559 617.444 455.979C617.444 454.399 618.542 453.119 619.896 453.119C621.25 453.119 622.348 454.399 622.348 455.979Z" fill="#FFC44D"/>
<path d="M621.481 455.979C621.481 456.999 620.77 457.827 619.896 457.827C619.021 457.827 618.31 456.999 618.31 455.979C618.31 454.959 619.021 454.131 619.896 454.131C620.77 454.131 621.481 454.959 621.481 455.979Z" fill="#FFFFC6"/>
<path d="M1160.34 530.963H1142.22C1123.6 530.963 1108.45 515.794 1108.45 497.145V467.328H1116.44V497.145C1116.44 511.382 1128 522.962 1142.22 522.962H1160.34V530.963Z" fill="#CEA282"/>
<path d="M1167.12 516.521L1166.8 508.521H1167.12C1182.59 508.521 1195.16 495.92 1195.16 480.435V471.703H1203.15V480.435C1203.15 500.332 1186.99 516.521 1167.12 516.521Z" fill="#CEA282"/>
<path d="M1194.45 501.539L1194.12 497.538H1194.45C1211.01 497.538 1224.48 484.042 1224.48 467.453V458.721H1228.48V467.453C1228.48 486.246 1213.21 501.539 1194.45 501.539Z" fill="#CEA282"/>
<path d="M1163.25 415.016H1152.89V589.995H1163.25V415.016Z" fill="#D8AF8B"/>
<path d="M1173.6 415.016H1163.25V589.995H1173.6V415.016Z" fill="#CEA282"/>
<path d="M1212.76 483.303C1240.11 483.303 1262.28 461.101 1262.28 433.713C1262.28 406.325 1240.11 384.123 1212.76 384.123C1185.42 384.123 1163.25 406.325 1163.25 433.713C1163.25 461.101 1185.42 483.303 1212.76 483.303Z" fill="#6EA027"/>
<path d="M1156.32 446.228C1195.9 446.228 1227.99 414.093 1227.99 374.453C1227.99 334.813 1195.9 302.678 1156.32 302.678C1116.75 302.678 1084.66 334.813 1084.66 374.453C1084.66 414.093 1116.75 446.228 1156.32 446.228Z" fill="#7FAD36"/>
<path d="M1114.15 484.213C1141.5 484.213 1163.66 462.011 1163.66 434.623C1163.66 407.235 1141.5 385.033 1114.15 385.033C1086.81 385.033 1064.64 407.235 1064.64 434.623C1064.64 462.011 1086.81 484.213 1114.15 484.213Z" fill="#77A52F"/>
<path d="M17.8397 717.07V717.71C17.8397 752.795 46.2405 781.241 81.2711 781.241H1435.85C1470.88 781.241 1499.28 752.795 1499.28 717.71V717.07H1522.57C1540.09 717.07 1554.28 702.849 1554.28 685.305V684.665C1554.28 667.12 1540.09 652.899 1522.57 652.899H1382.75V652.259C1382.75 617.174 1354.35 588.729 1319.32 588.729H108.813C73.7825 588.729 45.3818 617.174 45.3818 652.259V652.899H-11.5675C-29.0848 652.899 -43.2832 667.12 -43.2832 684.665V685.305C-43.2832 702.849 -29.0848 717.07 -11.5675 717.07H17.8397Z" fill="#6EA027"/>
<path d="M154.052 570.798H146.611V562.797H154.052C158.589 562.797 162.283 559.097 162.283 554.553V542.309H170.271V554.553C170.275 563.51 162.998 570.798 154.052 570.798Z" fill="#CEA282"/>
<path d="M144.485 564.405H144.353C134.895 564.405 127.203 556.701 127.203 547.229V543.645H135.191V547.229C135.191 552.289 139.301 556.405 144.353 556.405L144.485 564.405Z" fill="#CEA282"/>
<path d="M145.548 519.965H141.295V591.82H145.548V519.965Z" fill="#D8AF8B"/>
<path d="M149.8 519.965H145.547V591.82H149.8V519.965Z" fill="#CEA282"/>
<path d="M139.534 537.349C139.534 547.682 131.171 556.054 120.858 556.054C110.542 556.054 102.179 547.678 102.179 537.349C102.179 527.017 110.542 518.645 120.858 518.645C131.171 518.641 139.534 527.017 139.534 537.349Z" fill="#77A52F"/>
<path d="M177.982 509.097C180.953 490.757 168.518 473.476 150.207 470.5C131.896 467.523 114.642 479.978 111.67 498.318C108.699 516.658 121.134 533.938 139.445 536.915C157.756 539.891 175.01 527.437 177.982 509.097Z" fill="#7FAD36"/>
<path d="M194.883 526.145C194.883 541.454 182.494 553.862 167.209 553.862C151.924 553.862 139.531 541.454 139.531 526.145C139.531 510.836 151.924 498.424 167.209 498.424C182.494 498.424 194.883 510.832 194.883 526.145Z" fill="#6EA027"/>
<path d="M1027.02 710.771H944.174V717.252H1027.02V710.771Z" fill="#B51400"/>
<path d="M946.118 693.268H937.056V734.753H946.118V693.268Z" fill="#D72D14"/>
<path d="M1034.27 693.268H1025.21V734.753H1034.27V693.268Z" fill="#D72D14"/>
<path d="M946.118 641.738H937.056V683.224H946.118V641.738Z" fill="#B51400"/>
<path d="M1034.27 641.738H1025.21V683.224H1034.27V641.738Z" fill="#B51400"/>
<path d="M1048.37 681.6H925.406V695.86H1048.37V681.6Z" fill="#02B4D2"/>
<path d="M1048.37 681.6H925.406V690.028H1048.37V681.6Z" fill="#51E2EE"/>
<path d="M1048.37 664.098H925.406V671.874H1048.37V664.098Z" fill="#02B4D2"/>
<path d="M1048.37 651.781H925.406V659.562H1048.37V651.781Z" fill="#02B4D2"/>
<path d="M1048.37 639.465H925.406V647.245H1048.37V639.465Z" fill="#02B4D2"/>
<path d="M1303.7 575.724C1302.77 576.1 1301.84 576.472 1300.89 576.836C1300.68 576.32 1300.47 575.8 1300.22 575.316H1303.53C1303.59 575.448 1303.65 575.592 1303.7 575.724Z" fill="#E82018"/>
<path d="M1276.51 560.82V575.045H1212.49C1216.42 565.861 1224.77 561.116 1233.27 560.82H1276.51Z" fill="#D10A0A"/>
<path d="M1222.88 565.691H1219.1V651.227H1222.88V565.691Z" fill="#F79B08"/>
<path d="M1270.3 569.27H1266.52V647.721H1270.3V569.27Z" fill="#F79B08"/>
<path d="M1224.57 565.691H1220.79V651.227H1224.57V565.691Z" fill="#FFB600"/>
<path d="M1271.99 569.27H1268.21V647.721H1271.99V569.27Z" fill="#FFB600"/>
<path d="M1271.51 598.971H1220.64V605.571H1271.51V598.971Z" fill="#D72D14"/>
<path d="M1231.08 598.971H1227.11V647.377H1231.08V598.971Z" fill="#0A98EC"/>
<path d="M1239.58 598.971H1235.6V647.377H1239.58V598.971Z" fill="#0A98EC"/>
<path d="M1248.07 598.971H1244.1V647.377H1248.07V598.971Z" fill="#39B1FF"/>
<path d="M1256.57 598.971H1252.59V647.377H1256.57V598.971Z" fill="#0A98EC"/>
<path d="M1265.06 598.971H1261.09V647.377H1265.06V598.971Z" fill="#0A98EC"/>
<path d="M1295.43 640.777H1244.56V647.378H1295.43V640.777Z" fill="#FFB600"/>
<path d="M1295.43 598.971H1244.56V605.571H1295.43V598.971Z" fill="#D72D14"/>
<path d="M1246.66 565.691H1242.88V651.227H1246.66V565.691Z" fill="#F79B08"/>
<path d="M1294.08 569.27H1290.3V647.721H1294.08V569.27Z" fill="#F79B08"/>
<path d="M1248.34 565.691H1244.56V651.227H1248.34V565.691Z" fill="#FFB600"/>
<path d="M1295.76 569.27H1291.98V647.721H1295.76V569.27Z" fill="#FFB600"/>
<path d="M1246.08 651.228H1210.08V631.667C1210.08 621.811 1218.06 613.822 1227.9 613.822H1228.26C1238.1 613.822 1246.08 621.811 1246.08 631.667V651.228Z" fill="#FFB600"/>
<path d="M1229.19 613.822H1174.88V650.952H1229.19V613.822Z" fill="#FFB600"/>
<path d="M1192.69 651.228H1156.7V631.667C1156.7 621.811 1164.67 613.822 1174.52 613.822H1174.88C1184.72 613.822 1192.69 621.811 1192.69 631.667V651.228Z" fill="#FCD746"/>
<path d="M1159.99 647.928V631.668C1159.99 623.647 1166.51 617.123 1174.51 617.123H1174.87C1182.88 617.123 1189.39 623.647 1189.39 631.668V647.928H1159.99Z" fill="#DC4C07"/>
<path d="M1253.32 598.971H1249.34V647.377H1253.32V598.971Z" fill="#39B1FF"/>
<path d="M1261.81 598.971H1257.84V647.377H1261.81V598.971Z" fill="#39B1FF"/>
<path d="M1270.31 598.971H1266.33V647.377H1270.31V598.971Z" fill="#39B1FF"/>
<path d="M1278.8 598.971H1274.83V647.377H1278.8V598.971Z" fill="#39B1FF"/>
<path d="M1287.3 598.971H1283.32V647.377H1287.3V598.971Z" fill="#39B1FF"/>
<path d="M1255 598.971H1251.02V647.377H1255V598.971Z" fill="#39CFFF"/>
<path d="M1263.49 598.971H1259.52V647.377H1263.49V598.971Z" fill="#39CFFF"/>
<path d="M1271.99 598.971H1268.01V647.377H1271.99V598.971Z" fill="#39CFFF"/>
<path d="M1280.48 598.971H1276.51V647.377H1280.48V598.971Z" fill="#39CFFF"/>
<path d="M1288.98 598.971H1285V647.377H1288.98V598.971Z" fill="#39CFFF"/>
<path d="M1303.53 575.317H1255.86C1251.95 565.865 1243.39 561.025 1234.73 560.817V560.805H1281.79C1290.65 560.809 1299.52 565.649 1303.53 575.317Z" fill="#D92727"/>
<path d="M1163.06 651.23H1157.02L1131.32 675.435H1137.37L1163.06 651.23Z" fill="#FFB600"/>
<path d="M1198.49 652.918L1166.75 675.435V677.119H1172.79L1198.49 652.918Z" fill="#872C00"/>
<path d="M1198.49 651.23H1192.44L1166.75 675.435H1172.79L1198.49 651.23Z" fill="#872C00"/>
<path d="M1163.06 652.918L1131.32 675.435V677.119H1137.37L1163.06 652.918Z" fill="#872C00"/>
<path d="M1163.06 651.23H1157.02L1131.32 675.435H1137.37L1163.06 651.23Z" fill="#39CFFF"/>
<path d="M1196.14 653.428L1192.64 656.728H1151.18V654.528L1196.14 651.504V653.428Z" fill="#B51400"/>
<path d="M1191.34 658.104L1187.83 661.404H1146.37V659.204L1191.34 656.18V658.104Z" fill="#B51400"/>
<path d="M1186.33 662.78L1182.82 666.08H1141.36V663.88L1186.33 660.855V662.78Z" fill="#B51400"/>
<path d="M1181.26 667.455L1177.76 670.756H1136.29V668.555L1181.26 665.527V667.455Z" fill="#B51400"/>
<path d="M1176.29 672.131L1172.79 675.431H1131.33V673.231L1176.29 670.203V672.131Z" fill="#B51400"/>
<path d="M1196.14 651.23L1192.64 654.531H1151.18L1154.68 651.23H1196.14Z" fill="#D72D14"/>
<path d="M1191.19 655.906L1187.69 659.206H1146.22L1149.73 655.906H1191.19Z" fill="#D72D14"/>
<path d="M1186.23 660.582L1182.72 663.882H1141.26L1144.76 660.582H1186.23Z" fill="#D72D14"/>
<path d="M1181.26 665.258L1177.76 668.558H1136.29L1139.8 665.258H1181.26Z" fill="#D72D14"/>
<path d="M1176.29 669.934L1172.79 673.234H1131.33L1134.83 669.934H1176.29Z" fill="#D72D14"/>
<path d="M1256.03 575.725C1255.1 576.101 1254.16 576.473 1253.22 576.837C1253.01 576.321 1252.79 575.801 1252.55 575.317C1252.51 575.229 1252.46 575.129 1252.41 575.041C1248.77 567.769 1241.79 564.049 1234.73 563.841C1227.24 563.621 1219.66 567.349 1215.81 575.041C1215.52 575.613 1215.25 576.217 1215 576.833C1214.07 576.469 1213.14 576.097 1212.2 575.721C1212.29 575.489 1212.39 575.261 1212.49 575.037C1216.43 565.853 1224.77 561.109 1233.27 560.812H1234.73C1243.3 561.021 1251.78 565.765 1255.73 575.037C1255.78 575.125 1255.81 575.213 1255.85 575.313C1255.92 575.449 1255.98 575.593 1256.03 575.725Z" fill="#E82018"/>
<path d="M1255.85 575.317H1252.54C1248.94 567.869 1241.88 564.052 1234.73 563.844V560.82C1243.39 561.028 1251.94 565.868 1255.85 575.317Z" fill="#E82018"/>
<path d="M1290.68 642.133H1287.28V675.43H1290.68V642.133Z" fill="#F79B08"/>
<path d="M1304.29 655.966C1306.15 667.358 1296.45 677.071 1285.08 675.202C1278.19 674.07 1272.63 668.506 1271.5 661.606C1269.64 650.209 1279.34 640.497 1290.71 642.369C1297.6 643.497 1303.16 649.061 1304.29 655.966Z" fill="#F79B08"/>
<path d="M1308.57 655.966C1310.44 667.358 1300.74 677.071 1289.37 675.202C1282.48 674.07 1276.92 668.506 1275.79 661.606C1273.93 650.209 1283.62 640.497 1295 642.369C1301.89 643.497 1307.45 649.061 1308.57 655.966Z" fill="#FFD14D"/>
<path d="M1300.75 657.311C1301.73 663.268 1296.66 668.344 1290.71 667.368C1287.11 666.776 1284.2 663.868 1283.61 660.259C1282.64 654.303 1287.71 649.227 1293.65 650.203C1297.25 650.795 1300.16 653.703 1300.75 657.311Z" fill="#FFB600"/>
<path d="M1248.71 642.133H1245.31V675.43H1248.71V642.133Z" fill="#F79B08"/>
<path d="M1262.32 655.966C1264.18 667.358 1254.49 677.071 1243.11 675.202C1236.22 674.07 1230.67 668.506 1229.54 661.606C1227.67 650.209 1237.37 640.497 1248.74 642.369C1255.63 643.497 1261.19 649.061 1262.32 655.966Z" fill="#F79B08"/>
<path d="M1266.61 655.966C1268.47 667.358 1258.77 677.071 1247.4 675.202C1240.51 674.07 1234.95 668.506 1233.82 661.606C1231.96 650.209 1241.66 640.497 1253.03 642.369C1259.92 643.497 1265.47 649.061 1266.61 655.966Z" fill="#FFD14D"/>
<path d="M1258.78 657.311C1259.76 663.268 1254.69 668.344 1248.74 667.368C1245.14 666.776 1242.24 663.868 1241.64 660.259C1240.67 654.303 1245.74 649.227 1251.68 650.203C1255.29 650.795 1258.19 653.703 1258.78 657.311Z" fill="#FFB600"/>
<path d="M1205.75 649.305H1202.89V677.358H1205.75V649.305Z" fill="#F79B08"/>
<path d="M1217.21 660.956C1218.79 670.556 1210.61 678.737 1201.03 677.165C1195.23 676.212 1190.54 671.52 1189.59 665.708C1188.02 656.108 1196.19 647.927 1205.77 649.499C1211.58 650.451 1216.26 655.14 1217.21 660.956Z" fill="#F79B08"/>
<path d="M1220.82 660.956C1222.4 670.556 1214.23 678.737 1204.64 677.165C1198.84 676.212 1194.16 671.52 1193.2 665.708C1191.63 656.108 1199.8 647.927 1209.38 649.499C1215.19 650.451 1219.87 655.14 1220.82 660.956Z" fill="#FFD14D"/>
<path d="M1214.24 662.087C1215.06 667.107 1210.79 671.383 1205.78 670.559C1202.74 670.059 1200.3 667.611 1199.8 664.571C1198.98 659.551 1203.25 655.274 1208.26 656.098C1211.29 656.598 1213.74 659.046 1214.24 662.087Z" fill="#FFB600"/>
<path d="M783.351 743.506C783.391 743.47 783.507 743.318 783.507 743.078H781.311C781.311 741.102 784.302 740.65 791.068 739.818C793.268 739.546 796.32 739.17 797.969 738.742C796.32 738.314 793.264 737.938 791.068 737.666C784.302 736.83 781.311 736.378 781.311 734.405C781.311 732.433 784.302 731.981 791.068 731.149C793.264 730.877 796.312 730.501 797.965 730.073C796.312 729.645 793.268 729.269 791.068 728.997C784.302 728.165 781.311 727.709 781.311 725.737C781.311 723.761 784.302 723.309 791.064 722.473C793.264 722.201 796.324 721.825 797.973 721.393C796.324 720.965 793.268 720.585 791.068 720.313C784.302 719.477 781.311 719.025 781.311 717.049C781.311 715.073 784.302 714.621 791.068 713.785C793.272 713.513 796.328 713.133 797.977 712.705C796.328 712.273 793.268 711.897 791.068 711.621C784.302 710.784 781.311 710.332 781.311 708.352C781.311 706.376 784.302 705.92 791.064 705.084C793.967 704.724 798.353 704.184 799.048 703.576C799.008 703.612 798.892 703.764 798.892 704H801.088C801.088 705.976 798.097 706.432 791.331 707.268C789.127 707.54 786.067 707.92 784.418 708.352C786.067 708.784 789.127 709.164 791.331 709.436C798.097 710.272 801.088 710.724 801.088 712.705C801.088 714.681 798.097 715.133 791.335 715.969C789.131 716.241 786.075 716.621 784.426 717.049C786.075 717.477 789.131 717.857 791.331 718.129C798.097 718.965 801.088 719.417 801.088 721.393C801.088 723.369 798.097 723.821 791.331 724.657C789.131 724.929 786.079 725.305 784.43 725.733C786.079 726.161 789.135 726.537 791.335 726.809C798.097 727.645 801.803 728.229 801.088 730.069C800.122 732.565 797.154 733.005 791.331 733.325C789.119 733.449 786.083 733.973 784.434 734.401C786.087 734.829 789.135 735.205 791.331 735.477C798.097 736.314 801.088 736.766 801.088 738.738C801.088 740.714 798.097 741.166 791.331 741.998C788.428 742.362 784.042 742.906 783.351 743.506Z" fill="#00AFFC"/>
<path d="M826.657 612.481C826.657 612.481 835.017 615.889 838.152 618.977C842.521 623.281 844.969 626.646 846.635 629.558C847.19 630.526 847.074 631.734 846.343 632.582L844.698 634.49C843.947 635.358 842.729 635.642 841.678 635.182C836.994 633.126 826.545 630.194 824.465 633.77C821.901 638.174 815.854 655.419 821.441 664.223C825.479 670.591 831.769 683.476 834.945 690.128C836.103 692.552 835.36 695.444 833.191 697.029L830.987 698.637C828.666 700.329 825.443 699.993 823.546 697.829C817.755 691.224 804.966 678.532 792.226 678.532C779.01 678.532 766.229 692.248 760.997 698.625C759.456 700.505 756.883 701.157 754.627 700.249L751.224 698.881C748.808 697.909 747.382 695.392 747.801 692.816C749.467 682.556 754.643 657.619 766.209 652.115C780.863 645.142 792.585 650.279 796.982 646.61C801.38 642.942 800.809 638.102 806.919 627.146C814.544 613.477 830.687 607.717 830.687 607.717L826.657 612.481Z" fill="#F79B08"/>
<path d="M794.437 649.933H775.39V645.945H794.437C795.527 645.945 796.41 646.829 796.41 647.921V647.961C796.41 649.049 795.527 649.933 794.437 649.933Z" fill="#D10A0A"/>
<path d="M776.729 649.936H772.851L767.399 634.263C767.004 633.083 767.883 631.863 769.125 631.863H769.165C769.948 631.863 770.643 632.363 770.89 633.107L776.729 649.936Z" fill="#D10A0A"/>
<path d="M826.657 614.681C826.657 614.681 835.017 618.089 838.152 621.177C842.521 625.482 844.969 628.846 846.635 631.758C847.19 632.726 847.074 633.934 846.343 634.778L844.698 636.686C843.947 637.554 842.729 637.838 841.678 637.378C836.994 635.322 826.545 632.39 824.465 635.966C821.901 640.37 815.854 657.615 821.441 666.419C825.479 672.788 831.769 685.672 834.945 692.324C836.103 694.749 835.36 697.641 833.191 699.225L830.987 700.833C828.666 702.525 825.443 702.185 823.546 700.025C817.755 693.421 804.966 680.728 792.226 680.728C779.01 680.728 766.229 694.445 760.997 700.821C759.456 702.701 756.883 703.349 754.627 702.445L751.224 701.077C748.808 700.105 747.382 697.589 747.801 695.013C749.467 684.752 754.643 659.815 766.209 654.311C780.863 647.339 792.585 652.475 796.982 648.807C801.38 645.138 800.809 640.298 806.919 629.342C814.544 615.673 830.687 607.713 830.687 607.713L826.657 614.681Z" fill="#FFB600"/>
<path d="M796.477 704.778H785.921C780.845 704.778 776.731 697.962 776.731 689.549V672.453C776.731 668.789 779.698 665.816 783.357 665.816H799.045C802.703 665.816 805.671 668.789 805.671 672.453V689.549C805.671 697.958 801.553 704.778 796.477 704.778Z" fill="#6BA00A"/>
<path d="M818.48 676.581H810.604C809.326 676.581 808.292 675.757 808.292 674.741V674.705C808.292 673.689 809.326 672.865 810.604 672.865H818.48C819.758 672.865 820.792 673.689 820.792 674.705V674.741C820.792 675.757 819.758 676.581 818.48 676.581Z" fill="#38BBF4"/>
<path d="M770.26 676.581H762.384C761.106 676.581 760.072 675.757 760.072 674.741V674.705C760.072 673.689 761.106 672.865 762.384 672.865H770.26C771.538 672.865 772.573 673.689 772.573 674.705V674.741C772.573 675.757 771.538 676.581 770.26 676.581Z" fill="#38BBF4"/>
<path d="M796.477 706.977H785.921C780.845 706.977 776.731 700.161 776.731 691.749V674.652C776.731 670.988 779.698 668.016 783.357 668.016H799.045C802.703 668.016 805.671 670.988 805.671 674.652V691.749C805.671 700.157 801.553 706.977 796.477 706.977Z" fill="#8FD104"/>
<path d="M785.903 675.251C785.903 676.923 784.549 678.339 782.879 678.279C780.627 678.195 778.949 676.791 779.856 675.251C780.702 673.811 781.21 672.223 782.879 672.223C784.549 672.223 785.903 673.579 785.903 675.251Z" fill="#39CFFF"/>
<path d="M799.778 678.279C801.448 678.279 802.802 676.923 802.802 675.251C802.802 673.578 801.448 672.223 799.778 672.223C798.109 672.223 796.755 673.578 796.755 675.251C796.755 676.923 798.109 678.279 799.778 678.279Z" fill="#39CFFF"/>
<path d="M818.48 677.314H810.604C809.326 677.314 808.292 676.49 808.292 675.474V675.438C808.292 674.422 809.326 673.598 810.604 673.598H818.48C819.758 673.598 820.792 674.422 820.792 675.438V675.474C820.792 676.49 819.758 677.314 818.48 677.314Z" fill="#39CFFF"/>
<path d="M770.26 677.314H762.384C761.106 677.314 760.072 676.49 760.072 675.474V675.438C760.072 674.422 761.106 673.598 762.384 673.598H770.26C771.538 673.598 772.573 674.422 772.573 675.438V675.474C772.573 676.49 771.538 677.314 770.26 677.314Z" fill="#39CFFF"/>
<path d="M794.437 652.137H775.39V648.148H794.437C795.527 648.148 796.41 649.032 796.41 650.125V650.165C796.41 651.253 795.527 652.137 794.437 652.137Z" fill="#D92727"/>
<path d="M776.729 652.132H772.851L767.06 634.859C766.665 633.679 767.543 632.459 768.785 632.459H768.825C769.608 632.459 770.303 632.959 770.551 633.703L776.729 652.132Z" fill="#D92727"/>
<path d="M828.075 622C828.075 623.064 827.217 623.928 826.15 623.928C825.088 623.928 824.225 623.068 824.225 622C824.225 620.936 825.088 620.072 826.15 620.072C827.217 620.076 828.075 620.936 828.075 622Z" fill="#CC2742"/>
<path d="M827.579 622C827.579 622.788 826.94 623.428 826.153 623.428C825.366 623.428 824.727 622.788 824.727 622C824.727 621.212 825.366 620.572 826.153 620.572C826.94 620.572 827.579 621.212 827.579 622Z" fill="#511D0C"/>
<path d="M826.153 621.313C826.153 621.653 825.877 621.933 825.534 621.933C825.19 621.933 824.915 621.657 824.915 621.313C824.915 620.969 825.19 620.693 825.534 620.693C825.877 620.693 826.153 620.973 826.153 621.313Z" fill="#588ABB"/>
<path d="M459.427 584.674H447.313V589.358H459.427V584.674Z" fill="#6BA00A"/>
<path d="M456.136 439.414H450.609V584.676H456.136V439.414Z" fill="#FC7E0B"/>
<path d="M511.005 584.672H498.892V589.356H511.005V584.672Z" fill="#6BA00A"/>
<path d="M507.714 439.414H502.187V584.676H507.714V439.414Z" fill="#FC7E0B"/>
<path d="M461.129 584.674H449.016V589.358H461.129V584.674Z" fill="#8FD104"/>
<path d="M457.838 439.414H452.31V584.676H457.838V439.414Z" fill="#FFB600"/>
<path d="M512.706 584.674H500.592V589.358H512.706V584.674Z" fill="#8FD104"/>
<path d="M509.414 439.414H503.887V584.676H509.414V439.414Z" fill="#FFB600"/>
<path d="M514.188 468.793H450.01V473.857H514.188V468.793Z" fill="#D72D14"/>
<path d="M514.188 476.895H450.01V481.959H514.188V476.895Z" fill="#CC2742"/>
<path d="M514.188 485.002H450.01V490.066H514.188V485.002Z" fill="#D72D14"/>
<path d="M514.188 493.104H450.01V498.168H514.188V493.104Z" fill="#CC2742"/>
<path d="M518.122 433.453H444.682V441.541H518.122V433.453Z" fill="#D10A0A"/>
<path d="M499.111 406.201L497.058 433.45H444.682L481.406 406.201H499.111Z" fill="#E82018"/>
<path d="M478.132 584.674H466.018V589.358H478.132V584.674Z" fill="#6BA00A"/>
<path d="M474.843 439.414H469.315V584.676H474.843V439.414Z" fill="#FC7E0B"/>
<path d="M529.706 584.672H517.593V589.356H529.706V584.672Z" fill="#6BA00A"/>
<path d="M526.417 439.414H520.889V584.676H526.417V439.414Z" fill="#FC7E0B"/>
<path d="M479.833 584.674H467.719V589.358H479.833V584.674Z" fill="#8FD104"/>
<path d="M476.543 439.414H471.015V584.676H476.543V439.414Z" fill="#FFB600"/>
<path d="M531.411 584.674H519.298V589.358H531.411V584.674Z" fill="#8FD104"/>
<path d="M528.121 439.414H522.593V584.676H528.121V439.414Z" fill="#FFB600"/>
<path d="M518.933 511.23H479.545C475.999 511.23 473.127 513.603 473.127 516.535V567.921C473.127 570.849 476.003 573.225 479.545 573.225H518.933C522.48 573.225 525.351 570.849 525.351 567.921V516.535C525.355 513.603 522.48 511.23 518.933 511.23ZM492.37 557.792C492.37 558.868 491.311 559.741 490.009 559.741H485.452C484.15 559.741 483.092 558.868 483.092 557.792V557.736C483.092 555.64 485.149 553.944 487.685 553.944H487.777C490.313 553.944 492.37 555.644 492.37 557.736V557.792ZM492.37 539.628C492.37 540.704 491.311 541.576 490.009 541.576H485.452C484.15 541.576 483.092 540.704 483.092 539.628V539.572C483.092 537.476 485.149 535.78 487.685 535.78H487.777C490.313 535.78 492.37 537.476 492.37 539.572V539.628ZM492.37 521.463C492.37 522.539 491.311 523.411 490.009 523.411H485.452C484.15 523.411 483.092 522.539 483.092 521.463V521.407C483.092 519.311 485.149 517.615 487.685 517.615H487.777C490.313 517.615 492.37 519.315 492.37 521.407V521.463ZM515.391 565.317C515.391 566.393 514.336 567.265 513.03 567.265H508.473C507.171 567.265 506.113 566.393 506.113 565.317V565.257C506.113 563.161 508.17 561.465 510.706 561.465H510.798C513.334 561.465 515.391 563.165 515.391 565.257V565.317ZM515.391 547.152C515.391 548.228 514.336 549.1 513.03 549.1H508.473C507.171 549.1 506.113 548.228 506.113 547.152V547.092C506.113 544.996 508.17 543.3 510.706 543.3H510.798C513.334 543.3 515.391 544.996 515.391 547.092V547.152ZM515.391 528.983C515.391 530.059 514.336 530.931 513.03 530.931H508.473C507.171 530.931 506.113 530.059 506.113 528.983V528.927C506.113 526.831 508.17 525.135 510.706 525.135H510.798C513.334 525.135 515.391 526.835 515.391 528.927V528.983Z" fill="#38BBF4"/>
<path d="M518.933 511.939H479.545C475.999 511.939 473.127 514.312 473.127 517.244V568.63C473.127 571.558 476.003 573.934 479.545 573.934H518.933C522.48 573.934 525.351 571.558 525.351 568.63V517.244C525.355 514.316 522.48 511.939 518.933 511.939ZM492.37 558.505C492.37 559.581 491.311 560.454 490.009 560.454H485.452C484.15 560.454 483.092 559.581 483.092 558.505V558.445C483.092 556.349 485.149 554.653 487.685 554.653H487.777C490.313 554.653 492.37 556.349 492.37 558.445V558.505ZM492.37 540.341C492.37 541.417 491.311 542.289 490.009 542.289H485.452C484.15 542.289 483.092 541.417 483.092 540.341V540.285C483.092 538.189 485.149 536.492 487.685 536.492H487.777C490.313 536.492 492.37 538.189 492.37 540.285V540.341ZM492.37 522.172C492.37 523.248 491.311 524.12 490.009 524.12H485.452C484.15 524.12 483.092 523.248 483.092 522.172V522.116C483.092 520.02 485.149 518.324 487.685 518.324H487.777C490.313 518.324 492.37 520.024 492.37 522.116V522.172ZM515.391 566.026C515.391 567.102 514.336 567.974 513.03 567.974H508.473C507.171 567.974 506.113 567.102 506.113 566.026V565.97C506.113 563.874 508.17 562.178 510.706 562.178H510.798C513.334 562.178 515.391 563.878 515.391 565.97V566.026ZM515.391 547.861C515.391 548.937 514.336 549.809 513.03 549.809H508.473C507.171 549.809 506.113 548.937 506.113 547.861V547.805C506.113 545.709 508.17 544.013 510.706 544.013H510.798C513.334 544.013 515.391 545.709 515.391 547.805V547.861ZM515.391 529.696C515.391 530.772 514.336 531.644 513.03 531.644H508.473C507.171 531.644 506.113 530.772 506.113 529.696V529.64C506.113 527.544 508.17 525.848 510.706 525.848H510.798C513.334 525.848 515.391 527.548 515.391 529.64V529.696Z" fill="#39CFFF"/>
<path d="M528.121 502.178H471.016V506.294H528.121V502.178Z" fill="#FFB600"/>
<path d="M470.986 502.178H450.973V506.294H470.986V502.178Z" fill="#FC7E0B"/>
<path d="M565.914 512.818C565.942 512.826 565.95 512.83 565.926 512.822L565.914 512.818Z" fill="#FFB600"/>
<path d="M565.919 512.816C565.919 512.816 565.919 512.816 565.919 512.833C565.935 512.833 565.935 512.833 565.935 512.833C565.935 512.833 565.935 512.816 565.919 512.816Z" fill="#FFB600"/>
<path d="M565.91 512.819C565.874 512.811 565.866 512.807 565.874 512.807C565.874 512.807 565.878 512.811 565.91 512.819Z" fill="#FFB600"/>
<path d="M565.91 568.692C565.938 568.684 565.941 568.684 565.941 568.684C565.953 568.68 565.953 568.68 565.91 568.692Z" fill="#FFB600"/>
<path d="M522.59 502.15C522.59 502.15 549.848 507.818 553.91 509.27C557.956 510.738 562.242 511.826 565.916 512.814C565.932 512.814 565.932 512.83 565.932 512.83C573.261 514.826 583.174 517.17 588.817 522.135C591.521 519.758 593.254 516.786 593.254 512.954C593.254 509.01 591.417 505.946 588.593 503.506C583.274 498.894 529.639 486.437 522.586 484.541L522.59 502.15Z" fill="#FFB600"/>
<path d="M565.919 512.816C565.919 512.816 565.919 512.816 565.919 512.833C565.935 512.833 565.935 512.833 565.935 512.833C565.935 512.833 565.935 512.816 565.919 512.816Z" fill="#FFB600"/>
<path d="M565.911 512.819C565.879 512.811 565.871 512.807 565.871 512.807C565.879 512.811 565.895 512.815 565.911 512.819Z" fill="#FFB600"/>
<path d="M538.846 531.573C538.846 535.406 540.563 538.374 543.231 540.75C548.791 545.714 558.536 548.062 565.881 550.058C565.881 550.058 565.881 550.058 565.912 550.058C565.928 550.058 565.944 550.058 565.944 550.058V550.074C569.615 551.062 573.9 552.15 577.982 553.618C582.096 555.07 585.974 556.906 588.814 559.383C591.518 557.002 593.251 554.034 593.251 550.202C593.251 546.258 591.414 543.194 588.59 540.754C582.895 535.854 573.185 533.425 565.94 531.449H565.908C565.893 531.449 565.893 531.449 565.893 531.449C565.877 531.449 565.877 531.449 565.877 531.449V531.433C558.632 529.469 549.058 527.029 543.467 522.125C540.667 524.581 538.846 527.629 538.846 531.573Z" fill="#FFB600"/>
<path d="M565.919 568.684V568.7H565.935L565.919 568.684Z" fill="#FFB600"/>
<path d="M538.846 568.811C538.846 572.659 540.563 575.627 543.231 578.008C548.691 582.876 558.044 585.716 565.453 587.2C579.652 590.048 612.17 589.252 612.17 589.252C612.15 588.104 610.592 586.224 608.424 584.16C601.363 577.44 592.3 573.211 582.667 571.759C576.436 570.819 569.459 569.659 565.948 568.703C565.948 568.703 565.948 568.703 565.932 568.703L565.916 568.687H565.901C565.885 568.687 565.869 568.687 565.869 568.687C558.624 566.707 549.07 564.267 543.475 559.383C540.667 561.819 538.846 564.867 538.846 568.811Z" fill="#FFB600"/>
<path d="M565.946 568.682C565.946 568.682 565.942 568.682 565.914 568.69C565.926 568.686 565.938 568.682 565.946 568.682Z" fill="#FFB600"/>
<path d="M565.91 550.062C565.977 550.078 565.945 550.07 565.91 550.062Z" fill="#FFB600"/>
<path d="M565.908 550.062C565.876 550.07 565.844 550.078 565.908 550.062Z" fill="#FFB600"/>
<path d="M565.91 512.818L565.926 512.822L565.93 512.827L565.91 512.818Z" fill="#FFB600"/>
<path d="M565.909 494.162C565.873 494.174 565.837 494.182 565.909 494.162Z" fill="#FFB600"/>
<path d="M565.868 494.154C565.868 494.154 565.884 494.154 565.919 494.17C565.903 494.154 565.903 494.154 565.903 494.154C565.888 494.154 565.868 494.154 565.868 494.154Z" fill="#FFB600"/>
<path d="M565.91 512.818L565.926 512.822L565.91 512.818Z" fill="#FFB600"/>
<path d="M565.91 568.69C565.934 568.682 565.945 568.682 565.945 568.682C565.938 568.682 565.926 568.686 565.91 568.69Z" fill="#FFB600"/>
<path d="M565.886 568.695L565.878 568.699C565.878 568.699 565.878 568.695 565.886 568.695Z" fill="#FFB600"/>
<path d="M543.472 559.375C545.393 561.051 547.757 562.423 550.341 563.603C555.322 565.871 561.089 567.372 565.866 568.68C565.866 568.68 565.882 568.68 565.897 568.68H565.913C565.929 568.68 565.929 568.68 565.945 568.68C568.681 567.928 571.777 567.132 574.888 566.159C576.433 565.679 577.999 565.171 579.513 564.579C583.047 563.223 586.35 561.547 588.815 559.375C585.975 556.903 582.097 555.067 577.983 553.611C576.793 553.179 575.587 552.795 574.397 552.431C574.381 552.431 574.365 552.415 574.345 552.415C571.437 551.507 568.53 550.771 565.945 550.067V550.051C565.945 550.051 565.929 550.051 565.913 550.051C565.878 550.051 565.878 550.051 565.878 550.051V550.067C565.862 550.067 565.862 550.067 565.862 550.067C558.621 552.063 549.067 554.491 543.472 559.375Z" fill="#FFB600"/>
<path d="M565.919 568.684L565.935 568.699C565.95 568.699 565.95 568.699 565.95 568.699V568.684C565.935 568.684 565.935 568.684 565.919 568.684Z" fill="#FFB600"/>
<path d="M543.472 522.119C549.067 527.019 558.641 529.463 565.882 531.427V531.443C565.882 531.443 565.882 531.443 565.897 531.443C565.897 531.443 565.897 531.443 565.913 531.443H565.945V531.427C568.681 530.675 571.777 529.895 574.888 528.923C575.926 528.603 576.961 528.267 577.983 527.903C578.494 527.727 579.002 527.535 579.513 527.343C583.047 525.987 586.35 524.311 588.815 522.139C583.171 517.175 573.254 514.83 565.929 512.834C565.929 512.834 565.929 512.818 565.913 512.818C558.672 514.794 549.083 517.235 543.472 522.119Z" fill="#FC7E0B"/>
<path d="M543.472 522.119C545.377 523.795 547.721 525.167 550.305 526.335C555.306 528.619 561.101 530.135 565.882 531.427V531.443C565.882 531.443 565.882 531.443 565.897 531.443C565.897 531.443 565.897 531.443 565.913 531.443H565.945V531.427C568.681 530.675 571.777 529.895 574.888 528.919C575.926 528.599 576.961 528.263 577.983 527.899C578.494 527.723 579.002 527.531 579.513 527.339C583.047 525.983 586.35 524.307 588.815 522.135C585.176 518.927 579.752 516.819 574.397 515.191C574.381 515.191 574.365 515.175 574.345 515.175C571.421 514.267 568.514 513.531 565.929 512.827C565.929 512.827 565.929 512.811 565.913 512.811C558.672 514.795 549.083 517.235 543.472 522.119Z" fill="#FFB600"/>
<path d="M543.472 559.375C545.393 561.051 547.757 562.423 550.341 563.603C552.925 564.387 555.477 565.055 557.79 565.695C557.79 565.695 557.806 565.695 557.822 565.695H557.838C557.854 565.695 557.854 565.695 557.87 565.695C560.61 564.943 563.701 564.147 566.812 563.175C568.358 562.695 569.923 562.187 571.437 561.595C574.972 560.239 578.271 558.563 580.739 556.391C578.97 554.843 576.777 553.551 574.397 552.431C574.381 552.431 574.365 552.415 574.345 552.415C571.437 551.507 568.53 550.771 565.945 550.067V550.051C565.945 550.051 565.929 550.051 565.913 550.051C565.878 550.051 565.878 550.051 565.878 550.051V550.067C565.862 550.067 565.862 550.067 565.862 550.067C558.621 552.063 549.067 554.491 543.472 559.375Z" fill="#FC7E0B"/>
<path d="M543.472 522.119C545.377 523.795 547.721 525.167 550.305 526.335C552.905 527.131 555.473 527.803 557.806 528.443V528.459C557.806 528.459 557.806 528.459 557.822 528.459C557.822 528.459 557.822 528.459 557.838 528.459H557.87V528.443C560.61 527.691 563.701 526.911 566.812 525.935C567.851 525.615 568.885 525.279 569.907 524.915C570.419 524.739 570.926 524.547 571.437 524.355C574.972 522.999 578.271 521.323 580.739 519.151C578.97 517.587 576.793 516.295 574.397 515.191C574.381 515.191 574.365 515.175 574.345 515.175C571.421 514.267 568.514 513.531 565.929 512.827C565.929 512.827 565.929 512.811 565.913 512.811C558.672 514.795 549.083 517.235 543.472 522.119Z" fill="#FC7E0B"/>
<path d="M565.91 550.062C565.985 550.082 565.949 550.07 565.91 550.062C565.977 550.078 565.945 550.07 565.91 550.062Z" fill="#FFB600"/>
<path d="M531.898 468.795H467.72V473.859H531.898V468.795Z" fill="#D72D14"/>
<path d="M531.898 476.895H467.72V481.959H531.898V476.895Z" fill="#FF1454"/>
<path d="M531.898 485.002H467.72V490.066H531.898V485.002Z" fill="#D72D14"/>
<path d="M531.898 493.104H467.72V498.168H531.898V493.104Z" fill="#FF1454"/>
<path d="M535.832 433.453H462.392V441.541H535.832V433.453Z" fill="#E82018"/>
<path d="M535.836 433.45H462.392L499.112 406.201L535.836 433.45Z" fill="#D92727"/>
<path d="M797.601 605.758V415.39L805.568 415.15V605.758H797.601Z" fill="#6BA00A"/>
<path d="M877.632 415.389H865.283V605.757H877.632V415.389Z" fill="#6BA00A"/>
<path d="M789.811 529.279L784.467 536.823L744.444 589.533C736.648 599.802 724.507 605.834 711.626 605.834H689.148L691.325 601.466C695.527 593.03 704.134 587.697 713.547 587.697H713.831C721.747 587.697 729.187 583.917 733.864 577.521L781.344 512.442C785.518 506.722 792.164 503.342 799.237 503.342H807.728L789.811 529.279Z" fill="#0A98EC"/>
<path d="M820.564 503.342H810.532C803.458 503.342 796.813 506.722 792.639 512.442L745.159 577.521C740.482 583.917 733.042 587.697 725.126 587.697H724.842C715.429 587.697 706.826 593.03 702.62 601.466L700.443 605.838H722.921C735.802 605.838 747.943 599.81 755.739 589.537L795.762 536.827L801.106 529.283V529.059H820.564V503.342Z" fill="#00AFFC"/>
<path d="M874.083 480.461H809.11V532.975H874.083V480.461Z" fill="#FFB600"/>
<path d="M881.09 477.137H801.052V486.957H881.09V477.137Z" fill="#00AFFC"/>
<path d="M885.578 531.459C884.327 532.155 883.085 532.883 881.843 533.647C881.843 515.762 881.843 497.877 881.843 479.997C883.081 479.233 884.327 478.505 885.578 477.809C885.578 495.693 885.578 513.578 885.578 531.459Z" fill="#39CFFF"/>
<path d="M894.3 527.182C893.03 527.722 891.764 528.298 890.498 528.906C890.498 511.021 890.498 493.14 890.498 475.255C891.76 474.647 893.026 474.071 894.3 473.531C894.3 491.412 894.3 509.297 894.3 527.182Z" fill="#8FD104"/>
<path d="M903.158 523.971C901.872 524.359 900.586 524.779 899.308 525.231C899.308 507.346 899.308 489.465 899.308 471.58C900.59 471.124 901.872 470.704 903.158 470.32C903.158 488.201 903.158 506.086 903.158 523.971Z" fill="#39CFFF"/>
<path d="M912.107 521.826C910.809 522.058 909.511 522.326 908.217 522.626C908.217 504.741 908.217 486.857 908.217 468.976C909.511 468.676 910.805 468.408 912.107 468.176C912.107 486.057 912.107 503.941 912.107 521.826Z" fill="#8FD104"/>
<path d="M921.113 520.744C919.811 520.824 918.505 520.936 917.207 521.08C917.207 503.195 917.207 485.315 917.207 467.43C918.509 467.286 919.811 467.174 921.113 467.094C921.113 484.979 921.113 502.863 921.113 520.744Z" fill="#39CFFF"/>
<path d="M930.135 520.735C928.833 520.659 927.527 520.619 926.225 520.607C926.225 502.723 926.225 484.838 926.225 466.957C927.531 466.965 928.833 467.009 930.135 467.085C930.135 484.97 930.135 502.851 930.135 520.735Z" fill="#8FD104"/>
<path d="M939.141 521.797C937.843 521.565 936.541 521.369 935.243 521.205C935.243 503.32 935.243 485.435 935.243 467.555C936.545 467.719 937.843 467.915 939.141 468.143C939.141 486.031 939.141 503.912 939.141 521.797Z" fill="#39CFFF"/>
<path d="M948.091 523.925C946.805 523.541 945.515 523.189 944.221 522.873C944.221 504.988 944.221 487.107 944.221 469.223C945.515 469.539 946.805 469.891 948.091 470.275C948.091 488.155 948.091 506.04 948.091 523.925Z" fill="#8FD104"/>
<path d="M956.952 527.119C955.682 526.579 954.404 526.075 953.125 525.603C953.125 507.719 953.125 489.834 953.125 471.953C954.404 472.425 955.682 472.929 956.952 473.469C956.952 491.35 956.952 509.235 956.952 527.119Z" fill="#39CFFF"/>
<path d="M965.676 531.384C964.425 530.692 963.171 530.032 961.909 529.404C961.909 511.519 961.909 493.635 961.909 475.754C963.167 476.382 964.425 477.038 965.676 477.734C965.676 495.615 965.676 513.499 965.676 531.384Z" fill="#8FD104"/>
<path d="M972.773 486.954C942.631 466.801 908.763 466.801 878.617 486.954C878.617 484.754 878.617 482.558 878.617 480.358C908.759 460.209 942.627 460.209 972.773 480.358C972.773 482.558 972.773 484.758 972.773 486.954Z" fill="#D72D14"/>
<path d="M972.773 483.727C942.631 463.578 908.763 463.578 878.617 483.727C878.617 481.527 878.617 479.331 878.617 477.135C908.759 456.986 942.627 456.986 972.773 477.135C972.773 479.331 972.773 481.531 972.773 483.727Z" fill="#D72D14"/>
<path d="M972.773 541.679C942.631 521.53 908.763 521.53 878.617 541.679C878.617 539.482 878.617 537.282 878.617 535.086C908.759 514.937 942.627 514.937 972.773 535.086C972.773 537.286 972.773 539.482 972.773 541.679Z" fill="#D72D14"/>
<path d="M972.773 538.455C942.631 518.302 908.763 518.302 878.617 538.455C878.617 536.255 878.617 534.059 878.617 531.863C908.759 511.71 942.627 511.71 972.773 531.863C972.773 534.059 972.773 536.255 972.773 538.455Z" fill="#D72D14"/>
<path d="M813.401 415.389H801.052V544.258H813.401V415.389Z" fill="#8FD104"/>
<path d="M881.087 415.389H868.738V544.258H881.087V415.389Z" fill="#8FD104"/>
<path d="M813.401 415.389H801.052V605.757H813.401V415.389Z" fill="#8FD104"/>
<path d="M881.087 415.389H868.738V605.757H881.087V415.389Z" fill="#8FD104"/>
<path d="M881.091 405.393H797.179V415.389H881.091V405.393Z" fill="#00AFFC"/>
<path d="M791.709 407.986H810.377L838.526 361.336L791.709 407.986Z" fill="#FC7E0B"/>
<path d="M838.522 361.336L866.671 407.986H887.555L838.522 361.336Z" fill="#FC7E0B"/>
<path d="M810.375 407.986H827.01L838.524 361.336L810.375 407.986Z" fill="#D72D14"/>
<path d="M850.036 407.986H866.671L838.522 361.336L850.036 407.986Z" fill="#D72D14"/>
<path d="M827.01 407.986H850.039L838.524 361.336L827.01 407.986Z" fill="#FC7E0B"/>
<path d="M922.125 607.968V584.379L872.473 516.744H868.247L917.899 607.968H922.125Z" fill="#FFB600"/>
<path d="M917.899 607.968V584.379L868.247 516.744V540.333L917.899 607.968Z" fill="#F79B08"/>
<path d="M874.454 527.275H817.145V548.636H874.454V527.275Z" fill="#FC7E0B"/>
<path d="M876.043 527.275H812.128V529.623H876.043V527.275Z" fill="#F79B08"/>
<path d="M888.408 546.289H831.1V567.65H888.408V546.289Z" fill="#FC7E0B"/>
<path d="M889.995 546.289H826.08V548.637H889.995V546.289Z" fill="#F79B08"/>
<path d="M902.36 565.305H845.051V586.666H902.36V565.305Z" fill="#FC7E0B"/>
<path d="M903.95 565.305H840.036V567.653H903.95V565.305Z" fill="#F79B08"/>
<path d="M916.315 584.316H859.006V605.677H916.315V584.316Z" fill="#FC7E0B"/>
<path d="M917.904 584.316H853.99V586.665H917.904V584.316Z" fill="#F79B08"/>
<path d="M861.908 607.968V584.379L812.26 516.744H808.034L857.683 607.968H861.908Z" fill="#FFB600"/>
<path d="M857.683 607.968V584.379L808.034 516.744V540.333L857.683 607.968Z" fill="#F79B08"/>
<path d="M978.965 415.389H966.616V605.757H978.965V415.389Z" fill="#6BA00A"/>
<path d="M1046.65 415.389H1034.3V605.757H1046.65V415.389Z" fill="#6BA00A"/>
<path d="M1049.23 529.279L1054.57 536.823L1094.59 589.533C1102.39 599.802 1114.53 605.834 1127.41 605.834H1149.89L1147.71 601.466C1143.51 593.03 1134.9 587.697 1125.49 587.697H1125.21C1117.29 587.697 1109.85 583.917 1105.17 577.521L1057.7 512.442C1053.52 506.722 1046.88 503.342 1039.81 503.342H1031.31L1049.23 529.279Z" fill="#0A98EC"/>
<path d="M1036.43 503.342H1046.46C1053.53 503.342 1060.18 506.722 1064.35 512.442L1111.83 577.521C1116.51 583.917 1123.95 587.697 1131.87 587.697H1132.15C1141.56 587.697 1150.17 593.03 1154.37 601.466L1156.55 605.838H1134.07C1121.19 605.838 1109.05 599.81 1101.25 589.537L1061.23 536.827L1061.18 536.751C1057.86 532.059 1052.49 529.243 1046.74 529.175L1036.43 529.055L1036.43 503.342Z" fill="#00AFFC"/>
<path d="M1043.1 480.461H978.13V532.975H1043.1V480.461Z" fill="#FFB600"/>
<path d="M1050.11 477.137H970.072V486.957H1050.11V477.137Z" fill="#00AFFC"/>
<path d="M982.422 415.389H970.072V544.258H982.422V415.389Z" fill="#8FD104"/>
<path d="M1050.11 415.389H1037.76V544.258H1050.11V415.389Z" fill="#8FD104"/>
<path d="M1050.11 405.393H966.199V415.389H1050.11V405.393Z" fill="#00AFFC"/>
<path d="M960.728 407.986H979.395L1007.54 361.336L960.728 407.986Z" fill="#FC7E0B"/>
<path d="M1007.54 361.336L1035.69 407.986H1056.58L1007.54 361.336Z" fill="#FC7E0B"/>
<path d="M979.393 407.986H996.028L1007.54 361.336L979.393 407.986Z" fill="#D72D14"/>
<path d="M1019.06 407.986H1035.69L1007.54 361.336L1019.06 407.986Z" fill="#D72D14"/>
<path d="M996.028 407.986H1019.06L1007.54 361.336L996.028 407.986Z" fill="#FC7E0B"/>
<path d="M1050.11 528.066H970.071V537.887H1050.11V528.066Z" fill="#00AFFC"/>
<path d="M982.422 415.389H970.072V605.757H982.422V415.389Z" fill="#8FD104"/>
<path d="M1050.11 415.389H1037.76V605.757H1050.11V415.389Z" fill="#8FD104"/>
<path d="M989.316 605.758H981.551V597.838C981.551 591.561 986.484 586.457 992.543 586.457H1026.65C1028.43 586.457 1029.87 584.837 1029.87 582.853C1029.87 580.713 1028.43 579.097 1026.65 579.097H992.543C986.484 579.097 981.551 573.993 981.551 567.712V566.644C981.551 560.368 986.484 555.26 992.543 555.26H1026.65C1028.43 555.26 1029.87 553.644 1029.87 551.656C1029.87 549.516 1028.43 547.9 1026.65 547.9H992.403C986.464 547.9 981.535 542.895 981.416 536.743L981.252 528.135H989.016L989.18 536.599C989.216 538.539 990.662 540.123 992.403 540.123H1026.65C1032.71 540.123 1037.64 545.227 1037.64 551.508C1037.64 557.936 1032.71 563.044 1026.65 563.044H992.543C990.765 563.044 989.316 564.664 989.316 566.648V567.716C989.316 569.701 990.761 571.321 992.543 571.321H1026.65C1032.71 571.321 1037.64 576.425 1037.64 582.705C1037.64 589.133 1032.71 594.242 1026.65 594.242H992.543C990.765 594.242 989.316 595.858 989.316 597.846V605.758Z" fill="#D72D14"/>
<path d="M987.375 605.758H983.493V595.222C983.493 590.017 987.551 585.785 992.543 585.785H1026.65C1029.5 585.785 1031.82 583.297 1031.82 580.237C1031.82 577.025 1029.5 574.537 1026.65 574.537H992.543C987.551 574.537 983.493 570.305 983.493 565.1V564.028C983.493 558.824 987.551 554.588 992.543 554.588H1026.65C1029.5 554.588 1031.82 552.1 1031.82 549.04C1031.82 545.832 1029.5 543.343 1026.65 543.343H992.403C987.515 543.343 983.457 539.191 983.357 534.091L983.193 528.135H987.076L987.239 534.015C987.299 537.015 989.616 539.455 992.403 539.455H1026.65C1031.64 539.455 1035.7 543.691 1035.7 548.892C1035.7 554.244 1031.64 558.476 1026.65 558.476H992.543C989.695 558.476 987.375 560.964 987.375 564.024V565.096C987.375 568.152 989.691 570.641 992.543 570.641H1026.65C1031.64 570.641 1035.7 574.877 1035.7 580.077C1035.7 585.433 1031.64 589.669 1026.65 589.669H992.543C989.695 589.669 987.375 592.157 987.375 595.218V605.758Z" fill="#FF97B5"/>
<path d="M503.875 616.36C512.506 622.24 518.169 632.181 518.205 643.417C522.191 641.141 527.048 640.197 532.116 641.177C539.876 642.645 546.235 648.842 547.912 656.542C550.776 669.526 541.13 681.079 528.725 681.395C528.517 681.431 528.342 681.431 528.13 681.431H591.246C591.49 681.431 591.701 681.431 591.945 681.395C607.114 681.011 618.856 666.902 615.397 651.082C613.3 641.665 605.576 634.173 596.107 632.353C589.92 631.161 584.013 632.281 579.12 635.085C579.084 613 561.192 595.111 539.173 595.111C523.9 595.111 510.621 603.724 503.875 616.36Z" fill="#7FAD36"/>
<path d="M442.926 681.361C443.309 681.433 443.728 681.433 444.148 681.433H528.128C528.34 681.433 528.511 681.433 528.723 681.397C541.132 681.081 550.777 669.533 547.91 656.544C546.232 648.844 539.87 642.648 532.114 641.18C527.045 640.199 522.189 641.143 518.203 643.42C518.167 632.183 512.508 622.243 503.873 616.362C498.629 612.758 492.27 610.658 485.421 610.658C470.044 610.658 457.148 621.263 453.617 635.579C447.571 632.919 440.162 632.711 432.717 636.243C428.452 638.275 424.925 641.808 422.896 646.08C414.689 663.508 426.674 680.589 442.926 681.361Z" fill="#8BB240"/>
<path d="M538.05 619.887C529.875 625.915 534.755 630.804 540.774 622.615C546.793 630.8 551.673 625.915 543.498 619.887C551.669 613.859 546.793 608.971 540.774 617.159C534.755 608.971 529.879 613.859 538.05 619.887Z" fill="#FF97B5"/>
<path d="M538.85 617.956C528.813 616.428 528.813 623.34 538.85 621.816C537.324 631.869 544.226 631.869 542.704 621.816C552.741 623.34 552.741 616.432 542.704 617.956C544.226 607.908 537.324 607.908 538.85 617.956Z" fill="#FF76A7"/>
<path d="M540.773 622.073C541.978 622.073 542.954 621.095 542.954 619.889C542.954 618.683 541.978 617.705 540.773 617.705C539.569 617.705 538.593 618.683 538.593 619.889C538.593 621.095 539.569 622.073 540.773 622.073Z" fill="#FFD14D"/>
<path d="M479.705 649.164C471.533 655.193 476.41 660.081 482.428 651.893C488.447 660.077 493.328 655.193 485.152 649.164C493.324 643.136 488.447 638.248 482.428 646.436C476.41 638.252 471.533 643.136 479.705 649.164Z" fill="#FF97B5"/>
<path d="M480.506 647.237C470.469 645.713 470.469 652.621 480.506 651.097C478.984 661.149 485.881 661.149 484.36 651.097C494.396 652.625 494.396 645.713 484.36 647.237C485.881 637.184 478.98 637.184 480.506 647.237Z" fill="#FF76A7"/>
<path d="M482.429 651.347C483.633 651.347 484.609 650.369 484.609 649.163C484.609 647.956 483.633 646.979 482.429 646.979C481.224 646.979 480.248 647.956 480.248 649.163C480.248 650.369 481.224 651.347 482.429 651.347Z" fill="#FFD14D"/>
<path d="M594.334 658.633C589.182 662.433 592.257 665.513 596.052 660.353C599.846 665.513 602.921 662.433 597.769 658.633C602.921 654.833 599.846 651.753 596.052 656.913C592.257 651.753 589.182 654.833 594.334 658.633Z" fill="#FF97B5"/>
<path d="M594.838 657.416C588.511 656.452 588.511 660.808 594.838 659.848C593.879 666.185 598.224 666.185 597.266 659.848C603.592 660.808 603.592 656.452 597.266 657.416C598.224 651.08 593.875 651.08 594.838 657.416Z" fill="#FF76A7"/>
<path d="M594.679 658.634C594.679 659.394 595.294 660.01 596.053 660.01C596.812 660.01 597.427 659.394 597.427 658.634C597.427 657.874 596.812 657.258 596.053 657.258C595.294 657.258 594.679 657.874 594.679 658.634Z" fill="#FFD14D"/>
<path d="M1437.97 650.335L1396.31 580.028L1397.73 579.184L1439.39 649.495L1437.97 650.335Z" fill="#517F93"/>
<path d="M1426.64 572.351L1425.01 572.621L1437.78 650.088L1439.41 649.819L1426.64 572.351Z" fill="#517F93"/>
<path d="M1451.83 579.212L1437.96 649.803L1439.59 650.122L1453.45 579.532L1451.83 579.212Z" fill="#517F93"/>
<path d="M1479.61 571.811L1437.96 649.582L1439.41 650.363L1481.07 572.592L1479.61 571.811Z" fill="#517F93"/>
<path d="M1409.81 561.486L1408.25 562.012L1437.8 650.225L1439.36 649.699L1409.81 561.486Z" fill="#517F93"/>
<path d="M1437.86 649.916L1437.74 534.967H1439.38L1439.5 649.916H1437.86Z" fill="#517F93"/>
<path d="M1472.13 555.427L1437.91 649.723L1439.46 650.287L1473.68 555.991L1472.13 555.427Z" fill="#517F93"/>
<path d="M1437.54 496.322C1428.51 496.322 1421.19 503.651 1421.19 512.691V512.991C1421.19 521.255 1425.72 528.856 1432.97 532.792L1435.64 533.492L1434.26 536.276H1437.7V535.356V528.928V496.318L1437.54 496.322Z" fill="#FF97B5"/>
<path d="M1437.87 496.322C1446.9 496.322 1454.21 503.651 1454.21 512.691V512.991C1454.21 521.255 1449.69 528.856 1442.44 532.792L1439.77 533.492L1441.14 536.276H1437.71V535.356V528.928V496.318L1437.87 496.322Z" fill="#FF76A7"/>
<path d="M1428.82 511.476C1430.72 511.476 1432.26 509.934 1432.26 508.032C1432.26 506.13 1430.72 504.588 1428.82 504.588C1426.92 504.588 1425.38 506.13 1425.38 508.032C1425.38 509.934 1426.92 511.476 1428.82 511.476Z" fill="white"/>
<path d="M1406.34 508.826C1397.32 508.826 1390 516.155 1390 525.195V525.495C1390 533.759 1394.52 541.36 1401.78 545.296L1404.44 545.996L1403.07 548.78H1406.51V547.86V541.432V508.822L1406.34 508.826Z" fill="#B8D040"/>
<path d="M1406.67 508.826C1415.69 508.826 1423.01 516.155 1423.01 525.195V525.495C1423.01 533.759 1418.49 541.36 1411.24 545.296L1408.57 545.996L1409.94 548.78H1406.5V547.86V541.432V508.822L1406.67 508.826Z" fill="#8FD104"/>
<path d="M1401.06 520.536C1401.06 522.44 1399.52 523.98 1397.62 523.98C1395.72 523.98 1394.18 522.436 1394.18 520.536C1394.18 518.632 1395.72 517.092 1397.62 517.092C1399.52 517.092 1401.06 518.636 1401.06 520.536Z" fill="white"/>
<path d="M1423.43 534.346C1414.41 534.346 1407.09 541.674 1407.09 550.714V551.014C1407.09 559.279 1411.61 566.879 1418.86 570.815L1421.53 571.515L1420.16 574.299H1423.6V573.379V566.951V534.342H1423.43V534.346Z" fill="#FFBD8C"/>
<path d="M1423.76 534.346C1432.79 534.346 1440.11 541.674 1440.11 550.714V551.014C1440.11 559.279 1435.59 566.879 1428.33 570.815L1425.66 571.515L1427.04 574.299H1423.6V573.379V566.951V534.342H1423.76V534.346Z" fill="#FFA86E"/>
<path d="M1418.15 546.059C1418.15 547.963 1416.61 549.504 1414.72 549.504C1412.81 549.504 1411.28 547.963 1411.28 546.059C1411.28 544.159 1412.81 542.615 1414.72 542.615C1416.62 542.615 1418.15 544.155 1418.15 546.059Z" fill="white"/>
<path d="M1451.09 540.959C1442.06 540.959 1434.74 548.287 1434.74 557.328V557.628C1434.74 565.892 1439.26 573.492 1446.52 577.429L1449.19 578.129L1447.81 580.913H1451.25V579.993V573.564V540.955H1451.09V540.959Z" fill="#4FE2EE"/>
<path d="M1442.36 556.117C1444.26 556.117 1445.8 554.575 1445.8 552.673C1445.8 550.77 1444.26 549.229 1442.36 549.229C1440.46 549.229 1438.93 550.77 1438.93 552.673C1438.93 554.575 1440.46 556.117 1442.36 556.117Z" fill="white"/>
<path d="M1395.78 541.377C1386.76 541.377 1379.44 548.705 1379.44 557.746V558.046C1379.44 566.31 1383.96 573.91 1391.22 577.847L1393.88 578.547L1392.51 581.331H1395.95V580.411V573.982V541.373H1395.78V541.377Z" fill="#4FE2EE"/>
<path d="M1396.12 541.377C1405.14 541.377 1412.46 548.705 1412.46 557.746V558.046C1412.46 566.31 1407.94 573.91 1400.69 577.847L1398.02 578.547L1399.39 581.331H1395.95V580.411V573.982V541.373H1396.12V541.377Z" fill="#4DCADF"/>
<path d="M1387.07 556.531C1388.96 556.531 1390.5 554.989 1390.5 553.087C1390.5 551.185 1388.96 549.643 1387.07 549.643C1385.17 549.643 1383.63 551.185 1383.63 553.087C1383.63 554.989 1385.17 556.531 1387.07 556.531Z" fill="white"/>
<path d="M1438.7 637.754H1438.85C1447.11 637.754 1453.8 644.458 1453.8 652.723V653.363H1438.7V637.754Z" fill="#FFBF1F"/>
<path d="M1438.7 637.754H1438.55C1430.29 637.754 1423.6 644.458 1423.6 652.723V653.363H1438.7V637.754Z" fill="#FFCD40"/>
<path d="M1014.9 311.369H1011.02V364.191H1014.9V311.369Z" fill="#00AFFC"/>
<path d="M1037.13 318.221L1010.66 330.197V306.24L1037.13 318.221Z" fill="#D92727"/>
<path d="M133.447 326.709L132.968 326.933L133.99 326.686L133.447 326.709Z" fill="#E58741"/>
<path d="M175.522 260.989L130.866 329.776L198.627 260.801L175.522 260.989Z" fill="#B8D040"/>
<path d="M158.4 261.128L130.866 329.775L175.522 260.988L158.4 261.128Z" fill="#FFD14D"/>
<path d="M198.953 301.092L198.813 284.031L131.228 329.617L198.953 301.092Z" fill="#FFA02E"/>
<path d="M198.814 284.034L198.627 260.801L130.866 329.776L131.229 329.62L198.814 284.034Z" fill="#39CFFF"/>
<path d="M51.6788 436.395C57.6777 427.97 62.4904 419.39 64.6151 409.142C67.4309 395.561 69.1922 383.825 77.5035 372.288C85.7589 360.836 95.9315 354.319 108.588 348.567C119.204 343.667 127.18 337.023 134.585 328.074C126.737 336.399 118.509 342.439 107.761 346.583C94.7373 351.523 84.8523 357.407 75.187 367.572C66.3046 378.668 61.7595 389.397 58.4965 403.149C55.9004 413.854 51.2036 422.298 44.3101 430.767C46.7703 432.643 49.2226 434.519 51.6788 436.395Z" fill="#FFA02E"/>
<path d="M33.2573 419.34C40.694 412.16 46.9964 404.607 50.9624 394.923C56.2144 382.09 60.0925 370.878 70.3768 361.062C80.5853 351.317 91.7802 346.781 105.276 343.449C116.61 340.581 125.665 335.512 134.583 328.076C125.345 334.82 116.151 339.245 104.828 341.345C91.1212 343.809 80.3296 347.781 68.967 355.997C58.2033 365.278 51.7731 374.986 46.0499 387.911C41.5367 397.955 35.3781 405.395 27.0508 412.456C29.1196 414.748 31.1885 417.044 33.2573 419.34Z" fill="#F83E3D"/>
<path d="M18.2723 399.191C26.8992 393.499 34.4757 387.231 40.1431 378.438C47.6556 366.79 53.5227 356.473 65.4286 348.717C77.2506 341.013 89.0845 338.609 102.959 337.809C114.626 337.069 124.455 333.752 134.583 328.076C124.267 333.008 114.418 335.672 102.903 335.656C88.9767 335.564 77.642 337.485 64.9653 343.477C52.688 350.625 44.5883 358.989 36.5965 370.638C30.322 379.686 22.9053 385.871 13.4277 391.279C15.0413 393.915 16.6588 396.555 18.2723 399.191Z" fill="#0A98EC"/>
<path d="M218.708 586.811H213.38V710.536H218.708V586.811Z" fill="#39B1FF"/>
<path d="M213.373 586.811H210.957V710.536H213.373V586.811Z" fill="#39B1FF"/>
<path d="M235.518 586.811H230.19V710.536H235.518V586.811Z" fill="#39CFFF"/>
<path d="M230.188 586.811H227.772V710.536H230.188V586.811Z" fill="#39B1FF"/>
<path d="M218.708 586.811H213.38V710.536H218.708V586.811Z" fill="#38BBF4"/>
<path d="M213.373 586.811H210.957V710.536H213.373V586.811Z" fill="#39B1FF"/>
<path d="M235.518 586.811H230.19V710.536H235.518V586.811Z" fill="#39CFFF"/>
<path d="M230.188 586.811H227.772V710.536H230.188V586.811Z" fill="#39B1FF"/>
<path d="M271.211 586.811H265.883V710.536H271.211V586.811Z" fill="#38BBF4"/>
<path d="M265.884 586.811H263.467V710.536H265.884V586.811Z" fill="#39B1FF"/>
<path d="M288.021 586.811H282.693V710.536H288.021V586.811Z" fill="#39CFFF"/>
<path d="M282.695 586.811H280.279V710.536H282.695V586.811Z" fill="#39B1FF"/>
<path d="M279.72 533.809V590.891H259.962H210.957V533.809H279.72Z" fill="#DC4C07"/>
<path d="M204.281 533.809H261.014V499.6H248.342L204.281 533.809Z" fill="#6BA00A"/>
<path d="M223.513 533.809H298.523L261.016 499.6L223.513 533.809Z" fill="#8FD104"/>
<path d="M291.844 533.809V590.891H273.715H230.189V533.809H291.844Z" fill="#FFA02E"/>
<path d="M305.409 567.67C310.621 562.762 317.004 560.706 321.225 562.186C313.154 553.057 301.547 547.789 289.31 547.789H282.712C278.075 549.013 274.385 555.529 274.137 563.518C273.921 570.586 276.23 577.242 279.868 579.842H279.884V579.854C279.904 579.87 279.928 579.886 279.948 579.902H280.088C286.997 579.902 293.344 582.062 298.999 585.599C296.747 581.182 299.578 573.166 305.409 567.67Z" fill="#39B1FF"/>
<path d="M279.888 579.899H279.951C279.931 579.883 279.908 579.867 279.888 579.852V579.899Z" fill="#DC4C07"/>
<path d="M274.144 563.52C274.388 555.531 278.082 549.015 282.719 547.791H279.895V547.851C279.656 547.823 261.935 547.791 261.691 547.791C256.259 547.791 251.858 554.979 251.858 563.848C251.858 572.716 256.259 579.904 261.691 579.904C261.935 579.904 279.492 579.872 279.879 579.844C276.237 577.244 273.924 570.588 274.144 563.52Z" fill="#39CFFF"/>
<path d="M385.814 604.347C385.57 604.347 385.331 604.379 385.091 604.407V604.347H375.669C375.138 604.347 374.611 604.319 374.084 604.299C370.238 605.283 364.75 612.179 364.702 620.404C364.65 629.272 369.103 636.46 374.535 636.46H385.091V636.4C385.331 636.428 385.57 636.46 385.814 636.46C391.246 636.46 395.647 629.272 395.647 620.404C395.647 611.535 391.246 604.347 385.814 604.347Z" fill="#39B1FF"/>
<path d="M364.698 620.403C364.746 612.178 370.233 605.282 374.08 604.298C366.978 604.014 360.44 601.842 354.681 598.178C349.876 597.534 343.163 601.614 339.177 608.482C335.359 615.062 334.22 622.099 336.493 625.943C344.668 632.775 355.907 636.459 366.447 636.459H374.531C369.099 636.459 364.646 629.267 364.698 620.403Z" fill="#39CFFF"/>
<path d="M339.175 608.482C343.161 601.613 349.878 597.533 354.679 598.177C350.533 595.541 346.787 592.145 343.54 588.117L339.534 583.461C335.313 582.017 328.966 584.073 323.774 588.961C318.898 593.553 316.449 599.321 317.148 603.578L331.522 620.918C332.996 622.746 334.67 624.422 336.491 625.942C334.218 622.094 335.356 615.058 339.175 608.482Z" fill="#39B1FF"/>
<path d="M323.775 588.963C328.964 584.075 335.314 582.019 339.535 583.463L322.493 563.67C322.086 563.162 321.659 562.674 321.227 562.19C317.006 560.71 310.624 562.766 305.411 567.674C299.576 573.166 296.749 581.187 299.009 585.603C303.902 588.663 308.283 592.755 312.037 597.411L317.15 603.58C316.451 599.323 318.899 593.555 323.775 588.963Z" fill="#39CFFF"/>
<path d="M403.696 650.699H398.368V709.61H403.696V650.699Z" fill="#39B1FF"/>
<path d="M398.37 650.699H395.954V709.61H398.37V650.699Z" fill="#39B1FF"/>
<path d="M420.51 650.699H415.182V709.61H420.51V650.699Z" fill="#39CFFF"/>
<path d="M415.186 650.699H412.77V709.61H415.186V650.699Z" fill="#39B1FF"/>
<path d="M330.163 650.695H324.835V709.606H330.163V650.695Z" fill="#39B1FF"/>
<path d="M324.834 650.695H322.417V709.606H324.834V650.695Z" fill="#39B1FF"/>
<path d="M346.973 650.695H341.645V709.606H346.973V650.695Z" fill="#39CFFF"/>
<path d="M341.643 650.695H339.227V709.606H341.643V650.695Z" fill="#39B1FF"/>
<path d="M408.658 597.693V654.776H388.904H322.417V597.693H408.658Z" fill="#DC4C07"/>
<path d="M315.736 597.694H381.212V563.484H361.985L315.736 597.694Z" fill="#6BA00A"/>
<path d="M334.968 597.694H427.463L381.214 563.484L334.968 597.694Z" fill="#8FD104"/>
<path d="M420.782 597.693V654.776H402.654V625.391C402.654 613.65 393.148 604.13 381.426 604.13H380.999C369.277 604.13 359.771 613.646 359.771 625.391V654.776H341.643V597.693H420.782Z" fill="#FFA02E"/>
<path d="M443.237 711.329V691.64L405.522 635.182H402.315L440.026 711.329H443.237Z" fill="#FFD14D"/>
<path d="M440.026 711.329V691.64L402.315 635.182V654.87L440.026 711.329Z" fill="#FCD746"/>
<path d="M407.029 643.971H363.496V661.803H407.029V643.971Z" fill="#FC7E0B"/>
<path d="M408.233 643.971H359.687V645.931H408.233V643.971Z" fill="#F79B08"/>
<path d="M417.631 659.842H374.097V677.675H417.631V659.842Z" fill="#FC7E0B"/>
<path d="M418.833 659.842H370.287V661.802H418.833V659.842Z" fill="#F79B08"/>
<path d="M428.228 675.715H384.694V693.548H428.228V675.715Z" fill="#FC7E0B"/>
<path d="M429.43 675.715H380.884V677.675H429.43V675.715Z" fill="#F79B08"/>
<path d="M438.824 691.59H395.291V709.423H438.824V691.59Z" fill="#FC7E0B"/>
<path d="M440.025 691.59H391.479V693.55H440.025V691.59Z" fill="#F79B08"/>
<path d="M397.497 711.329V691.64L359.783 635.182H356.572L394.286 711.329H397.497Z" fill="#FFD14D"/>
<path d="M394.286 711.329V691.64L356.572 635.182V654.87L394.286 711.329Z" fill="#FCD746"/>
<path d="M287.398 642.881C282.186 637.973 275.804 635.917 271.582 637.397C279.654 628.268 291.26 623 303.497 623H310.095C314.732 624.224 318.423 630.74 318.67 638.729C318.886 645.797 316.578 652.453 312.935 655.053H312.919V655.065C312.895 655.081 312.875 655.097 312.855 655.113H312.711C305.802 655.113 299.456 657.273 293.8 660.81C296.061 656.393 293.233 648.373 287.398 642.881Z" fill="#39B1FF"/>
<path d="M312.919 655.112H312.855C312.875 655.096 312.895 655.08 312.919 655.064V655.112Z" fill="#DC4C07"/>
<path d="M318.672 638.729C318.428 630.74 314.734 624.224 310.097 623H312.921V623.06C313.161 623.032 330.882 623 331.125 623C336.557 623 340.958 630.188 340.958 639.057C340.958 647.925 336.557 655.113 331.125 655.113C330.882 655.113 313.324 655.081 312.937 655.053C316.579 652.453 318.888 645.797 318.672 638.729Z" fill="#39CFFF"/>
<path d="M207.001 679.554C207.245 679.554 207.485 679.586 207.724 679.614V679.554H217.146C217.681 679.554 218.204 679.526 218.732 679.506C222.578 680.486 228.065 687.386 228.113 695.611C228.165 704.479 223.712 711.667 218.28 711.667H207.724V711.607C207.485 711.635 207.245 711.667 207.001 711.667C201.57 711.667 197.168 704.479 197.168 695.611C197.168 686.742 201.57 679.554 207.001 679.554Z" fill="#39B1FF"/>
<path d="M228.112 695.61C228.064 687.385 222.577 680.489 218.731 679.505C225.832 679.221 232.37 677.049 238.129 673.385C242.934 672.741 249.648 676.821 253.633 683.689C257.452 690.27 258.59 697.306 256.317 701.15C248.142 707.982 236.899 711.666 226.363 711.666H218.279C223.711 711.666 228.164 704.478 228.112 695.61Z" fill="#39CFFF"/>
<path d="M253.632 683.691C249.646 676.822 242.933 672.742 238.128 673.386C242.274 670.75 246.016 667.354 249.267 663.326L253.273 658.67C257.494 657.226 263.841 659.282 269.033 664.17C273.909 668.762 276.358 674.53 275.659 678.787L261.289 696.127C259.815 697.955 258.141 699.631 256.32 701.151C258.589 697.307 257.45 690.271 253.632 683.691Z" fill="#39B1FF"/>
<path d="M269.032 664.174C263.844 659.286 257.498 657.23 253.272 658.674L270.315 638.881C270.722 638.373 271.149 637.885 271.577 637.401C275.798 635.921 282.18 637.977 287.393 642.885C293.228 648.377 296.055 656.398 293.795 660.814C288.898 663.874 284.521 667.966 280.767 672.622L275.654 678.791C276.357 674.534 273.909 668.762 269.032 664.174Z" fill="#39CFFF"/>
<path d="M198.209 654.355V711.438H185.009H125.076V654.355H198.209Z" fill="#DC4C07"/>
<path d="M118.398 654.358H177.317V620.148H158.09L118.398 654.358Z" fill="#6BA00A"/>
<path d="M137.628 654.358H217.012L177.32 620.148L137.628 654.358Z" fill="#8FD104"/>
<path d="M210.334 654.355H144.31V711.438H210.334V654.355Z" fill="#FFA02E"/>
<path d="M156.857 682.898C156.857 693.419 165.372 701.947 175.876 701.947C186.38 701.947 194.895 693.419 194.895 682.898C194.895 672.378 186.38 663.85 175.876 663.85C165.372 663.85 156.857 672.378 156.857 682.898Z" fill="#FF3600"/>
<path d="M1421.56 750.909C1421.13 750.989 1420.67 750.989 1420.2 750.989H1326.89C1326.66 750.989 1326.46 750.989 1326.23 750.949C1312.42 750.597 1301.72 737.748 1304.89 723.348C1306.77 714.763 1313.83 707.915 1322.45 706.259C1328.09 705.179 1333.47 706.203 1337.92 708.751C1337.96 688.642 1354.26 672.346 1374.34 672.346C1391.43 672.346 1405.76 684.13 1409.68 700.039C1416.4 697.083 1424.63 696.851 1432.9 700.779C1437.64 703.035 1441.56 706.963 1443.81 711.707C1452.94 731.076 1439.62 750.057 1421.56 750.909Z" fill="#7FAD36"/>
<path d="M1372.64 698.029C1381.1 704.273 1376.05 709.333 1369.81 700.853C1363.58 709.333 1358.53 704.269 1366.99 698.029C1358.53 691.784 1363.58 686.724 1369.81 695.205C1376.05 686.728 1381.1 691.788 1372.64 698.029Z" fill="#47F4FF"/>
<path d="M1371.81 696.031C1382.2 694.451 1382.2 701.607 1371.81 700.027C1373.39 710.436 1366.24 710.436 1367.82 700.027C1357.43 701.607 1357.43 694.451 1367.82 696.031C1366.24 685.622 1373.39 685.622 1371.81 696.031Z" fill="#51E2EE"/>
<path d="M1372.07 698.028C1372.07 699.276 1371.06 700.288 1369.81 700.288C1368.57 700.288 1367.56 699.276 1367.56 698.028C1367.56 696.78 1368.57 695.768 1369.81 695.768C1371.06 695.768 1372.07 696.78 1372.07 698.028Z" fill="#FFD14D"/>
<path d="M1423.57 719.677C1430.69 724.929 1426.44 729.189 1421.19 722.053C1415.95 729.185 1411.7 724.929 1418.82 719.677C1411.7 714.425 1415.95 710.164 1421.19 717.301C1426.44 710.168 1430.69 714.425 1423.57 719.677Z" fill="#47F4FF"/>
<path d="M1422.87 717.997C1431.62 716.669 1431.62 722.689 1422.87 721.361C1424.2 730.117 1418.19 730.117 1419.51 721.361C1410.77 722.689 1410.77 716.669 1419.51 717.997C1418.19 709.241 1424.2 709.241 1422.87 717.997Z" fill="#51E2EE"/>
<path d="M1423.1 719.677C1423.1 720.729 1422.25 721.577 1421.2 721.577C1420.15 721.577 1419.3 720.725 1419.3 719.677C1419.3 718.629 1420.15 717.777 1421.2 717.777C1422.25 717.777 1423.1 718.629 1423.1 719.677Z" fill="#FFD14D"/>
<path d="M1328.51 727.706C1336.31 733.454 1331.65 738.115 1325.91 730.31C1320.17 738.119 1315.52 733.458 1323.31 727.706C1315.52 721.958 1320.17 717.298 1325.91 725.102C1331.65 717.298 1336.31 721.958 1328.51 727.706Z" fill="#47F4FF"/>
<path d="M1327.75 725.868C1337.32 724.412 1337.32 731.004 1327.75 729.548C1329.2 739.133 1322.62 739.133 1324.07 729.548C1314.5 731.004 1314.5 724.412 1324.07 725.868C1322.62 716.284 1329.2 716.284 1327.75 725.868Z" fill="#51E2EE"/>
<path d="M11.3051 595.162H-8.98799C-15.2145 595.162 -20.2788 590.086 -20.2788 583.85V578.674H-16.2849V583.85C-16.2849 587.882 -13.0099 591.162 -8.98799 591.162H11.3051V595.162Z" fill="#39CFFF"/>
<path d="M31.5993 595.162H11.3062V591.162H31.5993C35.6211 591.162 38.8961 587.882 38.8961 583.85V578.674H42.8901V583.85C42.8901 590.086 37.8258 595.162 31.5993 595.162Z" fill="#39B1FF"/>
<path d="M11.3093 563.152H9.29639V675.013H11.3093V563.152Z" fill="#39CFFF"/>
<path d="M11.2609 541.777V559.79H5.42177L2.74585 555.222C0.281605 551.014 -0.00596707 546.338 1.93108 541.993L1.95904 541.925L11.2609 541.777Z" fill="#FF903E"/>
<path d="M11.1885 541.777V559.79H17.0276L19.7035 555.222C22.1678 551.014 22.4553 546.338 20.5183 541.993L20.4863 541.925L11.1885 541.777Z" fill="#FF9D4D"/>
<path d="M11.2952 566.474H10.3446C8.44351 566.474 6.90186 565.162 6.90186 563.546V560.586H11.2992L11.2952 566.474Z" fill="#00AFFC"/>
<path d="M13.3191 563.152H11.3062V675.013H13.3191V563.152Z" fill="#39B1FF"/>
<path d="M11.2984 566.474H12.249C14.1501 566.474 15.6917 565.162 15.6917 563.546V560.586H11.2944L11.2984 566.474Z" fill="#0A98EC"/>
<path d="M11.0723 541.777H9.37891V560.586H11.0723V541.777Z" fill="#00AFFC"/>
<path d="M12.7657 541.777H11.0723V560.586H12.7657V541.777Z" fill="#0A98EC"/>
<path d="M5.84403 538.898H1.28299C-0.126868 538.898 -1.26514 539.558 -1.26514 540.37V540.399C-1.26514 541.211 -0.122874 541.871 1.28299 541.871H11.2318V538.898H5.84403Z" fill="#39CFFF"/>
<path d="M23.7274 540.37C23.7274 539.558 22.5852 538.898 21.1793 538.898H16.6183H11.2305V541.871H21.1793C22.5892 541.871 23.7274 541.211 23.7274 540.399V540.37Z" fill="#39B1FF"/>
<path d="M11.232 538.899H20.0027V538.871C20.0027 537.307 17.81 536.043 15.1021 536.043H13.86H11.228V538.899H11.232Z" fill="#0A98EC"/>
<path d="M11.2297 536.043H8.59773H7.35562C4.64774 536.043 2.45508 537.311 2.45508 538.871V538.899H11.2297V536.043Z" fill="#00AFFC"/>
<path d="M14.7531 536.042V536.03C14.7531 535.326 13.7666 534.758 12.5485 534.758H11.2305V536.046L14.7531 536.042Z" fill="#39B1FF"/>
<path d="M11.2326 534.754H9.9146C8.69645 534.754 7.70996 535.326 7.70996 536.026V536.038H11.2326V534.754Z" fill="#39CFFF"/>
<path d="M4.82907 678.299H-0.590691C-2.26414 678.299 -3.62207 679.083 -3.62207 680.047V680.083C-3.62207 681.051 -2.26414 681.831 -0.590691 681.831H11.2313V678.295H4.82907V678.299Z" fill="#39CFFF"/>
<path d="M26.0834 680.045C26.0834 679.077 24.7254 678.297 23.052 678.297H17.6322H11.23V681.833H23.052C24.7254 681.833 26.0834 681.049 26.0834 680.085V680.045Z" fill="#39B1FF"/>
<path d="M11.23 678.295H21.6581V678.262C21.6581 676.406 19.0501 674.902 15.835 674.902H14.3572H11.23V678.295Z" fill="#0A98EC"/>
<path d="M11.2337 674.898H8.10646H6.6327C3.4176 674.898 0.80957 676.402 0.80957 678.259V678.291H11.2377L11.2337 674.898Z" fill="#00AFFC"/>
<path d="M15.4205 674.899V674.883C15.4205 674.047 14.2463 673.371 12.8005 673.371H11.2349V674.899H15.4205Z" fill="#39B1FF"/>
<path d="M11.2315 673.371H9.6659C8.2201 673.371 7.0459 674.047 7.0459 674.883V674.899H11.2355L11.2315 673.371Z" fill="#39CFFF"/>
<path d="M11.2585 561.672H7.1567C5.65898 561.672 4.44482 560.64 4.44482 559.368V559.344H11.2544V561.672H11.2585Z" fill="#39CFFF"/>
<path d="M11.2588 561.672H15.3605C16.8583 561.672 18.0684 560.64 18.0684 559.368V559.344H11.2588V561.672Z" fill="#39B1FF"/>
<path d="M7.62578 547.541C7.62578 548.965 6.63528 550.117 5.41714 550.117C4.19899 550.117 3.2085 548.965 3.2085 547.541C3.2085 546.117 4.19899 544.965 5.41714 544.965C6.63528 544.965 7.62578 546.121 7.62578 547.541Z" fill="#FFC44D"/>
<path d="M6.84334 547.543C6.84334 548.463 6.20432 549.207 5.41752 549.207C4.63072 549.207 3.9917 548.463 3.9917 547.543C3.9917 546.623 4.63072 545.879 5.41752 545.879C6.20432 545.879 6.84334 546.627 6.84334 547.543Z" fill="#FFFFC6"/>
<path d="M40.7736 556.141V574.153H34.9345L32.2585 569.585C29.7943 565.377 29.5067 560.701 31.4438 556.357L31.4757 556.289L40.7736 556.141Z" fill="#FF903E"/>
<path d="M40.7031 556.141V574.153H46.5422L49.2182 569.585C51.6824 565.377 51.97 560.701 50.0329 556.357L50.001 556.289L40.7031 556.141Z" fill="#FF9D4D"/>
<path d="M40.8083 580.839H39.8578C37.9567 580.839 36.415 579.527 36.415 577.911V574.951H40.8123L40.8083 580.839Z" fill="#00AFFC"/>
<path d="M40.8077 580.839H41.7583C43.6594 580.839 45.201 579.527 45.201 577.911V574.951H40.8037L40.8077 580.839Z" fill="#0A98EC"/>
<path d="M40.5855 556.141H38.8921V574.949H40.5855V556.141Z" fill="#00AFFC"/>
<path d="M42.2784 556.141H40.585V574.949H42.2784V556.141Z" fill="#0A98EC"/>
<path d="M35.3622 553.262H30.8011C29.3913 553.262 28.249 553.922 28.249 554.734V554.762C28.249 555.574 29.3913 556.234 30.8011 556.234H40.75V553.262H35.3622Z" fill="#39CFFF"/>
<path d="M53.245 554.734C53.245 553.922 52.1027 553.262 50.6969 553.262H46.1358H40.748V556.234H50.6969C52.1067 556.234 53.245 555.574 53.245 554.762V554.734Z" fill="#39B1FF"/>
<path d="M40.7496 553.262H49.5202V553.234C49.5202 551.67 47.3276 550.406 44.6197 550.406H43.3776H40.7456L40.7496 553.262Z" fill="#0A98EC"/>
<path d="M40.7478 550.406H38.1158H36.8737C34.1658 550.406 31.9731 551.674 31.9731 553.234V553.262H40.7478V550.406Z" fill="#00AFFC"/>
<path d="M44.2707 550.405V550.393C44.2707 549.689 43.2842 549.121 42.066 549.121H40.748V550.409H44.2707V550.405Z" fill="#39B1FF"/>
<path d="M40.7458 549.117H39.4278C38.2096 549.117 37.2231 549.689 37.2231 550.389V550.401H40.7458V549.117Z" fill="#39CFFF"/>
<path d="M40.7726 576.041H36.6709C35.1731 576.041 33.959 575.009 33.959 573.737V573.713H40.7686V576.041H40.7726Z" fill="#39CFFF"/>
<path d="M40.772 576.041H44.8737C46.3714 576.041 47.5856 575.009 47.5856 573.737V573.713H40.776L40.772 576.041Z" fill="#39B1FF"/>
<path d="M37.139 561.904C37.139 563.328 36.1485 564.48 34.9303 564.48C33.7082 564.48 32.7217 563.328 32.7217 561.904C32.7217 560.48 33.7122 559.328 34.9303 559.328C36.1525 559.332 37.139 560.484 37.139 561.904Z" fill="#FFC44D"/>
<path d="M36.3575 561.906C36.3575 562.826 35.7185 563.57 34.9317 563.57C34.1449 563.57 33.5059 562.826 33.5059 561.906C33.5059 560.986 34.1449 560.242 34.9317 560.242C35.7185 560.242 36.3575 560.99 36.3575 561.906Z" fill="#FFFFC6"/>
<path d="M1467.64 343.301L1440.56 316.179C1432.83 308.435 1420.26 308.439 1412.54 316.179L1412.22 316.491C1402.94 325.784 1387.84 325.788 1378.55 316.491L1351.84 289.738L1354.66 286.91L1381.37 313.663C1389.11 321.404 1401.68 321.4 1409.4 313.663L1409.71 313.351C1418.99 304.055 1434.09 304.051 1443.39 313.351L1470.46 340.472L1467.64 343.301Z" fill="#39B1FF"/>
<path d="M1270.44 267.36L1369.81 304.762L1301.46 236.299L1270.44 267.36Z" fill="#8FD104"/>
<path d="M1270.44 205.234V267.361L1301.46 236.3L1270.44 205.234Z" fill="#FCD746"/>
<path d="M1369.81 304.763L1332.47 205.234L1301.46 236.3L1369.81 304.763Z" fill="#FFA02E"/>
<path d="M1301.46 236.3L1332.47 205.234H1270.44L1301.46 236.3Z" fill="#39CFFF"/>
<path d="M1378.7 311.559L1373.68 329.095L1361.19 316.583L1378.7 311.559Z" fill="#39B1FF"/>
<path d="M1376.45 313.814L1393.96 308.786L1381.47 296.277L1376.45 313.814Z" fill="#39B1FF"/>
<path d="M1377.45 307.657L1372.27 312.848L1376.83 317.41L1382.01 312.22L1377.45 307.657Z" fill="#39CFFF"/>
<path d="M1415.43 309.787L1424.26 325.74H1406.6L1415.43 309.787Z" fill="#FFA02E"/>
<path d="M1415.43 312.976L1424.26 297.023H1406.6L1415.43 312.976Z" fill="#FFA02E"/>
<path d="M1418.24 307.896H1411.8V315.237H1418.24V307.896Z" fill="#F9920B"/>
<path d="M656.498 716.116C656.498 720.512 634.396 724.076 607.13 724.076C579.863 724.076 557.761 720.512 557.761 716.116C557.761 711.72 579.863 713.904 607.13 713.904C634.396 713.904 656.498 711.72 656.498 716.116Z" fill="#DC4C07"/>
<path d="M656.498 710.723H557.761V715.627H656.498V710.723Z" fill="#DC4C07"/>
<path d="M656.498 710.57C656.498 714.966 634.396 718.53 607.13 718.53C579.863 718.53 557.761 714.966 557.761 710.57C557.761 706.174 579.863 702.609 607.13 702.609C634.396 702.609 656.498 706.174 656.498 710.57Z" fill="#FC7E0B"/>
<path d="M626.489 709.553C626.489 711.277 617.822 712.673 607.13 712.673C596.438 712.673 587.771 711.277 587.771 709.553C587.771 707.829 596.438 708.685 607.13 708.685C617.822 708.685 626.489 707.829 626.489 709.553Z" fill="#0A98EC"/>
<path d="M626.489 664.857H587.771V709.359H626.489V664.857Z" fill="#0A98EC"/>
<path d="M607.13 667.918C617.821 667.918 626.489 666.521 626.489 664.798C626.489 663.075 617.821 661.678 607.13 661.678C596.439 661.678 587.771 663.075 587.771 664.798C587.771 666.521 596.439 667.918 607.13 667.918Z" fill="#FFB600"/>
<path d="M714.663 680.691C714.663 690.267 666.52 698.031 607.131 698.031C547.741 698.031 499.599 690.267 499.599 680.691C499.599 671.114 547.741 675.874 607.131 675.874C666.52 675.874 714.663 671.114 714.663 680.691Z" fill="#F79B08"/>
<path d="M714.663 668.943H499.599V679.628H714.663V668.943Z" fill="#F79B08"/>
<path d="M607.131 685.953C666.519 685.953 714.663 678.189 714.663 668.612C714.663 659.035 666.519 651.271 607.131 651.271C547.742 651.271 499.599 659.035 499.599 668.612C499.599 678.189 547.742 685.953 607.131 685.953Z" fill="#FFB600"/>
<path d="M620.561 668.784C620.561 669.944 614.73 670.884 607.541 670.884C600.352 670.884 594.521 669.944 594.521 668.784C594.521 667.624 600.352 668.2 607.541 668.2C614.73 668.204 620.561 667.628 620.561 668.784Z" fill="#39B1FF"/>
<path d="M620.557 651.25H594.517V668.659H620.557V651.25Z" fill="#39B1FF"/>
<path d="M620.561 651.209C620.561 652.369 614.73 653.31 607.541 653.31C600.352 653.31 594.521 652.369 594.521 651.209C594.521 650.049 600.352 649.109 607.541 649.109C614.73 649.109 620.561 650.049 620.561 651.209Z" fill="#FFB600"/>
<path d="M552.553 637.23L543.927 639.111L543.024 639.311L533.57 637.23H552.553Z" fill="#00AFFC"/>
<path d="M543.023 639.31L541.649 639.611C539.424 640.087 537.447 641.215 535.898 642.743L533.573 642.243V637.234L543.023 639.31Z" fill="#0A98EC"/>
<path d="M594.516 650.656L583.089 653.136L559.832 648.028L557.332 647.476L539 643.444C539.951 642.768 541.025 642.292 542.175 642.04L548.829 640.588L557.332 642.468L559.832 643.02L594.516 650.656Z" fill="#0A98EC"/>
<path d="M680.691 663.931H679.867V663.779L680.691 663.931Z" fill="#39B1FF"/>
<path d="M680.694 663.932H679.871V663.756L680.694 663.932Z" fill="#39CFFF"/>
<path d="M607.345 627.839L561.231 637.883H561.207L559.833 638.183L557.333 638.735L550.332 640.263H550.308L548.834 640.587L542.18 642.039C541.03 642.291 539.955 642.763 539.005 643.443C539.005 643.443 539.005 643.443 538.981 643.443C536.457 645.147 534.831 648.027 534.831 651.208V693.161H532.331V651.208C532.331 647.951 533.681 644.919 535.906 642.743C537.455 641.215 539.432 640.087 541.657 639.611L543.031 639.311L543.929 639.111L552.556 637.231L557.333 636.203L559.833 635.651L601.498 626.559L607.345 627.839Z" fill="#39CFFF"/>
<path d="M657.36 629.091V636.203L654.86 635.651V629.091C654.86 626.259 653.586 623.607 651.386 621.803C649.161 620.022 646.309 619.346 643.534 619.95L613.176 626.563L607.349 627.839L601.498 626.563L607.349 625.287L642.986 617.522C646.513 616.746 650.139 617.598 652.939 619.878C655.735 622.127 657.36 625.483 657.36 629.091Z" fill="#39B1FF"/>
<path d="M654.858 647.923L657.358 647.375V655.439H654.858V647.923Z" fill="#39B1FF"/>
<path d="M679.87 663.932V668.94H654.86L607.145 658.444H607.121L559.405 668.94H534.823V663.932H559.405L595.77 655.94L607.145 653.436L618.475 655.94H618.499L654.86 663.932H679.87Z" fill="#0A98EC"/>
<path d="M675.591 643.369L657.359 647.377L654.859 647.929L631.175 653.138L619.744 650.658L654.855 642.917L657.355 642.365L665.634 640.537L672.512 642.041C673.638 642.293 674.664 642.745 675.591 643.369Z" fill="#0A98EC"/>
<path d="M680.694 637.23V642.239L678.717 642.663C677.191 641.159 675.242 640.083 673.042 639.607L671.468 639.255L670.593 639.055L680.694 637.23Z" fill="#00AFFC"/>
<path d="M679.87 663.759V663.935H654.86L618.499 655.942H618.475L607.145 653.438L595.77 655.942L559.405 663.935H534.823V663.659L583.089 653.138L594.516 650.658L559.833 643.018L557.332 642.47L548.829 640.59L550.303 640.262H550.327L557.332 638.737L559.833 638.185L561.207 637.885H561.231L607.145 647.902L653.286 637.857L654.86 638.185L657.36 638.737L664.162 640.238H664.19L665.64 640.538L657.36 642.366L654.86 642.918L619.749 650.658L631.18 653.138L679.87 663.759Z" fill="#00AFFC"/>
<path d="M680.692 637.23L670.591 639.059H670.563L662.112 637.23H680.692Z" fill="#00AFFC"/>
<path d="M559.831 648.027V655.439H557.331V647.475L559.831 648.027Z" fill="#39B1FF"/>
<path d="M682.37 651.208V693.161H679.87V663.932H680.697L679.87 663.756V651.208C679.87 647.975 678.197 645.047 675.593 643.367C674.666 642.743 673.644 642.291 672.517 642.039L665.64 640.535L664.19 640.235H664.166L657.364 638.731L654.864 638.179L653.287 637.855L607.349 627.835L613.176 626.559L654.864 635.651L657.364 636.203L662.117 637.231L670.568 639.059H670.592L671.467 639.259L673.041 639.611C675.241 640.087 677.19 641.163 678.716 642.667C680.993 644.843 682.37 647.899 682.37 651.208Z" fill="#39CFFF"/>
<path d="M613.17 626.563L607.343 627.839L601.492 626.563L571.158 619.951C568.382 619.351 565.531 620.027 563.306 621.803C561.105 623.607 559.831 626.263 559.831 629.091V635.651L557.331 636.203V629.091C557.331 625.483 558.933 622.127 561.732 619.875C564.56 617.594 568.187 616.742 571.685 617.518L607.347 625.283L613.17 626.563Z" fill="#39B1FF"/>
<path d="M680.691 663.932H679.867V663.756L680.691 663.932Z" fill="#0A98EC"/>
<path d="M1330.52 456.004H1328.01V602.522H1330.52V456.004Z" fill="#39CFFF"/>
<path d="M1333.04 456.004H1330.52V602.522H1333.04V456.004Z" fill="#39B1FF"/>
<path d="M1329.71 446.457C1296.91 446.569 1264.17 463.614 1247.49 497.723C1250.58 494.579 1255.92 492.527 1261.99 492.595C1271.46 492.703 1279.08 497.923 1279.01 504.251C1279.02 502.915 1279.4 501.643 1280.04 500.455C1289.9 464.526 1309.77 446.525 1329.71 446.457Z" fill="#FF7F06"/>
<path d="M1313.43 503.419C1314.41 497.675 1321.74 493.275 1330.59 493.375C1339.39 493.475 1346.58 497.983 1347.5 503.695C1344.59 465.554 1337.13 446.433 1329.72 446.461C1323.22 446.481 1316.77 465.478 1313.43 503.419Z" fill="#FF7F06"/>
<path d="M1364.89 493.767C1372.3 493.851 1378.56 497.067 1380.91 501.487C1371.4 464.814 1350.55 446.389 1329.71 446.461C1337.13 446.433 1344.59 465.554 1347.5 503.696C1347.57 504.136 1347.61 504.58 1347.61 505.032C1347.69 498.699 1355.43 493.659 1364.89 493.767Z" fill="#FFEFAE"/>
<path d="M1329.71 446.457C1309.77 446.525 1289.9 464.526 1280.04 500.455C1282.44 496.027 1288.82 492.899 1296.3 492.983C1305.77 493.091 1313.39 498.307 1313.31 504.635C1313.32 504.223 1313.36 503.815 1313.43 503.415C1316.77 465.478 1323.21 446.481 1329.71 446.457Z" fill="#FFEFAE"/>
<path d="M1399.19 494.156C1405.26 494.224 1410.55 496.392 1413.56 499.596C1397.19 464.142 1363.45 446.345 1329.71 446.462C1350.55 446.389 1371.4 464.814 1380.91 501.488C1381.56 502.72 1381.93 504.04 1381.92 505.42C1381.99 499.088 1389.73 494.047 1399.19 494.156Z" fill="#FF7F06"/>
<path d="M1342.18 602.775H1318.87V606.712H1342.18V602.775Z" fill="#39B1FF"/>
</g>
</g>
<defs>
<clipPath id="clip0_329_29609">
<rect width="1440" height="724" fill="white"/>
</clipPath>
</defs>
</svg>
