<svg width="1440" height="640" viewBox="0 0 1440 640" fill="none" xmlns="http://www.w3.org/2000/svg">
<g style="mix-blend-mode:luminosity" opacity="0.35">
<g opacity="0.74">
<path d="M707.006 139.807H646.642V237.871H707.006V139.807Z" fill="#A6C7ED"/>
<path d="M676.042 166.277H587.413V524.456H676.042V166.277Z" fill="#CCDBF2"/>
<path d="M982.154 85.9756H909.692V524.454H982.154V85.9756Z" fill="#CCDBF2"/>
<path d="M780.321 99.2461H691.692V524.452H780.321V99.2461Z" fill="#CCDBF2"/>
<path d="M893.836 524.452H805.207V99.2461L893.836 153.268V524.452Z" fill="#CCDBF2"/>
<path d="M764.999 72.7021H707.007V99.2433H764.999V72.7021Z" fill="#CCDBF2"/>
<path d="M754.545 61.2559H717.469V72.7043H754.545V61.2559Z" fill="#CCDBF2"/>
<path d="M955.531 28.665H951.729V105.296H955.531V28.665Z" fill="#CCDBF2"/>
<path d="M1107.09 153.272H1005.47V289.538H1107.09V153.272Z" fill="#CCDBF2"/>
<path d="M1119.61 205.833H631.724V524.454H1119.61V205.833Z" fill="#CCDBF2"/>
<path d="M717.466 182.262H633.386V524.46H717.466V182.262Z" fill="#B7CDED"/>
<path d="M754.541 182.262H717.465V524.46H754.541V182.262Z" fill="#A6C7ED"/>
<path d="M941.439 248.308H849.112V524.455H941.439V248.308Z" fill="#B7CDED"/>
<path d="M982.154 248.308H941.44V524.455H982.154V248.308Z" fill="#A6C7ED"/>
<path d="M1024.33 139.807H967.268V524.455H1024.33V139.807Z" fill="#B7CDED"/>
<path d="M1049.5 139.807H1024.34V524.455H1049.5V139.807Z" fill="#A6C7ED"/>
<path d="M815.842 153.272H744.627V524.456H815.842V153.272Z" fill="#B7CDED"/>
<path d="M847.247 153.272H815.843V524.456H847.247V153.272Z" fill="#A6C7ED"/>
<path d="M780.319 323.201H661.113V524.454H780.319V323.201Z" fill="#D2E3FC"/>
<path d="M935.272 307.903H816.065V524.448H935.272V307.903Z" fill="#D2E3FC"/>
<path d="M1046.98 524.453H974.184V328.225L1046.98 359.934V524.453Z" fill="#D2E3FC"/>
<path d="M808.747 166.277H754.541V174.262H808.747V166.277Z" fill="#D2E3FC"/>
<path d="M808.747 182.02H754.541V190.004H808.747V182.02Z" fill="#D2E3FC"/>
<path d="M808.747 197.767H754.541V205.751H808.747V197.767Z" fill="#D2E3FC"/>
<path d="M808.747 213.505H754.541V221.489H808.747V213.505Z" fill="#D2E3FC"/>
<path d="M808.747 229.248H754.541V237.232H808.747V229.248Z" fill="#D2E3FC"/>
<path d="M808.747 244.995H754.541V252.979H808.747V244.995Z" fill="#D2E3FC"/>
<path d="M808.747 260.737H754.541V268.722H808.747V260.737Z" fill="#D2E3FC"/>
<path d="M808.747 276.48H754.541V284.465H808.747V276.48Z" fill="#D2E3FC"/>
<path d="M808.747 292.223H754.541V300.207H808.747V292.223Z" fill="#D2E3FC"/>
<path d="M943.787 307.906H807.55L875.667 256.476L943.787 307.906Z" fill="#D2E3FC"/>
<path d="M988.107 153.272H974.184V159.497H988.107V153.272Z" fill="#D2E3FC"/>
<path d="M1014.5 153.272H1000.57V159.497H1014.5V153.272Z" fill="#D2E3FC"/>
<path d="M988.107 167.155H974.184V173.38H988.107V167.155Z" fill="#D2E3FC"/>
<path d="M1014.5 167.155H1000.57V173.38H1014.5V167.155Z" fill="#D2E3FC"/>
<path d="M988.107 181.039H974.184V187.263H988.107V181.039Z" fill="#D2E3FC"/>
<path d="M1014.5 181.039H1000.57V187.263H1014.5V181.039Z" fill="#D2E3FC"/>
<path d="M988.107 194.927H974.184V201.151H988.107V194.927Z" fill="#D2E3FC"/>
<path d="M1014.5 194.927H1000.57V201.151H1014.5V194.927Z" fill="#D2E3FC"/>
<path d="M988.107 208.81H974.184V215.034H988.107V208.81Z" fill="#D2E3FC"/>
<path d="M1014.5 208.81H1000.57V215.034H1014.5V208.81Z" fill="#D2E3FC"/>
<path d="M988.107 222.693H974.184V228.918H988.107V222.693Z" fill="#D2E3FC"/>
<path d="M1014.5 222.693H1000.57V228.918H1014.5V222.693Z" fill="#D2E3FC"/>
<path d="M988.107 236.576H974.184V242.8H988.107V236.576Z" fill="#D2E3FC"/>
<path d="M1014.5 236.576H1000.57V242.8H1014.5V236.576Z" fill="#D2E3FC"/>
<path d="M988.107 250.463H974.184V256.687H988.107V250.463Z" fill="#D2E3FC"/>
<path d="M1014.5 250.463H1000.57V256.687H1014.5V250.463Z" fill="#D2E3FC"/>
<path d="M988.107 264.347H974.184V270.571H988.107V264.347Z" fill="#D2E3FC"/>
<path d="M1014.5 264.347H1000.57V270.571H1014.5V264.347Z" fill="#D2E3FC"/>
<path d="M988.107 278.229H974.184V284.454H988.107V278.229Z" fill="#D2E3FC"/>
<path d="M1014.5 278.229H1000.57V284.454H1014.5V278.229Z" fill="#D2E3FC"/>
<path d="M988.107 292.117H974.184V298.341H988.107V292.117Z" fill="#D2E3FC"/>
<path d="M1014.5 292.117H1000.57V298.341H1014.5V292.117Z" fill="#D2E3FC"/>
<path d="M988.107 306.001H974.184V312.225H988.107V306.001Z" fill="#D2E3FC"/>
<path d="M1014.5 306.001H1000.57V312.225H1014.5V306.001Z" fill="#D2E3FC"/>
<path d="M663.43 194.52H640.481V213.112H663.43V194.52Z" fill="#D2E3FC"/>
<path d="M663.43 256.3H640.481V274.893H663.43V256.3Z" fill="#D2E3FC"/>
<path d="M701.79 230.061H678.841V248.653H701.79V230.061Z" fill="#D2E3FC"/>
<path d="M701.79 291.845H678.841V310.437H701.79V291.845Z" fill="#D2E3FC"/>
<path d="M788.425 322.619H655.914V332.468H788.425V322.619Z" fill="#D2E3FC"/>
<path d="M1219.31 262.483H1107.52V504.162H1219.31V262.483Z" fill="#CCDBF2"/>
<path d="M593.866 285.7H482.073V527.378H593.866V285.7Z" fill="#CCDBF2"/>
<path d="M404.228 295.341H351.432V537.023H404.228V295.341Z" fill="#CCDBF2"/>
<path d="M494.806 152.924H400.337V513.399H494.806V152.924Z" fill="#CCDBF2"/>
<path d="M351.087 218.165H256.619V578.64H351.087V218.165Z" fill="#CCDBF2"/>
<path d="M1277.31 281.125H1204.43V522.803H1277.31V281.125Z" fill="#CCDBF2"/>
</g>
<path d="M353.799 449.636H339.46C324.268 449.636 311.91 437.256 311.91 422.043V398.45H319.898V422.043C319.898 432.848 328.673 441.636 339.46 441.636H353.799V449.636Z" fill="#CEA282"/>
<path d="M360.569 468.586L360.313 460.586H360.569C372.343 460.586 381.924 450.989 381.924 439.197V420.744H389.912V439.197C389.912 455.402 376.748 468.586 360.569 468.586Z" fill="#CEA282"/>
<path d="M387.754 447.964L387.498 439.964H387.754C399.532 439.964 409.113 430.367 409.113 418.575V400.122H417.101V418.575C417.101 434.78 403.933 447.964 387.754 447.964Z" fill="#CEA282"/>
<path d="M356.102 375.504H347.906V513.962H356.102V375.504Z" fill="#D8AF8B"/>
<path d="M364.301 375.504H356.105V513.962H364.301V375.504Z" fill="#CEA282"/>
<path d="M359.581 390.915C363.74 365.349 346.418 341.247 320.891 337.081C295.365 332.916 271.3 350.265 267.141 375.832C262.982 401.398 280.305 425.501 305.831 429.666C331.358 433.831 355.422 416.482 359.581 390.915Z" fill="#77A52F"/>
<path d="M406.607 352.481C411.602 321.515 390.588 292.357 359.671 287.354C328.754 282.352 299.642 303.398 294.647 334.363C289.652 365.328 310.665 394.486 341.582 399.489C372.499 404.492 401.611 383.446 406.607 352.481Z" fill="#7FAD36"/>
<path d="M395.724 430.264C416.123 430.264 432.66 413.701 432.66 393.27C432.66 372.839 416.123 356.276 395.724 356.276C375.325 356.276 358.788 372.839 358.788 393.27C358.788 413.701 375.325 430.264 395.724 430.264Z" fill="#6EA027"/>
<path d="M659.216 409.691H636.678C629.884 409.691 624.361 404.155 624.361 397.351V391.599H628.355V397.351C628.355 401.947 632.089 405.691 636.678 405.691H659.216V409.691Z" fill="#39CFFF"/>
<path d="M681.751 409.691H659.213V405.691H681.751C686.34 405.691 690.078 401.947 690.078 397.351V391.599H694.072V397.351C694.072 404.155 688.549 409.691 681.751 409.691Z" fill="#39B1FF"/>
<path d="M659.215 374.359H656.978V498.601H659.215V374.359Z" fill="#39CFFF"/>
<path d="M659.164 350.621V370.626H652.682L649.711 365.554C646.975 360.882 646.651 355.685 648.804 350.861L648.836 350.785L659.164 350.621Z" fill="#FF903E"/>
<path d="M659.081 350.621V370.626H665.567L668.538 365.554C671.274 360.882 671.598 355.685 669.445 350.861L669.413 350.785L659.081 350.621Z" fill="#FF9D4D"/>
<path d="M659.202 378.052H658.144C656.031 378.052 654.318 376.596 654.318 374.8V371.512H659.202V378.052Z" fill="#00AFFC"/>
<path d="M661.453 374.359H659.216V498.601H661.453V374.359Z" fill="#39B1FF"/>
<path d="M659.205 378.052H660.263C662.376 378.052 664.089 376.596 664.089 374.8V371.512H659.205V378.052Z" fill="#0A98EC"/>
<path d="M658.956 350.621H657.075V371.51H658.956V350.621Z" fill="#00AFFC"/>
<path d="M660.836 350.621H658.955V371.51H660.836V350.621Z" fill="#0A98EC"/>
<path d="M653.15 347.425H648.085C646.52 347.425 645.254 348.157 645.254 349.061V349.093C645.254 349.997 646.52 350.729 648.085 350.729H659.133V347.425H653.15Z" fill="#39CFFF"/>
<path d="M673.013 349.057C673.013 348.153 671.743 347.421 670.182 347.421H665.117H659.134V350.725H670.182C671.747 350.725 673.013 349.993 673.013 349.089V349.057Z" fill="#39B1FF"/>
<path d="M659.132 347.425H668.873V347.393C668.873 345.657 666.436 344.253 663.429 344.253H662.051H659.128V347.425H659.132Z" fill="#0A98EC"/>
<path d="M659.134 344.249H656.21H654.832C651.825 344.249 649.388 345.657 649.388 347.389V347.421H659.13V344.249H659.134Z" fill="#00AFFC"/>
<path d="M663.044 344.247V344.232C663.044 343.451 661.946 342.815 660.596 342.815H659.13V344.243L663.044 344.247Z" fill="#39B1FF"/>
<path d="M659.133 342.819H657.667C656.313 342.819 655.219 343.451 655.219 344.235V344.251H659.133V342.819Z" fill="#39CFFF"/>
<path d="M652.023 502.243H646.004C644.147 502.243 642.637 503.111 642.637 504.187V504.227C642.637 505.299 644.143 506.171 646.004 506.171H659.136V502.247H652.023V502.243Z" fill="#39CFFF"/>
<path d="M675.629 504.187C675.629 503.115 674.123 502.243 672.262 502.243H666.243H659.13V506.167H672.262C674.119 506.167 675.629 505.295 675.629 504.223V504.187Z" fill="#39B1FF"/>
<path d="M659.13 502.243H670.709V502.203C670.709 500.143 667.813 498.471 664.242 498.471H662.605H659.13V502.243Z" fill="#0A98EC"/>
<path d="M659.133 498.475H655.658H654.021C650.45 498.475 647.555 500.147 647.555 502.207V502.247H659.133V498.475Z" fill="#00AFFC"/>
<path d="M663.783 498.474V498.458C663.783 497.53 662.481 496.778 660.872 496.778H659.13V498.474H663.783Z" fill="#39B1FF"/>
<path d="M659.131 496.775H657.389C655.78 496.775 654.478 497.527 654.478 498.455V498.471H659.131V496.775Z" fill="#39CFFF"/>
<path d="M659.164 372.717H654.607C652.945 372.717 651.599 371.573 651.599 370.157V370.129H659.164V372.717Z" fill="#39CFFF"/>
<path d="M659.162 372.717H663.719C665.38 372.717 666.73 371.573 666.73 370.157V370.129H659.166L659.162 372.717Z" fill="#39B1FF"/>
<path d="M655.127 357.023C655.127 358.603 654.029 359.883 652.675 359.883C651.321 359.883 650.222 358.603 650.222 357.023C650.222 355.443 651.321 354.163 652.675 354.163C654.029 354.163 655.127 355.443 655.127 357.023Z" fill="#FFC44D"/>
<path d="M654.259 357.023C654.259 358.043 653.548 358.871 652.674 358.871C651.799 358.871 651.088 358.043 651.088 357.023C651.088 356.003 651.799 355.175 652.674 355.175C653.548 355.175 654.259 356.003 654.259 357.023Z" fill="#FFFFC6"/>
<path d="M691.944 366.579V386.584H685.461L682.49 381.512C679.754 376.84 679.435 371.643 681.583 366.819L681.615 366.743L691.944 366.579Z" fill="#FF903E"/>
<path d="M691.866 366.579V386.584H698.348L701.32 381.512C704.056 376.84 704.379 371.643 702.226 366.819L702.194 366.743L691.866 366.579Z" fill="#FF9D4D"/>
<path d="M691.98 394.007H690.922C688.809 394.007 687.096 392.551 687.096 390.755V387.467H691.98V394.007Z" fill="#00AFFC"/>
<path d="M691.983 394.007H693.042C695.155 394.007 696.868 392.551 696.868 390.755V387.467H691.983V394.007Z" fill="#0A98EC"/>
<path d="M691.736 366.579H689.854V387.468H691.736V366.579Z" fill="#00AFFC"/>
<path d="M693.615 366.579H691.734V387.468H693.615V366.579Z" fill="#0A98EC"/>
<path d="M685.928 363.379H680.863C679.298 363.379 678.032 364.111 678.032 365.015V365.047C678.032 365.951 679.298 366.683 680.863 366.683H691.911V363.379H685.928Z" fill="#39CFFF"/>
<path d="M705.791 365.015C705.791 364.111 704.521 363.379 702.96 363.379H697.895H691.913V366.683H702.96C704.525 366.683 705.791 365.951 705.791 365.047V365.015Z" fill="#39B1FF"/>
<path d="M691.91 363.379H701.651V363.347C701.651 361.611 699.214 360.207 696.207 360.207H694.829H691.906V363.379H691.91Z" fill="#0A98EC"/>
<path d="M691.911 360.207H688.988H687.61C684.602 360.207 682.166 361.615 682.166 363.347V363.379H691.907V360.207H691.911Z" fill="#00AFFC"/>
<path d="M695.823 360.206V360.19C695.823 359.409 694.725 358.773 693.375 358.773H691.909V360.202L695.823 360.206Z" fill="#39B1FF"/>
<path d="M691.911 358.778H690.445C689.091 358.778 687.997 359.41 687.997 360.194V360.21H691.911V358.778Z" fill="#39CFFF"/>
<path d="M691.942 388.676H687.385C685.724 388.676 684.374 387.532 684.374 386.12V386.092H691.938V388.676H691.942Z" fill="#39CFFF"/>
<path d="M691.945 388.676H696.502C698.163 388.676 699.509 387.532 699.509 386.12V386.092H691.945V388.676Z" fill="#39B1FF"/>
<path d="M687.906 372.982C687.906 374.562 686.807 375.842 685.454 375.842C684.1 375.842 683.001 374.562 683.001 372.982C683.001 371.402 684.1 370.122 685.454 370.122C686.807 370.122 687.906 371.402 687.906 372.982Z" fill="#FFC44D"/>
<path d="M687.038 372.982C687.038 374.002 686.327 374.83 685.453 374.83C684.578 374.83 683.867 374.002 683.867 372.982C683.867 371.962 684.578 371.134 685.453 371.134C686.327 371.134 687.038 371.962 687.038 372.982Z" fill="#FFFFC6"/>
<path d="M626.38 366.579V386.584H619.894L616.922 381.512C614.186 376.84 613.867 371.643 616.016 366.819L616.048 366.743L626.38 366.579Z" fill="#FF903E"/>
<path d="M626.301 366.579V386.584H632.787L635.759 381.512C638.495 376.84 638.814 371.643 636.665 366.819L636.633 366.743L626.301 366.579Z" fill="#FF9D4D"/>
<path d="M626.419 394.007H625.361C623.248 394.007 621.535 392.551 621.535 390.755V387.467H626.419V394.007Z" fill="#00AFFC"/>
<path d="M626.422 394.007H627.48C629.593 394.007 631.306 392.551 631.306 390.755V387.467H626.422V394.007Z" fill="#0A98EC"/>
<path d="M626.177 366.579H624.295V387.468H626.177V366.579Z" fill="#00AFFC"/>
<path d="M628.057 366.579H626.176V387.468H628.057V366.579Z" fill="#0A98EC"/>
<path d="M620.37 363.379H615.306C613.74 363.379 612.474 364.111 612.474 365.015V365.047C612.474 365.951 613.744 366.683 615.306 366.683H626.353V363.379H620.37Z" fill="#39CFFF"/>
<path d="M640.234 365.015C640.234 364.111 638.968 363.379 637.402 363.379H632.338H626.355V366.683H637.402C638.968 366.683 640.234 365.951 640.234 365.047V365.015Z" fill="#39B1FF"/>
<path d="M626.352 363.379H636.093V363.347C636.093 361.611 633.657 360.207 630.649 360.207H629.271H626.348V363.379H626.352Z" fill="#0A98EC"/>
<path d="M626.354 360.207H623.43H622.052C619.045 360.207 616.608 361.615 616.608 363.347V363.379H626.35V360.207H626.354Z" fill="#00AFFC"/>
<path d="M630.266 360.206V360.19C630.266 359.409 629.168 358.773 627.818 358.773H626.352V360.202L630.266 360.206Z" fill="#39B1FF"/>
<path d="M626.353 358.778H624.888C623.534 358.778 622.439 359.41 622.439 360.194V360.21H626.353V358.778Z" fill="#39CFFF"/>
<path d="M626.381 388.676H621.824C620.163 388.676 618.813 387.532 618.813 386.12V386.092H626.377L626.381 388.676Z" fill="#39CFFF"/>
<path d="M626.384 388.676H630.941C632.602 388.676 633.952 387.532 633.952 386.12V386.092H626.388V388.676H626.384Z" fill="#39B1FF"/>
<path d="M622.348 372.982C622.348 374.562 621.25 375.842 619.896 375.842C618.542 375.842 617.444 374.562 617.444 372.982C617.444 371.402 618.542 370.122 619.896 370.122C621.25 370.122 622.348 371.402 622.348 372.982Z" fill="#FFC44D"/>
<path d="M621.481 372.982C621.481 374.002 620.77 374.83 619.895 374.83C619.021 374.83 618.31 374.002 618.31 372.982C618.31 371.962 619.021 371.134 619.895 371.134C620.77 371.134 621.481 371.962 621.481 372.982Z" fill="#FFFFC6"/>
<path d="M1160.34 447.96H1142.22C1123.6 447.96 1108.45 432.791 1108.45 414.142V384.325H1116.44V414.142C1116.44 428.379 1128 439.96 1142.22 439.96H1160.34V447.96Z" fill="#CEA282"/>
<path d="M1167.12 433.518L1166.8 425.518H1167.12C1182.59 425.518 1195.16 412.917 1195.16 397.433V388.7H1203.15V397.433C1203.15 417.329 1186.99 433.518 1167.12 433.518Z" fill="#CEA282"/>
<path d="M1194.45 418.538L1194.12 414.537H1194.45C1211.01 414.537 1224.48 401.041 1224.48 384.452V375.72H1228.48V384.452C1228.48 403.245 1213.21 418.538 1194.45 418.538Z" fill="#CEA282"/>
<path d="M1163.25 332.014H1152.89V506.993H1163.25V332.014Z" fill="#D8AF8B"/>
<path d="M1173.6 332.014H1163.25V506.993H1173.6V332.014Z" fill="#CEA282"/>
<path d="M1212.76 400.302C1240.11 400.302 1262.28 378.1 1262.28 350.712C1262.28 323.324 1240.11 301.122 1212.76 301.122C1185.42 301.122 1163.25 323.324 1163.25 350.712C1163.25 378.1 1185.42 400.302 1212.76 400.302Z" fill="#6EA027"/>
<path d="M1156.32 363.227C1195.9 363.227 1227.99 331.092 1227.99 291.452C1227.99 251.812 1195.9 219.677 1156.32 219.677C1116.75 219.677 1084.66 251.812 1084.66 291.452C1084.66 331.092 1116.75 363.227 1156.32 363.227Z" fill="#7FAD36"/>
<path d="M1114.15 401.212C1141.5 401.212 1163.67 379.01 1163.67 351.622C1163.67 324.234 1141.5 302.032 1114.15 302.032C1086.81 302.032 1064.64 324.234 1064.64 351.622C1064.64 379.01 1086.81 401.212 1114.15 401.212Z" fill="#77A52F"/>
<path d="M17.8397 634.07V634.71C17.8397 669.795 46.2404 698.241 81.2711 698.241H1435.85C1470.88 698.241 1499.28 669.795 1499.28 634.71V634.07H1522.57C1540.09 634.07 1554.28 619.849 1554.28 602.305V601.665C1554.28 584.12 1540.09 569.899 1522.57 569.899H1382.75V569.259C1382.75 534.174 1354.35 505.729 1319.32 505.729H108.813C73.7825 505.729 45.3817 534.174 45.3817 569.259V569.899H-11.5676C-29.0849 569.899 -43.2833 584.12 -43.2833 601.665V602.305C-43.2833 619.849 -29.0849 634.07 -11.5676 634.07H17.8397Z" fill="#6EA027"/>
<path d="M154.052 487.797H146.611V479.797H154.052C158.589 479.797 162.283 476.096 162.283 471.552V459.308H170.271V471.552C170.275 480.509 162.998 487.797 154.052 487.797Z" fill="#CEA282"/>
<path d="M144.485 481.405H144.353C134.895 481.405 127.203 473.701 127.203 464.229V460.645H135.191V464.229C135.191 469.289 139.301 473.405 144.353 473.405L144.485 481.405Z" fill="#CEA282"/>
<path d="M145.548 436.964H141.295V508.819H145.548V436.964Z" fill="#D8AF8B"/>
<path d="M149.8 436.964H145.546V508.819H149.8V436.964Z" fill="#CEA282"/>
<path d="M139.534 454.349C139.534 464.682 131.17 473.054 120.858 473.054C110.542 473.054 102.178 464.678 102.178 454.349C102.178 444.017 110.542 435.645 120.858 435.645C131.17 435.641 139.534 444.017 139.534 454.349Z" fill="#77A52F"/>
<path d="M177.981 426.098C180.953 407.758 168.518 390.477 150.207 387.501C131.895 384.524 114.642 396.979 111.67 415.319C108.698 433.659 121.134 450.939 139.445 453.916C157.756 456.892 175.009 444.438 177.981 426.098Z" fill="#7FAD36"/>
<path d="M194.883 443.146C194.883 458.455 182.493 470.863 167.209 470.863C151.924 470.863 139.531 458.455 139.531 443.146C139.531 427.837 151.924 415.425 167.209 415.425C182.493 415.425 194.883 427.833 194.883 443.146Z" fill="#6EA027"/>
<path d="M1027.02 627.771H944.174V634.252H1027.02V627.771Z" fill="#B51400"/>
<path d="M946.118 610.268H937.056V651.753H946.118V610.268Z" fill="#D72D14"/>
<path d="M1034.27 610.268H1025.21V651.753H1034.27V610.268Z" fill="#D72D14"/>
<path d="M946.118 558.737H937.056V600.223H946.118V558.737Z" fill="#B51400"/>
<path d="M1034.27 558.737H1025.21V600.223H1034.27V558.737Z" fill="#B51400"/>
<path d="M1048.37 598.599H925.406V612.859H1048.37V598.599Z" fill="#02B4D2"/>
<path d="M1048.37 598.599H925.406V607.027H1048.37V598.599Z" fill="#51E2EE"/>
<path d="M1048.37 581.098H925.406V588.874H1048.37V581.098Z" fill="#02B4D2"/>
<path d="M1048.37 568.781H925.406V576.562H1048.37V568.781Z" fill="#02B4D2"/>
<path d="M1048.37 556.465H925.406V564.245H1048.37V556.465Z" fill="#02B4D2"/>
<path d="M1303.71 492.724C1302.77 493.1 1301.84 493.472 1300.89 493.836C1300.69 493.32 1300.47 492.8 1300.22 492.316H1303.53C1303.59 492.448 1303.65 492.592 1303.71 492.724Z" fill="#E82018"/>
<path d="M1276.51 477.82V492.045H1212.49C1216.42 482.861 1224.77 478.116 1233.27 477.82H1276.51Z" fill="#D10A0A"/>
<path d="M1222.88 482.691H1219.1V568.227H1222.88V482.691Z" fill="#F79B08"/>
<path d="M1270.3 486.27H1266.52V564.721H1270.3V486.27Z" fill="#F79B08"/>
<path d="M1224.57 482.691H1220.79V568.227H1224.57V482.691Z" fill="#FFB600"/>
<path d="M1271.99 486.27H1268.21V564.721H1271.99V486.27Z" fill="#FFB600"/>
<path d="M1271.51 515.971H1220.64V522.571H1271.51V515.971Z" fill="#D72D14"/>
<path d="M1231.08 515.971H1227.11V564.377H1231.08V515.971Z" fill="#0A98EC"/>
<path d="M1239.58 515.971H1235.6V564.377H1239.58V515.971Z" fill="#0A98EC"/>
<path d="M1248.07 515.971H1244.1V564.377H1248.07V515.971Z" fill="#39B1FF"/>
<path d="M1256.57 515.971H1252.59V564.377H1256.57V515.971Z" fill="#0A98EC"/>
<path d="M1265.06 515.971H1261.09V564.377H1265.06V515.971Z" fill="#0A98EC"/>
<path d="M1295.44 557.777H1244.56V564.378H1295.44V557.777Z" fill="#FFB600"/>
<path d="M1295.44 515.971H1244.56V522.571H1295.44V515.971Z" fill="#D72D14"/>
<path d="M1246.66 482.691H1242.88V568.227H1246.66V482.691Z" fill="#F79B08"/>
<path d="M1294.08 486.27H1290.3V564.721H1294.08V486.27Z" fill="#F79B08"/>
<path d="M1248.34 482.691H1244.56V568.227H1248.34V482.691Z" fill="#FFB600"/>
<path d="M1295.76 486.27H1291.98V564.721H1295.76V486.27Z" fill="#FFB600"/>
<path d="M1246.08 568.228H1210.09V548.667C1210.09 538.811 1218.06 530.822 1227.9 530.822H1228.26C1238.1 530.822 1246.08 538.811 1246.08 548.667V568.228Z" fill="#FFB600"/>
<path d="M1229.19 530.822H1174.88V567.952H1229.19V530.822Z" fill="#FFB600"/>
<path d="M1192.69 568.228H1156.7V548.667C1156.7 538.811 1164.68 530.822 1174.52 530.822H1174.88C1184.72 530.822 1192.69 538.811 1192.69 548.667V568.228Z" fill="#FCD746"/>
<path d="M1159.99 564.928V548.668C1159.99 540.647 1166.51 534.123 1174.51 534.123H1174.87C1182.88 534.123 1189.4 540.647 1189.4 548.668V564.928H1159.99Z" fill="#DC4C07"/>
<path d="M1253.32 515.971H1249.34V564.377H1253.32V515.971Z" fill="#39B1FF"/>
<path d="M1261.81 515.971H1257.84V564.377H1261.81V515.971Z" fill="#39B1FF"/>
<path d="M1270.31 515.971H1266.33V564.377H1270.31V515.971Z" fill="#39B1FF"/>
<path d="M1278.8 515.971H1274.83V564.377H1278.8V515.971Z" fill="#39B1FF"/>
<path d="M1287.3 515.971H1283.32V564.377H1287.3V515.971Z" fill="#39B1FF"/>
<path d="M1255 515.971H1251.02V564.377H1255V515.971Z" fill="#39CFFF"/>
<path d="M1263.49 515.971H1259.52V564.377H1263.49V515.971Z" fill="#39CFFF"/>
<path d="M1271.99 515.971H1268.01V564.377H1271.99V515.971Z" fill="#39CFFF"/>
<path d="M1280.48 515.971H1276.51V564.377H1280.48V515.971Z" fill="#39CFFF"/>
<path d="M1288.98 515.971H1285V564.377H1288.98V515.971Z" fill="#39CFFF"/>
<path d="M1303.53 492.317H1255.86C1251.95 482.865 1243.39 478.025 1234.73 477.817V477.805H1281.79C1290.65 477.809 1299.52 482.649 1303.53 492.317Z" fill="#D92727"/>
<path d="M1163.06 568.23H1157.02L1131.32 592.435H1137.37L1163.06 568.23Z" fill="#FFB600"/>
<path d="M1198.49 569.918L1166.75 592.435V594.119H1172.79L1198.49 569.918Z" fill="#872C00"/>
<path d="M1198.49 568.23H1192.44L1166.75 592.435H1172.79L1198.49 568.23Z" fill="#872C00"/>
<path d="M1163.06 569.918L1131.32 592.435V594.119H1137.37L1163.06 569.918Z" fill="#872C00"/>
<path d="M1163.06 568.23H1157.02L1131.32 592.435H1137.37L1163.06 568.23Z" fill="#39CFFF"/>
<path d="M1196.14 570.428L1192.64 573.728H1151.18V571.528L1196.14 568.504V570.428Z" fill="#B51400"/>
<path d="M1191.34 575.104L1187.83 578.404H1146.37V576.204L1191.34 573.18V575.104Z" fill="#B51400"/>
<path d="M1186.33 579.78L1182.82 583.08H1141.36V580.88L1186.33 577.855V579.78Z" fill="#B51400"/>
<path d="M1181.26 584.455L1177.76 587.756H1136.29V585.555L1181.26 582.527V584.455Z" fill="#B51400"/>
<path d="M1176.29 589.132L1172.79 592.432H1131.33V590.232L1176.29 587.204V589.132Z" fill="#B51400"/>
<path d="M1196.14 568.23L1192.64 571.531H1151.18L1154.68 568.23H1196.14Z" fill="#D72D14"/>
<path d="M1191.19 572.906L1187.69 576.206H1146.22L1149.73 572.906H1191.19Z" fill="#D72D14"/>
<path d="M1186.23 577.582L1182.72 580.882H1141.26L1144.76 577.582H1186.23Z" fill="#D72D14"/>
<path d="M1181.26 582.259L1177.76 585.559H1136.29L1139.8 582.259H1181.26Z" fill="#D72D14"/>
<path d="M1176.29 586.934L1172.79 590.234H1131.33L1134.83 586.934H1176.29Z" fill="#D72D14"/>
<path d="M1256.03 492.725C1255.1 493.101 1254.16 493.473 1253.22 493.837C1253.01 493.321 1252.79 492.801 1252.55 492.317C1252.51 492.229 1252.46 492.129 1252.41 492.041C1248.77 484.769 1241.79 481.049 1234.73 480.841C1227.24 480.621 1219.66 484.349 1215.81 492.041C1215.52 492.613 1215.25 493.217 1215 493.833C1214.07 493.469 1213.14 493.097 1212.2 492.721C1212.29 492.489 1212.39 492.261 1212.49 492.037C1216.43 482.853 1224.77 478.109 1233.27 477.812H1234.73C1243.3 478.021 1251.78 482.765 1255.73 492.037C1255.78 492.125 1255.81 492.213 1255.85 492.313C1255.92 492.449 1255.98 492.593 1256.03 492.725Z" fill="#E82018"/>
<path d="M1255.85 492.317H1252.55C1248.94 484.869 1241.88 481.052 1234.73 480.844V477.82C1243.39 478.028 1251.94 482.868 1255.85 492.317Z" fill="#E82018"/>
<path d="M1290.68 559.133H1287.29V592.43H1290.68V559.133Z" fill="#F79B08"/>
<path d="M1304.29 572.965C1306.15 584.357 1296.46 594.07 1285.08 592.202C1278.19 591.069 1272.64 585.505 1271.51 578.605C1269.64 567.209 1279.34 557.496 1290.71 559.368C1297.6 560.496 1303.16 566.06 1304.29 572.965Z" fill="#F79B08"/>
<path d="M1308.57 572.965C1310.44 584.357 1300.74 594.07 1289.37 592.202C1282.48 591.069 1276.92 585.505 1275.79 578.605C1273.93 567.209 1283.62 557.496 1295 559.368C1301.89 560.496 1307.45 566.06 1308.57 572.965Z" fill="#FFD14D"/>
<path d="M1300.75 574.311C1301.73 580.268 1296.66 585.344 1290.71 584.368C1287.11 583.776 1284.21 580.868 1283.61 577.259C1282.64 571.303 1287.71 566.227 1293.65 567.203C1297.25 567.795 1300.16 570.703 1300.75 574.311Z" fill="#FFB600"/>
<path d="M1248.71 559.133H1245.31V592.43H1248.71V559.133Z" fill="#F79B08"/>
<path d="M1262.32 572.965C1264.18 584.357 1254.49 594.07 1243.11 592.202C1236.22 591.069 1230.67 585.505 1229.54 578.605C1227.67 567.209 1237.37 557.496 1248.74 559.368C1255.63 560.496 1261.19 566.06 1262.32 572.965Z" fill="#F79B08"/>
<path d="M1266.6 572.965C1268.47 584.357 1258.77 594.07 1247.4 592.202C1240.51 591.069 1234.95 585.505 1233.82 578.605C1231.96 567.209 1241.65 557.496 1253.03 559.368C1259.92 560.496 1265.47 566.06 1266.6 572.965Z" fill="#FFD14D"/>
<path d="M1258.78 574.311C1259.76 580.268 1254.69 585.344 1248.74 584.368C1245.14 583.776 1242.24 580.868 1241.64 577.259C1240.67 571.303 1245.74 566.227 1251.68 567.203C1255.29 567.795 1258.19 570.703 1258.78 574.311Z" fill="#FFB600"/>
<path d="M1205.75 566.305H1202.89V594.358H1205.75V566.305Z" fill="#F79B08"/>
<path d="M1217.21 577.956C1218.79 587.556 1210.61 595.737 1201.03 594.165C1195.23 593.212 1190.55 588.52 1189.59 582.708C1188.02 573.108 1196.19 564.927 1205.77 566.499C1211.58 567.451 1216.26 572.14 1217.21 577.956Z" fill="#F79B08"/>
<path d="M1220.82 577.956C1222.4 587.556 1214.23 595.737 1204.64 594.165C1198.84 593.212 1194.16 588.52 1193.2 582.708C1191.63 573.108 1199.8 564.927 1209.39 566.499C1215.19 567.451 1219.87 572.14 1220.82 577.956Z" fill="#FFD14D"/>
<path d="M1214.24 579.087C1215.06 584.107 1210.79 588.383 1205.78 587.559C1202.74 587.059 1200.3 584.611 1199.8 581.571C1198.98 576.551 1203.25 572.274 1208.26 573.098C1211.29 573.598 1213.74 576.046 1214.24 579.087Z" fill="#FFB600"/>
<path d="M783.352 660.506C783.392 660.47 783.507 660.318 783.507 660.078H781.311C781.311 658.102 784.302 657.65 791.068 656.818C793.268 656.546 796.32 656.17 797.969 655.742C796.32 655.314 793.265 654.938 791.068 654.666C784.302 653.83 781.311 653.378 781.311 651.405C781.311 649.433 784.302 648.981 791.068 648.149C793.265 647.877 796.312 647.501 797.965 647.073C796.312 646.645 793.268 646.269 791.068 645.997C784.302 645.165 781.311 644.709 781.311 642.737C781.311 640.761 784.302 640.309 791.064 639.473C793.264 639.201 796.324 638.825 797.973 638.393C796.324 637.965 793.268 637.585 791.068 637.313C784.302 636.477 781.311 636.025 781.311 634.049C781.311 632.073 784.302 631.621 791.068 630.785C793.272 630.513 796.328 630.133 797.977 629.705C796.328 629.273 793.268 628.897 791.068 628.621C784.302 627.784 781.311 627.332 781.311 625.352C781.311 623.376 784.302 622.92 791.064 622.084C793.967 621.724 798.353 621.184 799.048 620.576C799.008 620.612 798.892 620.764 798.892 621H801.089C801.089 622.976 798.097 623.432 791.331 624.268C789.127 624.54 786.067 624.92 784.418 625.352C786.067 625.784 789.127 626.164 791.331 626.436C798.097 627.272 801.089 627.724 801.089 629.705C801.089 631.681 798.097 632.133 791.335 632.969C789.131 633.241 786.075 633.621 784.426 634.049C786.075 634.477 789.131 634.857 791.331 635.129C798.097 635.965 801.089 636.417 801.089 638.393C801.089 640.369 798.097 640.821 791.331 641.657C789.131 641.929 786.079 642.305 784.43 642.733C786.079 643.161 789.135 643.537 791.335 643.809C798.097 644.645 801.804 645.229 801.089 647.069C800.122 649.565 797.155 650.005 791.331 650.325C789.119 650.449 786.083 650.973 784.434 651.401C786.087 651.829 789.135 652.205 791.331 652.477C798.097 653.314 801.089 653.766 801.089 655.738C801.089 657.714 798.097 658.166 791.331 658.998C788.428 659.362 784.043 659.906 783.352 660.506Z" fill="#00AFFC"/>
<path d="M826.657 529.481C826.657 529.481 835.016 532.889 838.152 535.977C842.521 540.281 844.969 543.646 846.635 546.558C847.19 547.526 847.074 548.734 846.343 549.582L844.698 551.49C843.947 552.358 842.729 552.642 841.678 552.182C836.993 550.126 826.545 547.194 824.464 550.77C821.9 555.174 815.854 572.419 821.441 581.223C825.479 587.591 831.769 600.476 834.944 607.128C836.103 609.552 835.36 612.444 833.191 614.029L830.987 615.637C828.666 617.329 825.443 616.993 823.546 614.829C817.755 608.224 804.966 595.532 792.226 595.532C779.01 595.532 766.229 609.248 760.997 615.625C759.455 617.505 756.883 618.157 754.627 617.249L751.224 615.881C748.808 614.909 747.382 612.392 747.801 609.816C749.467 599.556 754.643 574.619 766.209 569.115C780.863 562.142 792.585 567.279 796.982 563.61C801.38 559.942 800.808 555.102 806.919 544.146C814.544 530.477 830.687 524.717 830.687 524.717L826.657 529.481Z" fill="#F79B08"/>
<path d="M794.437 566.933H775.39V562.945H794.437C795.527 562.945 796.41 563.829 796.41 564.921V564.961C796.41 566.049 795.527 566.933 794.437 566.933Z" fill="#D10A0A"/>
<path d="M776.729 566.935H772.851L767.399 551.262C767.004 550.082 767.883 548.862 769.125 548.862H769.165C769.947 548.862 770.642 549.362 770.89 550.106L776.729 566.935Z" fill="#D10A0A"/>
<path d="M826.657 531.681C826.657 531.681 835.016 535.089 838.152 538.177C842.521 542.482 844.969 545.846 846.635 548.758C847.19 549.726 847.074 550.934 846.343 551.778L844.698 553.686C843.947 554.554 842.729 554.838 841.678 554.378C836.993 552.322 826.545 549.39 824.464 552.966C821.9 557.37 815.854 574.615 821.441 583.419C825.479 589.788 831.769 602.672 834.944 609.324C836.103 611.749 835.36 614.641 833.191 616.225L830.987 617.833C828.666 619.525 825.443 619.185 823.546 617.025C817.755 610.421 804.966 597.728 792.226 597.728C779.01 597.728 766.229 611.445 760.997 617.821C759.455 619.701 756.883 620.349 754.627 619.445L751.224 618.077C748.808 617.105 747.382 614.589 747.801 612.013C749.467 601.752 754.643 576.815 766.209 571.311C780.863 564.339 792.585 569.475 796.982 565.807C801.38 562.138 800.808 557.298 806.919 546.342C814.544 532.673 830.687 524.713 830.687 524.713L826.657 531.681Z" fill="#FFB600"/>
<path d="M796.477 621.778H785.921C780.844 621.778 776.731 614.962 776.731 606.549V589.453C776.731 585.789 779.698 582.816 783.357 582.816H799.045C802.703 582.816 805.671 585.789 805.671 589.453V606.549C805.671 614.958 801.553 621.778 796.477 621.778Z" fill="#6BA00A"/>
<path d="M818.479 593.58H810.603C809.325 593.58 808.291 592.756 808.291 591.74V591.704C808.291 590.688 809.325 589.864 810.603 589.864H818.479C819.758 589.864 820.792 590.688 820.792 591.704V591.74C820.792 592.756 819.758 593.58 818.479 593.58Z" fill="#38BBF4"/>
<path d="M770.261 593.58H762.385C761.106 593.58 760.072 592.756 760.072 591.74V591.704C760.072 590.688 761.106 589.864 762.385 589.864H770.261C771.539 589.864 772.573 590.688 772.573 591.704V591.74C772.573 592.756 771.539 593.58 770.261 593.58Z" fill="#38BBF4"/>
<path d="M796.477 623.977H785.921C780.844 623.977 776.731 617.161 776.731 608.749V591.652C776.731 587.988 779.698 585.016 783.357 585.016H799.045C802.703 585.016 805.671 587.988 805.671 591.652V608.749C805.671 617.157 801.553 623.977 796.477 623.977Z" fill="#8FD104"/>
<path d="M785.903 592.252C785.903 593.924 784.549 595.34 782.88 595.28C780.627 595.196 778.949 593.792 779.856 592.252C780.703 590.812 781.21 589.224 782.88 589.224C784.549 589.224 785.903 590.58 785.903 592.252Z" fill="#39CFFF"/>
<path d="M799.778 595.28C801.448 595.28 802.802 593.924 802.802 592.252C802.802 590.579 801.448 589.224 799.778 589.224C798.109 589.224 796.755 590.579 796.755 592.252C796.755 593.924 798.109 595.28 799.778 595.28Z" fill="#39CFFF"/>
<path d="M818.479 594.315H810.603C809.325 594.315 808.291 593.491 808.291 592.475V592.439C808.291 591.423 809.325 590.599 810.603 590.599H818.479C819.758 590.599 820.792 591.423 820.792 592.439V592.475C820.792 593.491 819.758 594.315 818.479 594.315Z" fill="#39CFFF"/>
<path d="M770.261 594.315H762.385C761.106 594.315 760.072 593.491 760.072 592.475V592.439C760.072 591.423 761.106 590.599 762.385 590.599H770.261C771.539 590.599 772.573 591.423 772.573 592.439V592.475C772.573 593.491 771.539 594.315 770.261 594.315Z" fill="#39CFFF"/>
<path d="M794.437 569.137H775.39V565.148H794.437C795.527 565.148 796.41 566.032 796.41 567.125V567.165C796.41 568.253 795.527 569.137 794.437 569.137Z" fill="#D92727"/>
<path d="M776.729 569.133H772.851L767.06 551.86C766.664 550.68 767.543 549.46 768.785 549.46H768.825C769.608 549.46 770.303 549.96 770.55 550.704L776.729 569.133Z" fill="#D92727"/>
<path d="M828.075 539.001C828.075 540.065 827.216 540.929 826.15 540.929C825.087 540.929 824.225 540.069 824.225 539.001C824.225 537.937 825.087 537.073 826.15 537.073C827.216 537.077 828.075 537.937 828.075 539.001Z" fill="#CC2742"/>
<path d="M827.579 539C827.579 539.788 826.94 540.428 826.153 540.428C825.366 540.428 824.727 539.788 824.727 539C824.727 538.212 825.366 537.572 826.153 537.572C826.94 537.572 827.579 538.212 827.579 539Z" fill="#511D0C"/>
<path d="M826.152 538.313C826.152 538.653 825.877 538.933 825.533 538.933C825.19 538.933 824.914 538.657 824.914 538.313C824.914 537.969 825.19 537.693 825.533 537.693C825.877 537.693 826.152 537.973 826.152 538.313Z" fill="#588ABB"/>
<path d="M459.427 501.673H447.313V506.357H459.427V501.673Z" fill="#6BA00A"/>
<path d="M456.137 356.413H450.609V501.675H456.137V356.413Z" fill="#FC7E0B"/>
<path d="M511.005 501.671H498.891V506.355H511.005V501.671Z" fill="#6BA00A"/>
<path d="M507.714 356.413H502.187V501.675H507.714V356.413Z" fill="#FC7E0B"/>
<path d="M461.129 501.673H449.016V506.357H461.129V501.673Z" fill="#8FD104"/>
<path d="M457.837 356.413H452.31V501.675H457.837V356.413Z" fill="#FFB600"/>
<path d="M512.706 501.673H500.593V506.357H512.706V501.673Z" fill="#8FD104"/>
<path d="M509.414 356.413H503.887V501.675H509.414V356.413Z" fill="#FFB600"/>
<path d="M514.188 385.793H450.01V390.857H514.188V385.793Z" fill="#D72D14"/>
<path d="M514.188 393.896H450.01V398.96H514.188V393.896Z" fill="#CC2742"/>
<path d="M514.188 402.002H450.01V407.066H514.188V402.002Z" fill="#D72D14"/>
<path d="M514.188 410.103H450.01V415.167H514.188V410.103Z" fill="#CC2742"/>
<path d="M518.122 350.452H444.682V358.541H518.122V350.452Z" fill="#D10A0A"/>
<path d="M499.111 323.201L497.058 350.45H444.682L481.406 323.201H499.111Z" fill="#E82018"/>
<path d="M478.132 501.673H466.018V506.357H478.132V501.673Z" fill="#6BA00A"/>
<path d="M474.843 356.413H469.315V501.675H474.843V356.413Z" fill="#FC7E0B"/>
<path d="M529.707 501.671H517.593V506.355H529.707V501.671Z" fill="#6BA00A"/>
<path d="M526.417 356.413H520.889V501.675H526.417V356.413Z" fill="#FC7E0B"/>
<path d="M479.833 501.673H467.719V506.357H479.833V501.673Z" fill="#8FD104"/>
<path d="M476.543 356.413H471.015V501.675H476.543V356.413Z" fill="#FFB600"/>
<path d="M531.412 501.673H519.298V506.357H531.412V501.673Z" fill="#8FD104"/>
<path d="M528.121 356.413H522.593V501.675H528.121V356.413Z" fill="#FFB600"/>
<path d="M518.933 428.229H479.545C475.999 428.229 473.127 430.602 473.127 433.534V484.92C473.127 487.848 476.003 490.224 479.545 490.224H518.933C522.48 490.224 525.351 487.848 525.351 484.92V433.534C525.355 430.602 522.48 428.229 518.933 428.229ZM492.37 474.791C492.37 475.868 491.311 476.74 490.009 476.74H485.452C484.15 476.74 483.092 475.868 483.092 474.791V474.735C483.092 472.639 485.149 470.943 487.685 470.943H487.777C490.313 470.943 492.37 472.643 492.37 474.735V474.791ZM492.37 456.627C492.37 457.703 491.311 458.575 490.009 458.575H485.452C484.15 458.575 483.092 457.703 483.092 456.627V456.571C483.092 454.475 485.149 452.779 487.685 452.779H487.777C490.313 452.779 492.37 454.475 492.37 456.571V456.627ZM492.37 438.462C492.37 439.538 491.311 440.41 490.009 440.41H485.452C484.15 440.41 483.092 439.538 483.092 438.462V438.406C483.092 436.31 485.149 434.614 487.685 434.614H487.777C490.313 434.614 492.37 436.314 492.37 438.406V438.462ZM515.391 482.316C515.391 483.392 514.336 484.264 513.03 484.264H508.473C507.171 484.264 506.113 483.392 506.113 482.316V482.256C506.113 480.16 508.17 478.464 510.706 478.464H510.798C513.334 478.464 515.391 480.164 515.391 482.256V482.316ZM515.391 464.151C515.391 465.227 514.336 466.099 513.03 466.099H508.473C507.171 466.099 506.113 465.227 506.113 464.151V464.091C506.113 461.995 508.17 460.299 510.706 460.299H510.798C513.334 460.299 515.391 461.995 515.391 464.091V464.151ZM515.391 445.982C515.391 447.058 514.336 447.93 513.03 447.93H508.473C507.171 447.93 506.113 447.058 506.113 445.982V445.926C506.113 443.83 508.17 442.134 510.706 442.134H510.798C513.334 442.134 515.391 443.834 515.391 445.926V445.982Z" fill="#38BBF4"/>
<path d="M518.933 428.94H479.545C475.999 428.94 473.127 431.313 473.127 434.245V485.631C473.127 488.559 476.003 490.935 479.545 490.935H518.933C522.48 490.935 525.351 488.559 525.351 485.631V434.245C525.355 431.317 522.48 428.94 518.933 428.94ZM492.37 475.506C492.37 476.582 491.311 477.455 490.009 477.455H485.452C484.15 477.455 483.092 476.582 483.092 475.506V475.446C483.092 473.35 485.149 471.654 487.685 471.654H487.777C490.313 471.654 492.37 473.35 492.37 475.446V475.506ZM492.37 457.342C492.37 458.418 491.311 459.29 490.009 459.29H485.452C484.15 459.29 483.092 458.418 483.092 457.342V457.286C483.092 455.19 485.149 453.493 487.685 453.493H487.777C490.313 453.493 492.37 455.19 492.37 457.286V457.342ZM492.37 439.173C492.37 440.249 491.311 441.121 490.009 441.121H485.452C484.15 441.121 483.092 440.249 483.092 439.173V439.117C483.092 437.021 485.149 435.325 487.685 435.325H487.777C490.313 435.325 492.37 437.025 492.37 439.117V439.173ZM515.391 483.027C515.391 484.103 514.336 484.975 513.03 484.975H508.473C507.171 484.975 506.113 484.103 506.113 483.027V482.971C506.113 480.875 508.17 479.179 510.706 479.179H510.798C513.334 479.179 515.391 480.879 515.391 482.971V483.027ZM515.391 464.862C515.391 465.938 514.336 466.81 513.03 466.81H508.473C507.171 466.81 506.113 465.938 506.113 464.862V464.806C506.113 462.71 508.17 461.014 510.706 461.014H510.798C513.334 461.014 515.391 462.71 515.391 464.806V464.862ZM515.391 446.697C515.391 447.773 514.336 448.645 513.03 448.645H508.473C507.171 448.645 506.113 447.773 506.113 446.697V446.641C506.113 444.545 508.17 442.849 510.706 442.849H510.798C513.334 442.849 515.391 444.549 515.391 446.641V446.697Z" fill="#39CFFF"/>
<path d="M528.12 419.178H471.015V423.294H528.12V419.178Z" fill="#FFB600"/>
<path d="M470.986 419.178H450.973V423.294H470.986V419.178Z" fill="#FC7E0B"/>
<path d="M565.914 429.818C565.941 429.826 565.949 429.83 565.926 429.822L565.914 429.818Z" fill="#FFB600"/>
<path d="M565.919 429.815C565.919 429.815 565.919 429.815 565.919 429.832C565.935 429.832 565.935 429.832 565.935 429.832C565.935 429.832 565.935 429.815 565.919 429.815Z" fill="#FFB600"/>
<path d="M565.91 429.819C565.874 429.811 565.866 429.807 565.874 429.807C565.874 429.807 565.878 429.811 565.91 429.819Z" fill="#FFB600"/>
<path d="M565.91 485.691C565.938 485.683 565.942 485.683 565.942 485.683C565.954 485.679 565.954 485.679 565.91 485.691Z" fill="#FFB600"/>
<path d="M522.59 419.15C522.59 419.15 549.849 424.818 553.911 426.27C557.956 427.738 562.242 428.826 565.916 429.814C565.932 429.814 565.932 429.83 565.932 429.83C573.261 431.826 583.174 434.17 588.817 439.135C591.521 436.758 593.255 433.786 593.255 429.954C593.255 426.01 591.417 422.946 588.594 420.506C583.274 415.894 529.64 403.437 522.586 401.541L522.59 419.15Z" fill="#FFB600"/>
<path d="M565.919 429.815C565.919 429.815 565.919 429.815 565.919 429.832C565.935 429.832 565.935 429.832 565.935 429.832C565.935 429.832 565.935 429.815 565.919 429.815Z" fill="#FFB600"/>
<path d="M565.911 429.819C565.879 429.811 565.871 429.807 565.871 429.807C565.879 429.811 565.895 429.815 565.911 429.819Z" fill="#FFB600"/>
<path d="M538.846 448.572C538.846 452.405 540.563 455.373 543.231 457.749C548.791 462.713 558.536 465.061 565.881 467.057C565.881 467.057 565.881 467.057 565.913 467.057C565.929 467.057 565.945 467.057 565.945 467.057V467.073C569.615 468.061 573.901 469.149 577.982 470.617C582.096 472.069 585.974 473.905 588.814 476.382C591.518 474.001 593.251 471.033 593.251 467.201C593.251 463.257 591.414 460.193 588.59 457.753C582.895 452.853 573.186 450.424 565.941 448.448H565.909C565.893 448.448 565.893 448.448 565.893 448.448C565.877 448.448 565.877 448.448 565.877 448.448V448.432C558.632 446.468 549.058 444.028 543.467 439.124C540.667 441.58 538.846 444.628 538.846 448.572Z" fill="#FFB600"/>
<path d="M565.919 485.685V485.701H565.935L565.919 485.685Z" fill="#FFB600"/>
<path d="M538.846 485.811C538.846 489.659 540.563 492.627 543.231 495.008C548.691 499.876 558.045 502.716 565.453 504.2C579.652 507.048 612.17 506.252 612.17 506.252C612.15 505.104 610.593 503.224 608.424 501.16C601.363 494.44 592.301 490.211 582.667 488.759C576.437 487.819 569.459 486.659 565.949 485.703C565.949 485.703 565.949 485.703 565.933 485.703L565.917 485.687H565.901C565.885 485.687 565.869 485.687 565.869 485.687C558.624 483.707 549.07 481.267 543.475 476.383C540.667 478.819 538.846 481.867 538.846 485.811Z" fill="#FFB600"/>
<path d="M565.945 485.681C565.945 485.681 565.941 485.681 565.914 485.689C565.926 485.685 565.937 485.681 565.945 485.681Z" fill="#FFB600"/>
<path d="M565.91 467.062C565.946 467.07 565.977 467.078 565.91 467.062V467.062Z" fill="#FFB600"/>
<path d="M565.908 467.062C565.844 467.078 565.876 467.07 565.908 467.062V467.062Z" fill="#FFB600"/>
<path d="M565.91 429.818L565.926 429.822L565.93 429.827L565.91 429.818Z" fill="#FFB600"/>
<path d="M565.909 411.161C565.837 411.181 565.873 411.173 565.909 411.161V411.161Z" fill="#FFB600"/>
<path d="M565.868 411.154C565.868 411.154 565.884 411.154 565.919 411.17C565.903 411.154 565.903 411.154 565.903 411.154C565.888 411.154 565.868 411.154 565.868 411.154Z" fill="#FFB600"/>
<path d="M565.91 429.818L565.926 429.822L565.91 429.818Z" fill="#FFB600"/>
<path d="M565.91 485.689C565.934 485.681 565.946 485.681 565.946 485.681C565.938 485.681 565.926 485.685 565.91 485.689Z" fill="#FFB600"/>
<path d="M565.886 485.696L565.878 485.7C565.878 485.7 565.878 485.696 565.886 485.696Z" fill="#FFB600"/>
<path d="M543.471 476.375C545.393 478.051 547.757 479.423 550.341 480.603C555.321 482.871 561.089 484.372 565.865 485.68C565.865 485.68 565.881 485.68 565.897 485.68H565.913C565.929 485.68 565.929 485.68 565.945 485.68C568.681 484.928 571.776 484.132 574.888 483.159C576.433 482.679 577.999 482.171 579.513 481.579C583.047 480.223 586.35 478.547 588.814 476.375C585.975 473.903 582.097 472.067 577.983 470.611C576.793 470.179 575.587 469.795 574.396 469.431C574.38 469.431 574.364 469.415 574.344 469.415C571.437 468.507 568.529 467.771 565.945 467.067V467.051C565.945 467.051 565.929 467.051 565.913 467.051C565.877 467.051 565.877 467.051 565.877 467.051V467.067C565.861 467.067 565.861 467.067 565.861 467.067C558.62 469.063 549.067 471.491 543.471 476.375Z" fill="#FFB600"/>
<path d="M565.919 485.685L565.935 485.7C565.95 485.7 565.95 485.7 565.95 485.7V485.685C565.935 485.685 565.935 485.685 565.919 485.685Z" fill="#FFB600"/>
<path d="M543.471 439.119C549.067 444.019 558.64 446.463 565.881 448.427V448.443C565.881 448.443 565.881 448.443 565.897 448.443C565.897 448.443 565.897 448.443 565.913 448.443H565.945V448.427C568.681 447.675 571.776 446.895 574.888 445.923C575.926 445.603 576.96 445.267 577.983 444.903C578.494 444.727 579.001 444.535 579.513 444.343C583.047 442.987 586.35 441.311 588.814 439.139C583.171 434.175 573.254 431.83 565.929 429.834C565.929 429.834 565.929 429.818 565.913 429.818C558.672 431.794 549.083 434.235 543.471 439.119Z" fill="#FC7E0B"/>
<path d="M543.471 439.12C545.377 440.796 547.721 442.168 550.305 443.336C555.305 445.62 561.101 447.136 565.881 448.428V448.444C565.881 448.444 565.881 448.444 565.897 448.444C565.897 448.444 565.897 448.444 565.913 448.444H565.945V448.428C568.681 447.676 571.776 446.896 574.888 445.92C575.926 445.6 576.96 445.264 577.983 444.9C578.494 444.724 579.001 444.532 579.513 444.34C583.047 442.984 586.35 441.308 588.814 439.136C585.176 435.928 579.752 433.82 574.396 432.192C574.38 432.192 574.364 432.176 574.344 432.176C571.421 431.268 568.513 430.532 565.929 429.828C565.929 429.828 565.929 429.812 565.913 429.812C558.672 431.796 549.083 434.236 543.471 439.12Z" fill="#FFB600"/>
<path d="M543.471 476.375C545.393 478.051 547.757 479.423 550.341 480.603C552.925 481.387 555.477 482.055 557.79 482.695C557.79 482.695 557.806 482.695 557.822 482.695H557.838C557.854 482.695 557.854 482.695 557.87 482.695C560.609 481.943 563.701 481.147 566.812 480.175C568.358 479.695 569.923 479.187 571.437 478.595C574.972 477.239 578.27 475.563 580.739 473.391C578.969 471.843 576.777 470.551 574.396 469.431C574.38 469.431 574.364 469.415 574.344 469.415C571.437 468.507 568.529 467.771 565.945 467.067V467.051C565.945 467.051 565.929 467.051 565.913 467.051C565.877 467.051 565.877 467.051 565.877 467.051V467.067C565.861 467.067 565.861 467.067 565.861 467.067C558.62 469.063 549.067 471.491 543.471 476.375Z" fill="#FC7E0B"/>
<path d="M543.471 439.12C545.377 440.796 547.721 442.168 550.305 443.336C552.905 444.132 555.473 444.804 557.806 445.444V445.46C557.806 445.46 557.806 445.46 557.822 445.46C557.822 445.46 557.822 445.46 557.838 445.46H557.87V445.444C560.609 444.692 563.701 443.912 566.812 442.936C567.85 442.616 568.885 442.28 569.907 441.916C570.418 441.74 570.926 441.548 571.437 441.356C574.972 440 578.27 438.324 580.739 436.152C578.969 434.588 576.793 433.296 574.396 432.192C574.38 432.192 574.364 432.176 574.344 432.176C571.421 431.268 568.513 430.532 565.929 429.828C565.929 429.828 565.929 429.812 565.913 429.812C558.672 431.796 549.083 434.236 543.471 439.12Z" fill="#FC7E0B"/>
<path d="M565.91 467.062C565.95 467.07 565.985 467.082 565.91 467.062C565.946 467.07 565.977 467.078 565.91 467.062Z" fill="#FFB600"/>
<path d="M531.898 385.794H467.72V390.858H531.898V385.794Z" fill="#D72D14"/>
<path d="M531.898 393.896H467.72V398.96H531.898V393.896Z" fill="#FF1454"/>
<path d="M531.898 402.002H467.72V407.066H531.898V402.002Z" fill="#D72D14"/>
<path d="M531.898 410.103H467.72V415.167H531.898V410.103Z" fill="#FF1454"/>
<path d="M535.832 350.452H462.391V358.541H535.832V350.452Z" fill="#E82018"/>
<path d="M535.836 350.45H462.391L499.112 323.201L535.836 350.45Z" fill="#D92727"/>
<path d="M797.601 522.758V332.39L805.568 332.15V522.758H797.601Z" fill="#6BA00A"/>
<path d="M877.632 332.388H865.283V522.756H877.632V332.388Z" fill="#6BA00A"/>
<path d="M789.812 446.278L784.468 453.822L744.445 506.532C736.649 516.801 724.507 522.833 711.627 522.833H689.149L691.326 518.465C695.528 510.029 704.135 504.696 713.548 504.696H713.832C721.748 504.696 729.188 500.916 733.865 494.52L781.345 429.441C785.519 423.721 792.164 420.341 799.238 420.341H807.729L789.812 446.278Z" fill="#0A98EC"/>
<path d="M820.566 420.341H810.533C803.46 420.341 796.814 423.721 792.64 429.441L745.16 494.52C740.483 500.916 733.043 504.696 725.127 504.696H724.843C715.43 504.696 706.827 510.029 702.621 518.465L700.444 522.837H722.922C735.803 522.837 747.944 516.809 755.74 506.536L795.763 453.826L801.107 446.282V446.058H820.566V420.341Z" fill="#00AFFC"/>
<path d="M874.084 397.462H809.111V449.976H874.084V397.462Z" fill="#FFB600"/>
<path d="M881.091 394.137H801.053V403.957H881.091V394.137Z" fill="#00AFFC"/>
<path d="M885.577 448.459C884.327 449.155 883.085 449.883 881.843 450.647C881.843 432.762 881.843 414.877 881.843 396.997C883.081 396.233 884.327 395.505 885.577 394.809C885.577 412.693 885.577 430.578 885.577 448.459Z" fill="#39CFFF"/>
<path d="M894.3 444.182C893.03 444.723 891.764 445.299 890.498 445.907C890.498 428.022 890.498 410.141 890.498 392.256C891.76 391.648 893.026 391.072 894.3 390.532C894.3 408.413 894.3 426.298 894.3 444.182Z" fill="#8FD104"/>
<path d="M903.159 440.971C901.873 441.359 900.587 441.779 899.309 442.231C899.309 424.346 899.309 406.465 899.309 388.58C900.591 388.124 901.873 387.704 903.159 387.32C903.159 405.201 903.159 423.086 903.159 440.971Z" fill="#39CFFF"/>
<path d="M912.108 438.826C910.81 439.058 909.512 439.326 908.218 439.626C908.218 421.741 908.218 403.857 908.218 385.976C909.512 385.676 910.806 385.408 912.108 385.176C912.108 403.057 912.108 420.941 912.108 438.826Z" fill="#8FD104"/>
<path d="M921.113 437.744C919.811 437.824 918.505 437.936 917.207 438.08C917.207 420.195 917.207 402.315 917.207 384.43C918.509 384.286 919.811 384.174 921.113 384.094C921.113 401.979 921.113 419.863 921.113 437.744Z" fill="#39CFFF"/>
<path d="M930.135 437.735C928.833 437.659 927.527 437.619 926.225 437.607C926.225 419.723 926.225 401.838 926.225 383.957C927.531 383.965 928.833 384.009 930.135 384.085C930.135 401.97 930.135 419.851 930.135 437.735Z" fill="#8FD104"/>
<path d="M939.141 438.797C937.843 438.565 936.541 438.369 935.243 438.205C935.243 420.32 935.243 402.435 935.243 384.555C936.545 384.719 937.843 384.915 939.141 385.143C939.141 403.031 939.141 420.912 939.141 438.797Z" fill="#39CFFF"/>
<path d="M948.091 440.925C946.805 440.541 945.515 440.189 944.221 439.873C944.221 421.988 944.221 404.107 944.221 386.223C945.515 386.539 946.805 386.891 948.091 387.275C948.091 405.155 948.091 423.04 948.091 440.925Z" fill="#8FD104"/>
<path d="M956.952 444.119C955.682 443.579 954.404 443.075 953.126 442.603C953.126 424.719 953.126 406.834 953.126 388.953C954.404 389.425 955.682 389.929 956.952 390.469C956.952 408.35 956.952 426.235 956.952 444.119Z" fill="#39CFFF"/>
<path d="M965.676 448.384C964.426 447.692 963.172 447.032 961.91 446.404C961.91 428.519 961.91 410.635 961.91 392.754C963.168 393.382 964.426 394.038 965.676 394.734C965.676 412.615 965.676 430.499 965.676 448.384Z" fill="#8FD104"/>
<path d="M972.774 403.954C942.631 383.801 908.763 383.801 878.617 403.954C878.617 401.754 878.617 399.558 878.617 397.358C908.759 377.209 942.627 377.209 972.774 397.358C972.774 399.558 972.774 401.758 972.774 403.954Z" fill="#D72D14"/>
<path d="M972.774 400.727C942.631 380.578 908.763 380.578 878.617 400.727C878.617 398.527 878.617 396.331 878.617 394.135C908.759 373.986 942.627 373.986 972.774 394.135C972.774 396.331 972.774 398.531 972.774 400.727Z" fill="#D72D14"/>
<path d="M972.774 458.679C942.631 438.53 908.763 438.53 878.617 458.679C878.617 456.482 878.617 454.282 878.617 452.086C908.759 431.937 942.627 431.937 972.774 452.086C972.774 454.286 972.774 456.482 972.774 458.679Z" fill="#D72D14"/>
<path d="M972.774 455.455C942.631 435.302 908.763 435.302 878.617 455.455C878.617 453.255 878.617 451.059 878.617 448.863C908.759 428.71 942.627 428.71 972.774 448.863C972.774 451.059 972.774 453.255 972.774 455.455Z" fill="#D72D14"/>
<path d="M813.402 332.388H801.053V461.257H813.402V332.388Z" fill="#8FD104"/>
<path d="M881.088 332.388H868.739V461.257H881.088V332.388Z" fill="#8FD104"/>
<path d="M813.402 332.388H801.053V522.756H813.402V332.388Z" fill="#8FD104"/>
<path d="M881.088 332.388H868.739V522.756H881.088V332.388Z" fill="#8FD104"/>
<path d="M881.092 322.393H797.18V332.389H881.092V322.393Z" fill="#00AFFC"/>
<path d="M791.709 324.986H810.377L838.526 278.336L791.709 324.986Z" fill="#FC7E0B"/>
<path d="M838.522 278.336L866.672 324.986H887.556L838.522 278.336Z" fill="#FC7E0B"/>
<path d="M810.375 324.986H827.01L838.524 278.336L810.375 324.986Z" fill="#D72D14"/>
<path d="M850.037 324.986H866.672L838.522 278.336L850.037 324.986Z" fill="#D72D14"/>
<path d="M827.01 324.986H850.039L838.524 278.336L827.01 324.986Z" fill="#FC7E0B"/>
<path d="M922.126 524.968V501.379L872.473 433.744H868.248L917.9 524.968H922.126Z" fill="#FFB600"/>
<path d="M917.9 524.968V501.379L868.248 433.744V457.333L917.9 524.968Z" fill="#F79B08"/>
<path d="M874.454 444.275H817.145V465.636H874.454V444.275Z" fill="#FC7E0B"/>
<path d="M876.043 444.275H812.129V446.623H876.043V444.275Z" fill="#F79B08"/>
<path d="M888.409 463.288H831.1V484.649H888.409V463.288Z" fill="#FC7E0B"/>
<path d="M889.995 463.288H826.08V465.636H889.995V463.288Z" fill="#F79B08"/>
<path d="M902.36 482.305H845.052V503.666H902.36V482.305Z" fill="#FC7E0B"/>
<path d="M903.95 482.305H840.036V484.653H903.95V482.305Z" fill="#F79B08"/>
<path d="M916.314 501.316H859.006V522.677H916.314V501.316Z" fill="#FC7E0B"/>
<path d="M917.904 501.316H853.99V503.665H917.904V501.316Z" fill="#F79B08"/>
<path d="M861.908 524.968V501.379L812.26 433.744H808.034L857.683 524.968H861.908Z" fill="#FFB600"/>
<path d="M857.683 524.968V501.379L808.034 433.744V457.333L857.683 524.968Z" fill="#F79B08"/>
<path d="M978.966 332.388H966.617V522.756H978.966V332.388Z" fill="#6BA00A"/>
<path d="M1046.65 332.388H1034.3V522.756H1046.65V332.388Z" fill="#6BA00A"/>
<path d="M1049.23 446.278L1054.57 453.822L1094.59 506.532C1102.39 516.801 1114.53 522.833 1127.41 522.833H1149.89L1147.71 518.465C1143.51 510.029 1134.9 504.696 1125.49 504.696H1125.21C1117.29 504.696 1109.85 500.916 1105.17 494.52L1057.7 429.441C1053.52 423.721 1046.88 420.341 1039.81 420.341H1031.31L1049.23 446.278Z" fill="#0A98EC"/>
<path d="M1036.43 420.341H1046.46C1053.53 420.341 1060.18 423.721 1064.35 429.441L1111.83 494.52C1116.51 500.916 1123.95 504.696 1131.87 504.696H1132.15C1141.56 504.696 1150.17 510.029 1154.37 518.465L1156.55 522.837H1134.07C1121.19 522.837 1109.05 516.809 1101.25 506.536L1061.23 453.826L1061.18 453.75C1057.86 449.058 1052.49 446.242 1046.74 446.174L1036.43 446.054L1036.43 420.341Z" fill="#00AFFC"/>
<path d="M1043.1 397.462H978.13V449.976H1043.1V397.462Z" fill="#FFB600"/>
<path d="M1050.11 394.137H970.072V403.957H1050.11V394.137Z" fill="#00AFFC"/>
<path d="M982.421 332.388H970.072V461.257H982.421V332.388Z" fill="#8FD104"/>
<path d="M1050.11 332.388H1037.76V461.257H1050.11V332.388Z" fill="#8FD104"/>
<path d="M1050.11 322.393H966.199V332.389H1050.11V322.393Z" fill="#00AFFC"/>
<path d="M960.728 324.986H979.395L1007.54 278.336L960.728 324.986Z" fill="#FC7E0B"/>
<path d="M1007.54 278.336L1035.69 324.986H1056.58L1007.54 278.336Z" fill="#FC7E0B"/>
<path d="M979.393 324.986H996.028L1007.54 278.336L979.393 324.986Z" fill="#D72D14"/>
<path d="M1019.06 324.986H1035.69L1007.54 278.336L1019.06 324.986Z" fill="#D72D14"/>
<path d="M996.029 324.986H1019.06L1007.54 278.336L996.029 324.986Z" fill="#FC7E0B"/>
<path d="M1050.11 445.065H970.071V454.886H1050.11V445.065Z" fill="#00AFFC"/>
<path d="M982.421 332.388H970.072V522.756H982.421V332.388Z" fill="#8FD104"/>
<path d="M1050.11 332.388H1037.76V522.756H1050.11V332.388Z" fill="#8FD104"/>
<path d="M989.316 522.758H981.552V514.838C981.552 508.561 986.484 503.457 992.543 503.457H1026.65C1028.43 503.457 1029.87 501.837 1029.87 499.853C1029.87 497.713 1028.43 496.097 1026.65 496.097H992.543C986.484 496.097 981.552 490.993 981.552 484.712V483.644C981.552 477.368 986.484 472.26 992.543 472.26H1026.65C1028.43 472.26 1029.87 470.644 1029.87 468.656C1029.87 466.516 1028.43 464.9 1026.65 464.9H992.403C986.464 464.9 981.536 459.895 981.416 453.743L981.252 445.135H989.017L989.18 453.599C989.216 455.539 990.662 457.123 992.403 457.123H1026.65C1032.71 457.123 1037.64 462.227 1037.64 468.508C1037.64 474.936 1032.71 480.044 1026.65 480.044H992.543C990.766 480.044 989.316 481.664 989.316 483.648V484.716C989.316 486.701 990.762 488.321 992.543 488.321H1026.65C1032.71 488.321 1037.64 493.425 1037.64 499.705C1037.64 506.133 1032.71 511.242 1026.65 511.242H992.543C990.766 511.242 989.316 512.858 989.316 514.846V522.758Z" fill="#D72D14"/>
<path d="M987.376 522.758H983.494V512.222C983.494 507.017 987.551 502.785 992.544 502.785H1026.65C1029.5 502.785 1031.82 500.297 1031.82 497.237C1031.82 494.025 1029.5 491.537 1026.65 491.537H992.544C987.551 491.537 983.494 487.305 983.494 482.1V481.028C983.494 475.824 987.551 471.588 992.544 471.588H1026.65C1029.5 471.588 1031.82 469.1 1031.82 466.04C1031.82 462.832 1029.5 460.343 1026.65 460.343H992.404C987.515 460.343 983.458 456.191 983.358 451.091L983.194 445.135H987.076L987.24 451.015C987.3 454.015 989.616 456.455 992.404 456.455H1026.65C1031.64 456.455 1035.7 460.691 1035.7 465.892C1035.7 471.244 1031.64 475.476 1026.65 475.476H992.544C989.696 475.476 987.376 477.964 987.376 481.024V482.096C987.376 485.152 989.692 487.641 992.544 487.641H1026.65C1031.64 487.641 1035.7 491.877 1035.7 497.077C1035.7 502.433 1031.64 506.669 1026.65 506.669H992.544C989.696 506.669 987.376 509.157 987.376 512.218V522.758Z" fill="#FF97B5"/>
<path d="M503.875 533.36C512.506 539.24 518.169 549.181 518.205 560.417C522.191 558.141 527.048 557.197 532.116 558.177C539.876 559.645 546.235 565.842 547.912 573.542C550.776 586.526 541.13 598.079 528.725 598.395C528.518 598.431 528.342 598.431 528.13 598.431H591.246C591.49 598.431 591.701 598.431 591.945 598.395C607.114 598.011 618.856 583.902 615.397 568.082C613.301 558.665 605.576 551.173 596.107 549.353C589.92 548.161 584.013 549.281 579.121 552.085C579.085 530 561.192 512.111 539.173 512.111C523.901 512.111 510.621 520.724 503.875 533.36Z" fill="#7FAD36"/>
<path d="M442.926 598.361C443.309 598.433 443.728 598.433 444.148 598.433H528.128C528.339 598.433 528.511 598.433 528.723 598.397C541.132 598.081 550.777 586.533 547.91 573.544C546.232 565.844 539.87 559.648 532.114 558.18C527.045 557.199 522.189 558.143 518.203 560.42C518.167 549.183 512.508 539.243 503.873 533.362C498.629 529.758 492.27 527.658 485.421 527.658C470.044 527.658 457.148 538.263 453.617 552.579C447.57 549.919 440.162 549.711 432.717 553.243C428.452 555.275 424.925 558.808 422.896 563.08C414.688 580.508 426.674 597.589 442.926 598.361Z" fill="#8BB240"/>
<path d="M538.05 536.887C529.874 542.915 534.755 547.804 540.774 539.615C546.793 547.8 551.673 542.915 543.498 536.887C551.669 530.859 546.793 525.971 540.774 534.159C534.755 525.971 529.878 530.859 538.05 536.887Z" fill="#FF97B5"/>
<path d="M538.85 534.957C528.813 533.429 528.813 540.341 538.85 538.817C537.324 548.87 544.226 548.87 542.704 538.817C552.741 540.341 552.741 533.433 542.704 534.957C544.226 524.909 537.324 524.909 538.85 534.957Z" fill="#FF76A7"/>
<path d="M540.773 539.074C541.978 539.074 542.954 538.096 542.954 536.89C542.954 535.684 541.978 534.706 540.773 534.706C539.569 534.706 538.593 535.684 538.593 536.89C538.593 538.096 539.569 539.074 540.773 539.074Z" fill="#FFD14D"/>
<path d="M479.705 566.165C471.533 572.194 476.41 577.082 482.429 568.894C488.447 577.078 493.328 572.194 485.153 566.165C493.324 560.137 488.447 555.249 482.429 563.437C476.41 555.253 471.533 560.137 479.705 566.165Z" fill="#FF97B5"/>
<path d="M480.506 564.238C470.469 562.713 470.469 569.622 480.506 568.098C478.984 578.15 485.881 578.15 484.36 568.098C494.396 569.626 494.396 562.713 484.36 564.238C485.881 554.185 478.98 554.185 480.506 564.238Z" fill="#FF76A7"/>
<path d="M482.429 568.349C483.633 568.349 484.609 567.371 484.609 566.165C484.609 564.958 483.633 563.98 482.429 563.98C481.224 563.98 480.248 564.958 480.248 566.165C480.248 567.371 481.224 568.349 482.429 568.349Z" fill="#FFD14D"/>
<path d="M594.334 575.632C589.182 579.432 592.257 582.513 596.051 577.352C599.846 582.513 602.921 579.432 597.769 575.632C602.921 571.832 599.846 568.752 596.051 573.912C592.257 568.752 589.182 571.832 594.334 575.632Z" fill="#FF97B5"/>
<path d="M594.837 574.416C588.511 573.452 588.511 577.808 594.837 576.848C593.879 583.185 598.224 583.185 597.266 576.848C603.592 577.808 603.592 573.452 597.266 574.416C598.224 568.08 593.875 568.08 594.837 574.416Z" fill="#FF76A7"/>
<path d="M594.679 575.634C594.679 576.394 595.294 577.01 596.053 577.01C596.812 577.01 597.427 576.394 597.427 575.634C597.427 574.874 596.812 574.258 596.053 574.258C595.294 574.258 594.679 574.874 594.679 575.634Z" fill="#FFD14D"/>
<path d="M1437.97 567.336L1396.31 497.029L1397.73 496.185L1439.39 566.496L1437.97 567.336Z" fill="#517F93"/>
<path d="M1426.64 489.351L1425.01 489.621L1437.78 567.088L1439.41 566.819L1426.64 489.351Z" fill="#517F93"/>
<path d="M1451.83 496.213L1437.96 566.804L1439.59 567.123L1453.45 496.533L1451.83 496.213Z" fill="#517F93"/>
<path d="M1479.62 488.811L1437.96 566.582L1439.42 567.363L1481.07 489.592L1479.62 488.811Z" fill="#517F93"/>
<path d="M1409.81 478.487L1408.25 479.013L1437.8 567.226L1439.36 566.7L1409.81 478.487Z" fill="#517F93"/>
<path d="M1437.86 566.917L1437.74 451.968H1439.39L1439.5 566.917H1437.86Z" fill="#517F93"/>
<path d="M1472.13 472.427L1437.91 566.723L1439.46 567.287L1473.68 472.991L1472.13 472.427Z" fill="#517F93"/>
<path d="M1437.54 413.322C1428.51 413.322 1421.19 420.651 1421.19 429.691V429.991C1421.19 438.255 1425.72 445.856 1432.97 449.792L1435.64 450.492L1434.26 453.276H1437.7V452.356V445.928V413.318L1437.54 413.322Z" fill="#FF97B5"/>
<path d="M1437.87 413.322C1446.9 413.322 1454.21 420.651 1454.21 429.691V429.991C1454.21 438.255 1449.69 445.856 1442.44 449.792L1439.77 450.492L1441.14 453.276H1437.71V452.356V445.928V413.318L1437.87 413.322Z" fill="#FF76A7"/>
<path d="M1428.82 428.475C1430.72 428.475 1432.26 426.933 1432.26 425.031C1432.26 423.129 1430.72 421.587 1428.82 421.587C1426.92 421.587 1425.38 423.129 1425.38 425.031C1425.38 426.933 1426.92 428.475 1428.82 428.475Z" fill="white"/>
<path d="M1406.34 425.826C1397.32 425.826 1390 433.155 1390 442.195V442.495C1390 450.759 1394.52 458.36 1401.78 462.296L1404.44 462.996L1403.07 465.78H1406.51V464.86V458.432V425.822L1406.34 425.826Z" fill="#B8D040"/>
<path d="M1406.67 425.826C1415.7 425.826 1423.01 433.155 1423.01 442.195V442.495C1423.01 450.759 1418.49 458.36 1411.24 462.296L1408.57 462.996L1409.94 465.78H1406.51V464.86V458.432V425.822L1406.67 425.826Z" fill="#8FD104"/>
<path d="M1401.06 437.536C1401.06 439.44 1399.52 440.98 1397.62 440.98C1395.72 440.98 1394.18 439.436 1394.18 437.536C1394.18 435.632 1395.72 434.092 1397.62 434.092C1399.52 434.092 1401.06 435.636 1401.06 437.536Z" fill="white"/>
<path d="M1423.43 451.347C1414.41 451.347 1407.09 458.675 1407.09 467.715V468.015C1407.09 476.28 1411.61 483.88 1418.86 487.816L1421.53 488.516L1420.16 491.3H1423.6V490.38V483.952V451.343H1423.43V451.347Z" fill="#FFBD8C"/>
<path d="M1423.76 451.347C1432.79 451.347 1440.11 458.675 1440.11 467.715V468.015C1440.11 476.28 1435.59 483.88 1428.33 487.816L1425.66 488.516L1427.04 491.3H1423.6V490.38V483.952V451.343H1423.76V451.347Z" fill="#FFA86E"/>
<path d="M1418.15 463.06C1418.15 464.964 1416.61 466.505 1414.72 466.505C1412.81 466.505 1411.28 464.964 1411.28 463.06C1411.28 461.16 1412.81 459.616 1414.72 459.616C1416.62 459.616 1418.15 461.156 1418.15 463.06Z" fill="white"/>
<path d="M1451.09 457.961C1442.06 457.961 1434.74 465.289 1434.74 474.33V474.63C1434.74 482.894 1439.26 490.494 1446.52 494.431L1449.19 495.131L1447.81 497.915H1451.25V496.995V490.566V457.957H1451.09V457.961Z" fill="#4FE2EE"/>
<path d="M1442.36 473.119C1444.26 473.119 1445.8 471.577 1445.8 469.675C1445.8 467.772 1444.26 466.23 1442.36 466.23C1440.47 466.23 1438.93 467.772 1438.93 469.675C1438.93 471.577 1440.47 473.119 1442.36 473.119Z" fill="white"/>
<path d="M1395.78 458.379C1386.76 458.379 1379.44 465.707 1379.44 474.748V475.048C1379.44 483.312 1383.96 490.912 1391.22 494.849L1393.88 495.549L1392.51 498.333H1395.95V497.413V490.984V458.375H1395.78V458.379Z" fill="#4FE2EE"/>
<path d="M1396.12 458.379C1405.14 458.379 1412.46 465.707 1412.46 474.748V475.048C1412.46 483.312 1407.94 490.912 1400.69 494.849L1398.02 495.549L1399.39 498.333H1395.95V497.413V490.984V458.375H1396.12V458.379Z" fill="#4DCADF"/>
<path d="M1387.07 473.533C1388.96 473.533 1390.5 471.991 1390.5 470.089C1390.5 468.186 1388.96 466.645 1387.07 466.645C1385.17 466.645 1383.63 468.186 1383.63 470.089C1383.63 471.991 1385.17 473.533 1387.07 473.533Z" fill="white"/>
<path d="M1438.7 554.753H1438.85C1447.11 554.753 1453.8 561.457 1453.8 569.722V570.362H1438.7V554.753Z" fill="#FFBF1F"/>
<path d="M1438.7 554.753H1438.55C1430.29 554.753 1423.6 561.457 1423.6 569.722V570.362H1438.7V554.753Z" fill="#FFCD40"/>
<path d="M1014.9 228.368H1011.02V281.19H1014.9V228.368Z" fill="#00AFFC"/>
<path d="M1037.14 235.221L1010.66 247.197V223.24L1037.14 235.221Z" fill="#D92727"/>
<path d="M133.447 243.709L132.968 243.933L133.99 243.686L133.447 243.709Z" fill="#E58741"/>
<path d="M175.522 177.989L130.866 246.776L198.626 177.801L175.522 177.989Z" fill="#B8D040"/>
<path d="M158.4 178.128L130.866 246.775L175.522 177.988L158.4 178.128Z" fill="#FFD14D"/>
<path d="M198.953 218.092L198.813 201.031L131.228 246.617L198.953 218.092Z" fill="#FFA02E"/>
<path d="M198.814 201.034L198.626 177.801L130.866 246.776L131.229 246.62L198.814 201.034Z" fill="#39CFFF"/>
<path d="M51.6786 353.394C57.6775 344.969 62.4902 336.389 64.6149 326.141C67.4306 312.56 69.192 300.824 77.5033 289.287C85.7587 277.835 95.9313 271.318 108.588 265.566C119.204 260.666 127.18 254.022 134.584 245.073C126.736 253.398 118.509 259.438 107.761 263.582C94.7371 268.522 84.8521 274.406 75.1868 284.571C66.3044 295.667 61.7593 306.396 58.4963 320.148C55.9002 330.853 51.2034 339.297 44.3099 347.766C46.7701 349.642 49.2224 351.518 51.6786 353.394Z" fill="#FFA02E"/>
<path d="M33.257 336.34C40.6937 329.16 46.996 321.607 50.962 311.923C56.214 299.09 60.0921 287.878 70.3764 278.062C80.5849 268.317 91.7799 263.781 105.275 260.449C116.61 257.581 125.664 252.512 134.583 245.076C125.345 251.82 116.151 256.245 104.828 258.345C91.1209 260.809 80.3293 264.781 68.9666 272.997C58.203 282.278 51.7728 291.986 46.0495 304.911C41.5364 314.955 35.3777 322.395 27.0504 329.456C29.1193 331.748 31.1881 334.044 33.257 336.34Z" fill="#F83E3D"/>
<path d="M18.2718 316.191C26.8986 310.499 34.4751 304.231 40.1425 295.438C47.655 283.79 53.5221 273.473 65.428 265.717C77.25 258.013 89.0839 255.609 102.959 254.809C114.625 254.069 124.454 250.752 134.583 245.076C124.266 250.008 114.417 252.672 102.903 252.656C88.9761 252.564 77.6414 254.485 64.9647 260.477C52.6874 267.625 44.5877 275.989 36.5959 287.638C30.3214 296.686 22.9047 302.871 13.4271 308.279C15.0407 310.915 16.6582 313.555 18.2718 316.191Z" fill="#0A98EC"/>
<path d="M218.708 503.811H213.38V627.536H218.708V503.811Z" fill="#39B1FF"/>
<path d="M213.373 503.811H210.957V627.536H213.373V503.811Z" fill="#39B1FF"/>
<path d="M235.518 503.811H230.19V627.536H235.518V503.811Z" fill="#39CFFF"/>
<path d="M230.188 503.811H227.772V627.536H230.188V503.811Z" fill="#39B1FF"/>
<path d="M218.708 503.811H213.38V627.536H218.708V503.811Z" fill="#38BBF4"/>
<path d="M213.373 503.811H210.957V627.536H213.373V503.811Z" fill="#39B1FF"/>
<path d="M235.518 503.811H230.19V627.536H235.518V503.811Z" fill="#39CFFF"/>
<path d="M230.188 503.811H227.772V627.536H230.188V503.811Z" fill="#39B1FF"/>
<path d="M271.211 503.811H265.883V627.536H271.211V503.811Z" fill="#38BBF4"/>
<path d="M265.884 503.811H263.467V627.536H265.884V503.811Z" fill="#39B1FF"/>
<path d="M288.021 503.811H282.693V627.536H288.021V503.811Z" fill="#39CFFF"/>
<path d="M282.695 503.811H280.279V627.536H282.695V503.811Z" fill="#39B1FF"/>
<path d="M279.721 450.808V507.89H259.963H210.957V450.808H279.721Z" fill="#DC4C07"/>
<path d="M204.282 450.809H261.015V416.6H248.343L204.282 450.809Z" fill="#6BA00A"/>
<path d="M223.514 450.809H298.524L261.017 416.6L223.514 450.809Z" fill="#8FD104"/>
<path d="M291.844 450.808V507.89H273.716H230.19V450.808H291.844Z" fill="#FFA02E"/>
<path d="M305.41 484.671C310.622 479.763 317.004 477.707 321.226 479.187C313.154 470.058 301.548 464.79 289.31 464.79H282.712C278.075 466.014 274.385 472.53 274.137 480.519C273.922 487.587 276.23 494.243 279.869 496.843H279.885V496.855C279.905 496.871 279.929 496.887 279.949 496.903H280.088C286.998 496.903 293.344 499.063 299 502.6C296.747 498.183 299.579 490.167 305.41 484.671Z" fill="#39B1FF"/>
<path d="M279.888 496.901H279.952C279.932 496.885 279.908 496.869 279.888 496.854V496.901Z" fill="#DC4C07"/>
<path d="M274.144 480.522C274.388 472.533 278.082 466.017 282.719 464.793H279.896V464.853C279.656 464.825 261.935 464.793 261.691 464.793C256.259 464.793 251.858 471.981 251.858 480.85C251.858 489.718 256.259 496.906 261.691 496.906C261.935 496.906 279.492 496.874 279.88 496.846C276.237 494.246 273.925 487.59 274.144 480.522Z" fill="#39CFFF"/>
<path d="M385.814 521.348C385.571 521.348 385.331 521.38 385.091 521.408V521.348H375.67C375.139 521.348 374.611 521.32 374.084 521.3C370.238 522.284 364.75 529.18 364.702 537.404C364.651 546.273 369.104 553.461 374.535 553.461H385.091V553.401C385.331 553.429 385.571 553.461 385.814 553.461C391.246 553.461 395.647 546.273 395.647 537.404C395.647 528.536 391.246 521.348 385.814 521.348Z" fill="#39B1FF"/>
<path d="M364.698 537.404C364.746 529.179 370.234 522.283 374.08 521.299C366.978 521.015 360.44 518.843 354.681 515.179C349.877 514.535 343.163 518.615 339.177 525.483C335.359 532.063 334.22 539.1 336.493 542.944C344.668 549.776 355.907 553.46 366.447 553.46H374.531C369.099 553.46 364.646 546.268 364.698 537.404Z" fill="#39CFFF"/>
<path d="M339.175 525.483C343.161 518.614 349.879 514.534 354.68 515.178C350.534 512.542 346.788 509.146 343.541 505.118L339.535 500.462C335.313 499.018 328.967 501.074 323.775 505.962C318.898 510.554 316.45 516.322 317.149 520.578L331.523 537.919C332.997 539.747 334.67 541.423 336.491 542.943C334.219 539.095 335.357 532.059 339.175 525.483Z" fill="#39B1FF"/>
<path d="M323.776 505.963C328.964 501.075 335.314 499.019 339.536 500.463L322.494 480.67C322.086 480.162 321.659 479.674 321.228 479.19C317.006 477.71 310.624 479.766 305.412 484.674C299.577 490.166 296.749 498.187 299.01 502.603C303.902 505.663 308.283 509.755 312.038 514.411L317.15 520.58C316.451 516.323 318.899 510.555 323.776 505.963Z" fill="#39CFFF"/>
<path d="M403.696 567.7H398.368V626.611H403.696V567.7Z" fill="#39B1FF"/>
<path d="M398.371 567.7H395.955V626.611H398.371V567.7Z" fill="#39B1FF"/>
<path d="M420.511 567.7H415.183V626.611H420.511V567.7Z" fill="#39CFFF"/>
<path d="M415.186 567.7H412.77V626.611H415.186V567.7Z" fill="#39B1FF"/>
<path d="M330.163 567.695H324.835V626.606H330.163V567.695Z" fill="#39B1FF"/>
<path d="M324.833 567.695H322.417V626.606H324.833V567.695Z" fill="#39B1FF"/>
<path d="M346.973 567.695H341.645V626.606H346.973V567.695Z" fill="#39CFFF"/>
<path d="M341.643 567.695H339.227V626.606H341.643V567.695Z" fill="#39B1FF"/>
<path d="M408.658 514.694V571.777H388.904H322.417V514.694H408.658Z" fill="#DC4C07"/>
<path d="M315.736 514.695H381.212V480.485H361.985L315.736 514.695Z" fill="#6BA00A"/>
<path d="M334.969 514.695H427.464L381.214 480.485L334.969 514.695Z" fill="#8FD104"/>
<path d="M420.782 514.694V571.777H402.654V542.391C402.654 530.651 393.148 521.131 381.426 521.131H380.999C369.277 521.131 359.771 530.647 359.771 542.391V571.777H341.643V514.694H420.782Z" fill="#FFA02E"/>
<path d="M443.237 628.331V608.642L405.522 552.184H402.315L440.026 628.331H443.237Z" fill="#FFD14D"/>
<path d="M440.026 628.331V608.642L402.315 552.184V571.872L440.026 628.331Z" fill="#FCD746"/>
<path d="M407.029 560.974H363.496V578.806H407.029V560.974Z" fill="#FC7E0B"/>
<path d="M408.233 560.974H359.687V562.934H408.233V560.974Z" fill="#F79B08"/>
<path d="M417.631 576.845H374.097V594.677H417.631V576.845Z" fill="#FC7E0B"/>
<path d="M418.833 576.845H370.287V578.805H418.833V576.845Z" fill="#F79B08"/>
<path d="M428.228 592.717H384.694V610.55H428.228V592.717Z" fill="#FC7E0B"/>
<path d="M429.43 592.717H380.884V594.677H429.43V592.717Z" fill="#F79B08"/>
<path d="M438.824 608.593H395.291V626.426H438.824V608.593Z" fill="#FC7E0B"/>
<path d="M440.025 608.593H391.479V610.553H440.025V608.593Z" fill="#F79B08"/>
<path d="M397.498 628.331V608.642L359.783 552.184H356.572L394.287 628.331H397.498Z" fill="#FFD14D"/>
<path d="M394.287 628.331V608.642L356.572 552.184V571.872L394.287 628.331Z" fill="#FCD746"/>
<path d="M287.398 559.881C282.186 554.973 275.804 552.917 271.582 554.397C279.654 545.268 291.26 540 303.498 540H310.095C314.732 541.224 318.423 547.74 318.67 555.729C318.886 562.797 316.578 569.453 312.935 572.053H312.919V572.065C312.895 572.081 312.875 572.097 312.855 572.113H312.711C305.802 572.113 299.456 574.273 293.8 577.81C296.061 573.393 293.233 565.373 287.398 559.881Z" fill="#39B1FF"/>
<path d="M312.919 572.111H312.855C312.875 572.095 312.895 572.079 312.919 572.063V572.111Z" fill="#DC4C07"/>
<path d="M318.672 555.729C318.429 547.74 314.734 541.224 310.097 540H312.921V540.06C313.161 540.032 330.882 540 331.125 540C336.557 540 340.958 547.188 340.958 556.057C340.958 564.925 336.557 572.113 331.125 572.113C330.882 572.113 313.324 572.081 312.937 572.053C316.579 569.453 318.888 562.797 318.672 555.729Z" fill="#39CFFF"/>
<path d="M207.002 596.555C207.245 596.555 207.485 596.587 207.724 596.615V596.555H217.146C217.681 596.555 218.204 596.527 218.732 596.507C222.578 597.487 228.065 604.387 228.113 612.612C228.165 621.48 223.712 628.668 218.28 628.668H207.724V628.608C207.485 628.636 207.245 628.668 207.002 628.668C201.57 628.668 197.168 621.48 197.168 612.612C197.168 603.743 201.57 596.555 207.002 596.555Z" fill="#39B1FF"/>
<path d="M228.112 612.61C228.064 604.385 222.577 597.489 218.73 596.505C225.832 596.221 232.37 594.049 238.129 590.385C242.934 589.741 249.647 593.821 253.633 600.689C257.451 607.27 258.59 614.306 256.317 618.15C248.142 624.982 236.899 628.666 226.363 628.666H218.279C223.711 628.666 228.164 621.478 228.112 612.61Z" fill="#39CFFF"/>
<path d="M253.633 600.691C249.647 593.822 242.933 589.742 238.128 590.386C242.274 587.75 246.016 584.354 249.267 580.326L253.273 575.67C257.495 574.226 263.841 576.282 269.033 581.17C273.91 585.762 276.358 591.53 275.659 595.787L261.289 613.127C259.815 614.955 258.142 616.631 256.32 618.151C258.589 614.307 257.451 607.271 253.633 600.691Z" fill="#39B1FF"/>
<path d="M269.032 581.175C263.844 576.287 257.498 574.231 253.272 575.675L270.315 555.882C270.722 555.374 271.149 554.886 271.577 554.402C275.798 552.922 282.18 554.978 287.393 559.886C293.228 565.378 296.055 573.399 293.795 577.815C288.898 580.875 284.521 584.967 280.767 589.623L275.654 595.791C276.357 591.535 273.909 585.763 269.032 581.175Z" fill="#39CFFF"/>
<path d="M198.209 571.356V628.439H185.01H125.077V571.356H198.209Z" fill="#DC4C07"/>
<path d="M118.399 571.358H177.317V537.148H158.09L118.399 571.358Z" fill="#6BA00A"/>
<path d="M137.629 571.358H217.012L177.32 537.148L137.629 571.358Z" fill="#8FD104"/>
<path d="M210.334 571.356H144.31V628.439H210.334V571.356Z" fill="#FFA02E"/>
<path d="M156.857 599.898C156.857 610.419 165.372 618.947 175.876 618.947C186.38 618.947 194.896 610.419 194.896 599.898C194.896 589.378 186.38 580.85 175.876 580.85C165.372 580.85 156.857 589.378 156.857 599.898Z" fill="#FF3600"/>
<path d="M1421.56 667.909C1421.13 667.989 1420.67 667.989 1420.2 667.989H1326.89C1326.66 667.989 1326.46 667.989 1326.23 667.949C1312.42 667.597 1301.72 654.748 1304.89 640.348C1306.77 631.763 1313.83 624.915 1322.45 623.259C1328.09 622.179 1333.47 623.203 1337.92 625.751C1337.96 605.642 1354.26 589.346 1374.34 589.346C1391.43 589.346 1405.76 601.13 1409.68 617.039C1416.4 614.083 1424.63 613.851 1432.9 617.779C1437.64 620.035 1441.56 623.963 1443.81 628.707C1452.94 648.076 1439.62 667.057 1421.56 667.909Z" fill="#7FAD36"/>
<path d="M1372.64 615.029C1381.1 621.273 1376.05 626.333 1369.81 617.853C1363.58 626.333 1358.53 621.269 1366.99 615.029C1358.53 608.784 1363.58 603.724 1369.81 612.205C1376.05 603.728 1381.1 608.788 1372.64 615.029Z" fill="#47F4FF"/>
<path d="M1371.81 613.031C1382.2 611.451 1382.2 618.607 1371.81 617.027C1373.39 627.436 1366.24 627.436 1367.82 617.027C1357.43 618.607 1357.43 611.451 1367.82 613.031C1366.24 602.622 1373.39 602.622 1371.81 613.031Z" fill="#51E2EE"/>
<path d="M1372.07 615.028C1372.07 616.276 1371.06 617.288 1369.81 617.288C1368.57 617.288 1367.56 616.276 1367.56 615.028C1367.56 613.78 1368.57 612.768 1369.81 612.768C1371.06 612.768 1372.07 613.78 1372.07 615.028Z" fill="#FFD14D"/>
<path d="M1423.57 636.676C1430.69 641.928 1426.44 646.188 1421.2 639.052C1415.95 646.184 1411.7 641.928 1418.82 636.676C1411.7 631.424 1415.95 627.163 1421.2 634.3C1426.44 627.167 1430.69 631.424 1423.57 636.676Z" fill="#47F4FF"/>
<path d="M1422.87 634.996C1431.62 633.668 1431.62 639.688 1422.87 638.36C1424.2 647.116 1418.19 647.116 1419.51 638.36C1410.77 639.688 1410.77 633.668 1419.51 634.996C1418.19 626.24 1424.2 626.24 1422.87 634.996Z" fill="#51E2EE"/>
<path d="M1423.1 636.676C1423.1 637.729 1422.25 638.577 1421.2 638.577C1420.15 638.577 1419.3 637.725 1419.3 636.676C1419.3 635.628 1420.15 634.776 1421.2 634.776C1422.25 634.776 1423.1 635.628 1423.1 636.676Z" fill="#FFD14D"/>
<path d="M1328.51 644.706C1336.31 650.454 1331.65 655.115 1325.91 647.31C1320.17 655.119 1315.52 650.458 1323.31 644.706C1315.52 638.958 1320.17 634.298 1325.91 642.102C1331.65 634.298 1336.31 638.958 1328.51 644.706Z" fill="#47F4FF"/>
<path d="M1327.75 642.868C1337.32 641.412 1337.32 648.004 1327.75 646.548C1329.2 656.133 1322.62 656.133 1324.07 646.548C1314.5 648.004 1314.5 641.412 1324.07 642.868C1322.62 633.284 1329.2 633.284 1327.75 642.868Z" fill="#51E2EE"/>
<path d="M11.305 512.163H-8.98813C-15.2147 512.163 -20.2789 507.086 -20.2789 500.85V495.674H-16.285V500.85C-16.285 504.882 -13.01 508.162 -8.98813 508.162H11.305V512.163Z" fill="#39CFFF"/>
<path d="M31.5994 512.163H11.3063V508.162H31.5994C35.6213 508.162 38.8963 504.882 38.8963 500.85V495.674H42.8902V500.85C42.8902 507.086 37.8259 512.163 31.5994 512.163Z" fill="#39B1FF"/>
<path d="M11.3093 480.152H9.29633V592.013H11.3093V480.152Z" fill="#39CFFF"/>
<path d="M11.2608 458.777V476.79H5.42172L2.7458 472.222C0.281555 468.014 -0.00601667 463.338 1.93103 458.993L1.95899 458.925L11.2608 458.777Z" fill="#FF903E"/>
<path d="M11.1883 458.777V476.79H17.0274L19.7033 472.222C22.1676 468.014 22.4551 463.338 20.5181 458.993L20.4861 458.925L11.1883 458.777Z" fill="#FF9D4D"/>
<path d="M11.2954 483.474H10.3449C8.44377 483.474 6.90212 482.162 6.90212 480.546V477.586H11.2994L11.2954 483.474Z" fill="#00AFFC"/>
<path d="M13.319 480.152H11.3061V592.013H13.319V480.152Z" fill="#39B1FF"/>
<path d="M11.2983 483.474H12.2488C14.1499 483.474 15.6916 482.162 15.6916 480.546V477.586H11.2943L11.2983 483.474Z" fill="#0A98EC"/>
<path d="M11.0726 458.777H9.37923V477.586H11.0726V458.777Z" fill="#00AFFC"/>
<path d="M12.7654 458.777H11.072V477.586H12.7654V458.777Z" fill="#0A98EC"/>
<path d="M5.84406 455.897H1.28301C-0.126841 455.897 -1.26511 456.557 -1.26511 457.37V457.398C-1.26511 458.21 -0.122847 458.87 1.28301 458.87H11.2319V455.897H5.84406Z" fill="#39CFFF"/>
<path d="M23.7277 457.37C23.7277 456.557 22.5855 455.897 21.1796 455.897H16.6186H11.2308V458.87H21.1796C22.5895 458.87 23.7277 458.21 23.7277 457.398V457.37Z" fill="#39B1FF"/>
<path d="M11.2321 455.899H20.0027V455.871C20.0027 454.307 17.8101 453.043 15.1022 453.043H13.8601H11.2281V455.899H11.2321Z" fill="#0A98EC"/>
<path d="M11.2299 453.043H8.59795H7.35584C4.64796 453.043 2.4553 454.311 2.4553 455.871V455.899H11.2299V453.043Z" fill="#00AFFC"/>
<path d="M14.7534 453.041V453.029C14.7534 452.325 13.7669 451.757 12.5487 451.757H11.2308V453.045L14.7534 453.041Z" fill="#39B1FF"/>
<path d="M11.2328 451.754H9.91478C8.69663 451.754 7.71014 452.326 7.71014 453.026V453.038H11.2328V451.754Z" fill="#39CFFF"/>
<path d="M4.82917 595.299H-0.590584C-2.26404 595.299 -3.62196 596.083 -3.62196 597.047V597.083C-3.62196 598.051 -2.26404 598.831 -0.590584 598.831H11.2314V595.295H4.82917V595.299Z" fill="#39CFFF"/>
<path d="M26.0837 597.046C26.0837 596.078 24.7257 595.298 23.0523 595.298H17.6325H11.2303V598.834H23.0523C24.7257 598.834 26.0837 598.05 26.0837 597.086V597.046Z" fill="#39B1FF"/>
<path d="M11.2303 595.295H21.6584V595.263C21.6584 593.407 19.0504 591.903 15.8353 591.903H14.3575H11.2303V595.295Z" fill="#0A98EC"/>
<path d="M11.2336 591.9H8.10637H6.63261C3.41751 591.9 0.809479 593.404 0.809479 595.261V595.293H11.2376L11.2336 591.9Z" fill="#00AFFC"/>
<path d="M15.4205 591.9V591.884C15.4205 591.048 14.2463 590.372 12.8005 590.372H11.2349V591.9H15.4205Z" fill="#39B1FF"/>
<path d="M11.2317 590.372H9.66609C8.22029 590.372 7.04608 591.048 7.04608 591.884V591.9H11.2357L11.2317 590.372Z" fill="#39CFFF"/>
<path d="M11.2585 478.673H7.15671C5.65899 478.673 4.44484 477.641 4.44484 476.369V476.345H11.2545V478.673H11.2585Z" fill="#39CFFF"/>
<path d="M11.259 478.673H15.3607C16.8585 478.673 18.0686 477.641 18.0686 476.369V476.345H11.259V478.673Z" fill="#39B1FF"/>
<path d="M7.626 464.541C7.626 465.965 6.6355 467.117 5.41736 467.117C4.19921 467.117 3.20872 465.965 3.20872 464.541C3.20872 463.117 4.19921 461.965 5.41736 461.965C6.6355 461.965 7.626 463.121 7.626 464.541Z" fill="#FFC44D"/>
<path d="M6.8435 464.543C6.8435 465.463 6.20448 466.207 5.41767 466.207C4.63087 466.207 3.99185 465.463 3.99185 464.543C3.99185 463.623 4.63087 462.879 5.41767 462.879C6.20448 462.879 6.8435 463.627 6.8435 464.543Z" fill="#FFFFC6"/>
<path d="M40.7735 473.142V491.154H34.9344L32.2585 486.586C29.7942 482.378 29.5067 477.702 31.4437 473.358L31.4757 473.29L40.7735 473.142Z" fill="#FF903E"/>
<path d="M40.7031 473.142V491.154H46.5422L49.2181 486.586C51.6824 482.378 51.9699 477.702 50.0329 473.358L50.0009 473.29L40.7031 473.142Z" fill="#FF9D4D"/>
<path d="M40.8083 497.839H39.8578C37.9567 497.839 36.415 496.527 36.415 494.911V491.951H40.8123L40.8083 497.839Z" fill="#00AFFC"/>
<path d="M40.8077 497.839H41.7582C43.6593 497.839 45.201 496.527 45.201 494.911V491.951H40.8037L40.8077 497.839Z" fill="#0A98EC"/>
<path d="M40.5853 473.142H38.8919V491.95H40.5853V473.142Z" fill="#00AFFC"/>
<path d="M42.2781 473.142H40.5847V491.95H42.2781V473.142Z" fill="#0A98EC"/>
<path d="M35.362 470.262H30.8009C29.3911 470.262 28.2488 470.922 28.2488 471.734V471.762C28.2488 472.574 29.3911 473.234 30.8009 473.234H40.7498V470.262H35.362Z" fill="#39CFFF"/>
<path d="M53.2451 471.734C53.2451 470.922 52.1029 470.262 50.697 470.262H46.136H40.7482V473.234H50.697C52.1069 473.234 53.2451 472.574 53.2451 471.762V471.734Z" fill="#39B1FF"/>
<path d="M40.7497 470.262H49.5203V470.234C49.5203 468.67 47.3276 467.406 44.6198 467.406H43.3777H40.7457L40.7497 470.262Z" fill="#0A98EC"/>
<path d="M40.7475 467.406H38.1155H36.8734C34.1655 467.406 31.9729 468.674 31.9729 470.234V470.262H40.7475V467.406Z" fill="#00AFFC"/>
<path d="M44.2708 467.405V467.393C44.2708 466.689 43.2843 466.121 42.0662 466.121H40.7482V467.409H44.2708V467.405Z" fill="#39B1FF"/>
<path d="M40.7455 466.117H39.4275C38.2094 466.117 37.2229 466.689 37.2229 467.389V467.401H40.7455V466.117Z" fill="#39CFFF"/>
<path d="M40.7727 493.04H36.6709C35.1732 493.04 33.9591 492.008 33.9591 490.736V490.712H40.7687V493.04H40.7727Z" fill="#39CFFF"/>
<path d="M40.7719 493.04H44.8736C46.3714 493.04 47.5855 492.008 47.5855 490.736V490.712H40.7759L40.7719 493.04Z" fill="#39B1FF"/>
<path d="M37.1391 478.904C37.1391 480.328 36.1486 481.48 34.9304 481.48C33.7083 481.48 32.7218 480.328 32.7218 478.904C32.7218 477.48 33.7123 476.328 34.9304 476.328C36.1526 476.332 37.1391 477.484 37.1391 478.904Z" fill="#FFC44D"/>
<path d="M36.3577 478.906C36.3577 479.826 35.7187 480.57 34.9319 480.57C34.1451 480.57 33.5061 479.826 33.5061 478.906C33.5061 477.986 34.1451 477.242 34.9319 477.242C35.7187 477.242 36.3577 477.99 36.3577 478.906Z" fill="#FFFFC6"/>
<path d="M1467.64 260.302L1440.56 233.18C1432.83 225.436 1420.26 225.44 1412.53 233.18L1412.22 233.492C1402.94 242.785 1387.84 242.789 1378.55 233.492L1351.84 206.739L1354.66 203.911L1381.37 230.664C1389.11 238.405 1401.68 238.401 1409.4 230.664L1409.71 230.352C1418.99 221.056 1434.09 221.052 1443.39 230.352L1470.46 257.473L1467.64 260.302Z" fill="#39B1FF"/>
<path d="M1270.44 184.36L1369.81 221.762L1301.46 153.299L1270.44 184.36Z" fill="#8FD104"/>
<path d="M1270.44 122.235V184.362L1301.46 153.301L1270.44 122.235Z" fill="#FCD746"/>
<path d="M1369.81 221.764L1332.47 122.235L1301.46 153.301L1369.81 221.764Z" fill="#FFA02E"/>
<path d="M1301.46 153.301L1332.47 122.235H1270.44L1301.46 153.301Z" fill="#39CFFF"/>
<path d="M1378.7 228.56L1373.68 246.096L1361.19 233.584L1378.7 228.56Z" fill="#39B1FF"/>
<path d="M1376.45 230.815L1393.96 225.787L1381.47 213.278L1376.45 230.815Z" fill="#39B1FF"/>
<path d="M1377.45 224.658L1372.27 229.849L1376.83 234.411L1382.01 229.221L1377.45 224.658Z" fill="#39CFFF"/>
<path d="M1415.43 226.787L1424.26 242.74H1406.6L1415.43 226.787Z" fill="#FFA02E"/>
<path d="M1415.43 229.977L1424.26 214.024H1406.6L1415.43 229.977Z" fill="#FFA02E"/>
<path d="M1418.24 224.896H1411.8V232.237H1418.24V224.896Z" fill="#F9920B"/>
<path d="M656.498 633.113C656.498 637.509 634.396 641.073 607.129 641.073C579.863 641.073 557.76 637.509 557.76 633.113C557.76 628.717 579.863 630.901 607.129 630.901C634.396 630.901 656.498 628.717 656.498 633.113Z" fill="#DC4C07"/>
<path d="M656.498 627.722H557.76V632.626H656.498V627.722Z" fill="#DC4C07"/>
<path d="M656.498 627.568C656.498 631.964 634.396 635.528 607.129 635.528C579.863 635.528 557.76 631.964 557.76 627.568C557.76 623.172 579.863 619.607 607.129 619.607C634.396 619.607 656.498 623.172 656.498 627.568Z" fill="#FC7E0B"/>
<path d="M626.488 626.552C626.488 628.276 617.821 629.672 607.13 629.672C596.438 629.672 587.771 628.276 587.771 626.552C587.771 624.828 596.438 625.684 607.13 625.684C617.821 625.684 626.488 624.828 626.488 626.552Z" fill="#0A98EC"/>
<path d="M626.488 581.856H587.771V626.358H626.488V581.856Z" fill="#0A98EC"/>
<path d="M607.13 584.917C617.821 584.917 626.488 583.52 626.488 581.797C626.488 580.074 617.821 578.677 607.13 578.677C596.438 578.677 587.771 580.074 587.771 581.797C587.771 583.52 596.438 584.917 607.13 584.917Z" fill="#FFB600"/>
<path d="M714.663 597.688C714.663 607.264 666.52 615.028 607.131 615.028C547.741 615.028 499.598 607.264 499.598 597.688C499.598 588.111 547.741 592.872 607.131 592.872C666.52 592.872 714.663 588.111 714.663 597.688Z" fill="#F79B08"/>
<path d="M714.663 585.941H499.598V596.626H714.663V585.941Z" fill="#F79B08"/>
<path d="M607.131 602.951C666.519 602.951 714.663 595.187 714.663 585.61C714.663 576.033 666.519 568.27 607.131 568.27C547.742 568.27 499.598 576.033 499.598 585.61C499.598 595.187 547.742 602.951 607.131 602.951Z" fill="#FFB600"/>
<path d="M620.561 585.783C620.561 586.943 614.73 587.883 607.541 587.883C600.351 587.883 594.52 586.943 594.52 585.783C594.52 584.623 600.351 585.199 607.541 585.199C614.73 585.203 620.561 584.627 620.561 585.783Z" fill="#39B1FF"/>
<path d="M620.557 568.25H594.517V585.659H620.557V568.25Z" fill="#39B1FF"/>
<path d="M620.561 568.209C620.561 569.369 614.73 570.31 607.541 570.31C600.351 570.31 594.52 569.369 594.52 568.209C594.52 567.049 600.351 566.109 607.541 566.109C614.73 566.109 620.561 567.049 620.561 568.209Z" fill="#FFB600"/>
<path d="M552.553 554.229L543.926 556.11L543.024 556.31L533.57 554.229H552.553Z" fill="#00AFFC"/>
<path d="M543.023 556.31L541.649 556.611C539.424 557.087 537.447 558.215 535.898 559.743L533.573 559.243V554.234L543.023 556.31Z" fill="#0A98EC"/>
<path d="M594.516 567.654L583.089 570.135L559.832 565.026L557.332 564.474L539 560.442C539.951 559.766 541.025 559.29 542.175 559.038L548.829 557.586L557.332 559.466L559.832 560.018L594.516 567.654Z" fill="#0A98EC"/>
<path d="M680.691 580.93H679.867V580.778L680.691 580.93Z" fill="#39B1FF"/>
<path d="M680.694 580.931H679.87V580.755L680.694 580.931Z" fill="#39CFFF"/>
<path d="M607.345 544.838L561.231 554.882H561.207L559.833 555.182L557.333 555.734L550.331 557.262H550.307L548.834 557.586L542.18 559.038C541.03 559.29 539.955 559.762 539.005 560.442C539.005 560.442 539.005 560.442 538.981 560.442C536.457 562.146 534.831 565.026 534.831 568.207V610.16H532.331V568.207C532.331 564.95 533.681 561.918 535.905 559.742C537.455 558.214 539.432 557.086 541.657 556.61L543.03 556.31L543.929 556.11L552.556 554.23L557.333 553.202L559.833 552.65L601.497 543.558L607.345 544.838Z" fill="#39CFFF"/>
<path d="M657.36 546.091V553.203L654.86 552.651V546.091C654.86 543.259 653.586 540.607 651.385 538.803C649.161 537.022 646.309 536.346 643.533 536.95L613.176 543.563L607.349 544.839L601.497 543.563L607.349 542.287L642.986 534.522C646.513 533.746 650.139 534.598 652.939 536.878C655.735 539.127 657.36 542.483 657.36 546.091Z" fill="#39B1FF"/>
<path d="M654.858 564.924L657.358 564.376V572.44H654.858V564.924Z" fill="#39B1FF"/>
<path d="M679.87 580.931V585.939H654.86L607.145 575.443H607.121L559.405 585.939H534.823V580.931H559.405L595.77 572.939L607.145 570.435L618.475 572.939H618.499L654.86 580.931H679.87Z" fill="#0A98EC"/>
<path d="M675.591 560.368L657.358 564.376L654.858 564.928L631.174 570.137L619.744 567.657L654.854 559.916L657.354 559.364L665.634 557.536L672.511 559.04C673.638 559.292 674.664 559.744 675.591 560.368Z" fill="#0A98EC"/>
<path d="M680.693 554.229V559.238L678.716 559.662C677.191 558.158 675.242 557.082 673.041 556.606L671.467 556.254L670.593 556.054L680.693 554.229Z" fill="#00AFFC"/>
<path d="M679.87 580.757V580.933H654.86L618.499 572.94H618.475L607.145 570.436L595.77 572.94L559.405 580.933H534.823V580.657L583.089 570.136L594.516 567.656L559.833 560.016L557.332 559.468L548.829 557.588L550.303 557.26H550.327L557.332 555.736L559.833 555.183L561.207 554.883H561.231L607.145 564.9L653.286 554.855L654.86 555.183L657.36 555.736L664.162 557.236H664.19L665.64 557.536L657.36 559.364L654.86 559.916L619.749 567.656L631.18 570.136L679.87 580.757Z" fill="#00AFFC"/>
<path d="M680.691 554.229L670.591 556.058H670.563L662.112 554.229H680.691Z" fill="#00AFFC"/>
<path d="M559.831 565.025V572.437H557.331V564.473L559.831 565.025Z" fill="#39B1FF"/>
<path d="M682.37 568.207V610.16H679.87V580.931H680.697L679.87 580.755V568.207C679.87 564.974 678.197 562.046 675.592 560.366C674.666 559.742 673.644 559.29 672.517 559.038L665.64 557.534L664.19 557.234H664.166L657.364 555.73L654.864 555.178L653.286 554.854L607.348 544.834L613.176 543.558L654.864 552.65L657.364 553.202L662.117 554.23L670.568 556.058H670.592L671.467 556.258L673.04 556.61C675.241 557.086 677.19 558.162 678.716 559.666C680.992 561.842 682.37 564.898 682.37 568.207Z" fill="#39CFFF"/>
<path d="M613.17 543.562L607.343 544.838L601.492 543.562L571.158 536.95C568.382 536.35 565.53 537.026 563.306 538.802C561.105 540.606 559.831 543.262 559.831 546.09V552.65L557.331 553.202V546.09C557.331 542.482 558.932 539.126 561.732 536.874C564.56 534.594 568.186 533.741 571.685 534.517L607.347 542.282L613.17 543.562Z" fill="#39B1FF"/>
<path d="M680.69 580.931H679.867V580.755L680.69 580.931Z" fill="#0A98EC"/>
<path d="M1330.52 373.004H1328.01V519.522H1330.52V373.004Z" fill="#39CFFF"/>
<path d="M1333.04 373.004H1330.52V519.522H1333.04V373.004Z" fill="#39B1FF"/>
<path d="M1329.71 363.457C1296.91 363.569 1264.17 380.614 1247.49 414.723C1250.58 411.579 1255.92 409.527 1261.99 409.595C1271.46 409.703 1279.08 414.923 1279.01 421.251C1279.02 419.915 1279.4 418.643 1280.04 417.455C1289.9 381.526 1309.77 363.525 1329.71 363.457Z" fill="#FF7F06"/>
<path d="M1313.43 420.418C1314.41 414.674 1321.74 410.274 1330.59 410.374C1339.39 410.474 1346.58 414.982 1347.5 420.694C1344.59 382.553 1337.13 363.432 1329.72 363.46C1323.22 363.48 1316.77 382.477 1313.43 420.418Z" fill="#FF7F06"/>
<path d="M1364.89 410.766C1372.3 410.85 1378.56 414.066 1380.91 418.486C1371.4 381.813 1350.55 363.388 1329.71 363.46C1337.13 363.432 1344.59 382.553 1347.5 420.695C1347.57 421.135 1347.61 421.579 1347.61 422.031C1347.69 415.698 1355.43 410.658 1364.89 410.766Z" fill="#FFEFAE"/>
<path d="M1329.71 363.457C1309.77 363.525 1289.9 381.526 1280.04 417.455C1282.44 413.027 1288.82 409.899 1296.3 409.983C1305.77 410.091 1313.39 415.307 1313.31 421.635C1313.32 421.223 1313.36 420.815 1313.43 420.415C1316.77 382.478 1323.21 363.481 1329.71 363.457Z" fill="#FFEFAE"/>
<path d="M1399.19 411.155C1405.26 411.223 1410.55 413.391 1413.56 416.595C1397.19 381.141 1363.45 363.345 1329.71 363.461C1350.55 363.389 1371.4 381.813 1380.91 418.487C1381.56 419.719 1381.93 421.039 1381.92 422.419C1381.99 416.087 1389.73 411.047 1399.19 411.155Z" fill="#FF7F06"/>
<path d="M1342.18 519.775H1318.87V523.712H1342.18V519.775Z" fill="#39B1FF"/>
</g>
</svg>
