<svg width="273" height="100" viewBox="0 0 273 100" fill="none" xmlns="http://www.w3.org/2000/svg">
<g clip-path="url(#clip0_212_142526)">
<rect width="273" height="100" fill="#096CF6"/>
<g style="mix-blend-mode:luminosity" opacity="0.25">
<path d="M186.847 41.1719H175.194V64.1735H186.847V41.1719Z" fill="#75BBD9"/>
<path d="M180.868 47.3809H163.759V111.725H180.868V47.3809Z" fill="#8ACDE6"/>
<path d="M239.962 28.5469H225.973V111.726H239.962V28.5469Z" fill="#8ACDE6"/>
<path d="M200.999 31.6592H183.89V111.725H200.999V31.6592Z" fill="#8ACDE6"/>
<path d="M222.911 111.726H205.803V31.6592L222.911 44.3307V111.726Z" fill="#8ACDE6"/>
<path d="M198.041 25.4346H186.847V31.6605H198.041V25.4346Z" fill="#8ACDE6"/>
<path d="M196.022 22.748H188.865V25.4336H196.022V22.748Z" fill="#8ACDE6"/>
<path d="M234.823 15.1045H234.089V33.0791H234.823V15.1045Z" fill="#8ACDE6"/>
<path d="M264.081 44.3311H244.464V76.2934H264.081V44.3311Z" fill="#8ACDE6"/>
<path d="M266.497 56.6602H172.314V111.727H266.497V56.6602Z" fill="#8ACDE6"/>
<path d="M188.865 51.1309H172.634V111.727H188.865V51.1309Z" fill="#87C5E6"/>
<path d="M196.022 51.1309H188.865V111.727H196.022V51.1309Z" fill="#58C5E0"/>
<path d="M232.101 66.6221H214.278V111.726H232.101V66.6221Z" fill="#87C5E6"/>
<path d="M239.96 66.6221H232.101V111.726H239.96V66.6221Z" fill="#58C5E0"/>
<path d="M248.103 41.1719H237.087V111.726H248.103V41.1719Z" fill="#87C5E6"/>
<path d="M252.962 41.1719H248.104V111.726H252.962V41.1719Z" fill="#58C5E0"/>
<path d="M207.856 44.3311H194.108V111.726H207.856V44.3311Z" fill="#87C5E6"/>
<path d="M213.918 44.3311H207.856V111.726H213.918V44.3311Z" fill="#58C5E0"/>
<path d="M200.999 84.1895H177.986V111.726H200.999V84.1895Z" fill="#D9F0F4"/>
<path d="M230.912 80.6025H207.899V111.726H230.912V80.6025Z" fill="#D9F0F4"/>
<path d="M252.476 111.727H238.423V85.3691L252.476 92.8063V111.727Z" fill="#D9F0F4"/>
<path d="M206.486 47.3809H196.022V49.2535H206.486V47.3809Z" fill="#D9F0F4"/>
<path d="M206.486 51.0732H196.022V52.9459H206.486V51.0732Z" fill="#D9F0F4"/>
<path d="M206.486 54.7666H196.022V56.6392H206.486V54.7666Z" fill="#D9F0F4"/>
<path d="M206.486 58.46H196.022V60.3326H206.486V58.46Z" fill="#D9F0F4"/>
<path d="M206.486 62.1523H196.022V64.025H206.486V62.1523Z" fill="#D9F0F4"/>
<path d="M206.486 65.8447H196.022V67.7173H206.486V65.8447Z" fill="#D9F0F4"/>
<path d="M206.486 69.5381H196.022V71.4107H206.486V69.5381Z" fill="#D9F0F4"/>
<path d="M206.486 73.2305H196.022V75.1031H206.486V73.2305Z" fill="#D9F0F4"/>
<path d="M206.486 76.9229H196.022V78.7955H206.486V76.9229Z" fill="#D9F0F4"/>
<path d="M232.555 80.6025H206.255L219.405 68.5391L232.555 80.6025Z" fill="#D9F0F4"/>
<path d="M241.111 44.3311H238.423V45.7914H241.111V44.3311Z" fill="#D9F0F4"/>
<path d="M246.204 44.3311H243.516V45.7914H246.204V44.3311Z" fill="#D9F0F4"/>
<path d="M241.111 47.5869H238.423V49.0473H241.111V47.5869Z" fill="#D9F0F4"/>
<path d="M246.204 47.5869H243.516V49.0473H246.204V47.5869Z" fill="#D9F0F4"/>
<path d="M241.111 50.8447H238.423V52.3051H241.111V50.8447Z" fill="#D9F0F4"/>
<path d="M246.204 50.8447H243.516V52.3051H246.204V50.8447Z" fill="#D9F0F4"/>
<path d="M241.111 54.1016H238.423V55.562H241.111V54.1016Z" fill="#D9F0F4"/>
<path d="M246.204 54.1016H243.516V55.562H246.204V54.1016Z" fill="#D9F0F4"/>
<path d="M241.111 57.3574H238.423V58.8178H241.111V57.3574Z" fill="#D9F0F4"/>
<path d="M246.204 57.3574H243.516V58.8178H246.204V57.3574Z" fill="#D9F0F4"/>
<path d="M241.111 60.6152H238.423V62.0756H241.111V60.6152Z" fill="#D9F0F4"/>
<path d="M246.204 60.6152H243.516V62.0756H246.204V60.6152Z" fill="#D9F0F4"/>
<path d="M241.111 63.8711H238.423V65.3315H241.111V63.8711Z" fill="#D9F0F4"/>
<path d="M246.204 63.8711H243.516V65.3315H246.204V63.8711Z" fill="#D9F0F4"/>
<path d="M241.111 67.1289H238.423V68.5893H241.111V67.1289Z" fill="#D9F0F4"/>
<path d="M246.204 67.1289H243.516V68.5893H246.204V67.1289Z" fill="#D9F0F4"/>
<path d="M241.111 70.3848H238.423V71.8452H241.111V70.3848Z" fill="#D9F0F4"/>
<path d="M246.204 70.3848H243.516V71.8452H246.204V70.3848Z" fill="#D9F0F4"/>
<path d="M241.111 73.6416H238.423V75.102H241.111V73.6416Z" fill="#D9F0F4"/>
<path d="M246.204 73.6416H243.516V75.102H246.204V73.6416Z" fill="#D9F0F4"/>
<path d="M241.111 76.8994H238.423V78.3598H241.111V76.8994Z" fill="#D9F0F4"/>
<path d="M246.204 76.8994H243.516V78.3598H246.204V76.8994Z" fill="#D9F0F4"/>
<path d="M241.111 80.1553H238.423V81.6157H241.111V80.1553Z" fill="#D9F0F4"/>
<path d="M246.204 80.1553H243.516V81.6157H246.204V80.1553Z" fill="#D9F0F4"/>
<path d="M178.434 54.0068H174.003V58.3675H178.434V54.0068Z" fill="#D9F0F4"/>
<path d="M178.434 68.498H174.003V72.8587H178.434V68.498Z" fill="#D9F0F4"/>
<path d="M185.839 62.3428H181.409V66.7035H185.839V62.3428Z" fill="#D9F0F4"/>
<path d="M185.839 76.834H181.409V81.1947H185.839V76.834Z" fill="#D9F0F4"/>
<path d="M202.562 84.0527H176.982V86.3622H202.562V84.0527Z" fill="#EEFCFF"/>
<path d="M285.743 69.9473H264.162V106.966H285.743V69.9473Z" fill="#8ACDE6"/>
<path d="M165.006 75.3936H143.425V112.412H165.006V75.3936Z" fill="#8ACDE6"/>
<path d="M145.883 44.25H127.646V109.133H145.883V44.25Z" fill="#8ACDE6"/>
<path d="M118.138 59.5527H99.9023V124.435H118.138V59.5527Z" fill="#8ACDE6"/>
<path d="M19.8858 118.031H0V114.049C0 103.026 8.81399 94.0898 19.6875 94.0898H19.8866L19.8858 118.031Z" fill="#86E286"/>
<path d="M19.8856 118.031H39.7714V114.049C39.7714 103.026 30.9574 94.0898 20.0839 94.0898H19.8848L19.8856 118.031Z" fill="#75D875"/>
<path d="M35.138 110.693H31.2764L33.594 85.9805H35.138V110.693Z" fill="#D8AF8B"/>
<path d="M35.1382 110.693H38.9998L36.683 85.9805H35.1382V110.693Z" fill="#CEA282"/>
<path d="M35.9109 91.7729H35.7913C29.2465 91.7729 23.9409 86.4673 23.9409 79.9226V79.6636C23.9409 70.8677 27.5091 65.9235 33.8301 59.8065L35.9109 57.793V91.7729Z" fill="#86E286"/>
<path d="M35.9106 91.7729H36.0303C42.575 91.7729 47.8806 86.4673 47.8806 79.9226V79.6636C47.8806 70.8677 44.3124 65.9235 37.9914 59.8065L35.9106 57.793V91.7729Z" fill="#75D875"/>
<path d="M71.6663 105.794H68.9209L70.5682 88.2246H71.6663V105.794Z" fill="#D8AF8B"/>
<path d="M71.6665 105.794H74.4119L72.7647 88.2246H71.6665V105.794Z" fill="#CEA282"/>
<path d="M72.2155 92.3425H72.1303C67.477 92.3425 63.7056 88.5702 63.7056 83.9178V83.7334C63.7056 77.4804 66.2428 73.9647 70.7363 69.6163L72.2155 68.1846V92.3425Z" fill="#86E286"/>
<path d="M72.2153 92.3425H72.3006C76.9538 92.3425 80.7253 88.5702 80.7253 83.9178V83.7334C80.7253 77.4804 78.188 73.9647 73.6946 69.6163L72.2153 68.1846V92.3425Z" fill="#75D875"/>
<path d="M53.9862 128.089H29.2734V123.208C29.2734 109.696 40.2272 98.7422 53.7395 98.7422H53.9862V128.089Z" fill="#86E286"/>
<path d="M53.9863 128.089H78.6991V123.208C78.6991 109.696 67.7453 98.7422 54.2338 98.7422H53.9863V128.089Z" fill="#75D875"/>
<path d="M94.5165 114.399H73.5063V110.25C73.5063 98.7615 82.8186 89.4492 94.3067 89.4492H94.5165V114.399Z" fill="#86E286"/>
<path d="M94.5166 114.399H115.528V110.25C115.528 98.7615 106.215 89.4492 94.7272 89.4492H94.5174L94.5166 114.399Z" fill="#75D875"/>
<path d="M168.961 112.765H154.368V109.883C154.368 101.904 160.836 95.4365 168.815 95.4365H168.961V112.765Z" fill="#86E286"/>
<path d="M168.96 112.765H183.553V109.883C183.553 101.904 177.085 95.4365 169.106 95.4365H168.96V112.765Z" fill="#75D875"/>
<path d="M135.861 115.475H111.148V110.594C111.148 97.0817 122.102 86.1279 135.614 86.1279H135.861V115.475Z" fill="#86E286"/>
<path d="M135.861 115.475H160.574V110.594C160.574 97.0817 149.62 86.1279 136.108 86.1279H135.861V115.475Z" fill="#75D875"/>
<path d="M260.822 106.787H246.229V103.905C246.229 95.9257 252.697 89.458 260.676 89.458H260.822V106.787Z" fill="#86E286"/>
<path d="M260.822 106.787H275.414V103.905C275.414 95.9257 268.947 89.458 260.968 89.458H260.822V106.787Z" fill="#75D875"/>
<path d="M58.6091 51.1996H81.196C83.5677 51.1996 85.4912 49.277 85.4912 46.9045V46.8176C85.4912 44.4459 83.5686 42.5225 81.196 42.5225H58.6091C56.2374 42.5225 54.314 44.4451 54.314 46.8176V46.9045C54.314 49.277 56.2366 51.1996 58.6091 51.1996Z" fill="#EEFCFF"/>
<path d="M63.1672 46.7875H75.4601C77.8318 46.7875 79.7552 44.8649 79.7552 42.4924V42.4055C79.7552 40.0338 77.8326 38.1104 75.4601 38.1104H63.1672C60.7955 38.1104 58.8721 40.033 58.8721 42.4055V42.4924C58.8729 44.8641 60.7955 46.7875 63.1672 46.7875Z" fill="#EEFCFF"/>
<path d="M67.5798 42.5961H68.4018C70.7735 42.5961 72.6969 40.6735 72.6969 38.3009V38.2141C72.6969 35.8424 70.7743 33.9189 68.4018 33.9189H67.5798C65.2081 33.9189 63.2847 35.8416 63.2847 38.2141V38.3018C63.2847 40.6735 65.2073 42.5961 67.5798 42.5961Z" fill="#EEFCFF"/>
<path d="M142.968 22.7482H119.021C116.506 22.7482 114.468 20.7092 114.468 18.1949V18.1031C114.468 15.588 116.507 13.5498 119.021 13.5498H142.968C145.484 13.5498 147.522 15.5888 147.522 18.1031V18.1949C147.522 20.71 145.484 22.7482 142.968 22.7482Z" fill="#EEFCFF"/>
<path d="M138.135 18.0714H125.102C122.587 18.0714 120.549 16.0324 120.549 13.5181V13.4263C120.549 10.9112 122.588 8.87305 125.102 8.87305H138.135C140.65 8.87305 142.688 10.912 142.688 13.4263V13.5181C142.689 16.0324 140.65 18.0714 138.135 18.0714Z" fill="#EEFCFF"/>
<path d="M133.458 13.6271H132.586C130.071 13.6271 128.033 11.5881 128.033 9.07378V8.98199C128.033 6.46687 130.072 4.42871 132.586 4.42871H133.458C135.973 4.42871 138.011 6.46769 138.011 8.98199V9.07378C138.011 11.5889 135.972 13.6271 133.458 13.6271Z" fill="#EEFCFF"/>
<path d="M202.727 8.48079H189.32C187.912 8.48079 186.77 7.33919 186.77 5.93125V5.87962C186.77 4.47168 187.912 3.33008 189.32 3.33008H202.727C204.135 3.33008 205.277 4.47168 205.277 5.87962V5.93125C205.276 7.34001 204.135 8.48079 202.727 8.48079Z" fill="#EEFCFF"/>
<path d="M200.021 5.86165H192.724C191.316 5.86165 190.174 4.72005 190.174 3.31211V3.26048C190.174 1.85254 191.316 0.710938 192.724 0.710938H200.021C201.429 0.710938 202.57 1.85254 202.57 3.26048V3.31211C202.57 4.72005 201.429 5.86165 200.021 5.86165Z" fill="#EEFCFF"/>
<path d="M197.402 3.37337H196.914C195.506 3.37337 194.365 2.23177 194.365 0.82383V0.772197C194.365 -0.635747 195.506 -1.77734 196.914 -1.77734H197.402C198.81 -1.77734 199.951 -0.635747 199.951 0.772197V0.82383C199.951 2.23259 198.81 3.37337 197.402 3.37337Z" fill="#EEFCFF"/>
</g>
</g>
<defs>
<clipPath id="clip0_212_142526">
<rect width="273" height="100" fill="white"/>
</clipPath>
</defs>
</svg>
