<svg width="32" height="32" viewBox="0 0 32 32" fill="none" xmlns="http://www.w3.org/2000/svg">
<path fill-rule="evenodd" clip-rule="evenodd" d="M23.6023 0.640301C23.7218 0.448491 23.8954 0.296393 24.1012 0.203228C24.3071 0.110062 24.5359 0.0800115 24.7589 0.116873L30.6355 1.09744C30.9342 1.14728 31.201 1.31371 31.3772 1.56015C31.5533 1.80659 31.6244 2.11289 31.5749 2.41173L30.5966 8.29059C30.5593 8.51344 30.4567 8.72022 30.3019 8.88481C30.1471 9.04939 29.9469 9.16439 29.7268 9.21527C29.5066 9.26615 29.2763 9.25063 29.065 9.17066C28.8537 9.0907 28.6708 8.94989 28.5395 8.76602L26.9532 6.54887L18.784 11.7694C18.4357 11.9924 18.0184 12.0818 17.6093 12.0213C17.2002 11.9609 16.8267 11.7545 16.5577 11.4403L12.0023 6.11459L3.48345 10.4917C3.07911 10.6997 2.60873 10.7384 2.17579 10.5996C1.74285 10.4607 1.38281 10.1555 1.17488 9.75116C0.966952 9.34682 0.928162 8.87644 1.06705 8.4435C1.20593 8.01055 1.51111 7.65052 1.91545 7.44259L11.6412 2.44373C11.9845 2.26733 12.3774 2.21199 12.7561 2.28665C13.1349 2.36132 13.4773 2.56163 13.728 2.85516L18.1943 8.07802L24.96 3.75344L23.6412 1.90887C23.51 1.72493 23.4364 1.50626 23.4295 1.28048C23.4225 1.05469 23.4827 0.831921 23.6023 0.640301ZM8.64002 11.8632L2.00688 15.6574C1.74484 15.8071 1.52695 16.0233 1.37524 16.2842C1.22354 16.5451 1.14338 16.8414 1.14288 17.1432V30.286C1.14288 31.2323 1.91088 32.0003 2.85717 32.0003H8.64002V11.8632ZM11.4972 32.0003H19.8812V16.43L16.112 18.3134L12.3452 11.7214C12.1545 11.3865 11.8566 11.1257 11.4995 10.9809L11.4972 32.0003ZM29.1429 32.0003H22.7383V15.0014L28.3772 12.1809C28.6385 12.0504 28.9289 11.9889 29.2207 12.0021C29.5125 12.0154 29.7961 12.103 30.0446 12.2566C30.293 12.4103 30.4981 12.6249 30.6403 12.88C30.7825 13.1352 30.8572 13.4225 30.8572 13.7146V30.286C30.8572 30.7407 30.6766 31.1767 30.3551 31.4982C30.0336 31.8197 29.5975 32.0003 29.1429 32.0003Z" fill="white"/>
</svg>
