<svg width="411" height="305" viewBox="0 0 411 305" fill="none" xmlns="http://www.w3.org/2000/svg">
<path fill-rule="evenodd" clip-rule="evenodd" d="M205.5 0C318.994 0 411 92.0046 411 205.499C411 234.203 405.111 261.532 394.48 286.344C365.178 281.332 291.621 277.78 205.5 277.78C119.379 277.78 45.8221 281.332 16.5199 286.344C5.88935 261.532 0 234.204 0 205.499C0 92.0046 92.0057 0 205.5 0Z" fill="#DAE9FE"/>
<path fill-rule="evenodd" clip-rule="evenodd" d="M205.5 277.777C317.369 277.777 408.054 283.773 408.054 291.171C408.054 298.568 317.369 304.563 205.5 304.563C93.631 304.563 2.94458 298.568 2.94458 291.171C2.94458 283.773 93.631 277.777 205.5 277.777Z" fill="#0751B9"/>
<path fill-rule="evenodd" clip-rule="evenodd" d="M172.647 277.955C169.662 275.036 166.624 270.708 168.762 266.433C172.493 258.972 182.499 274.063 182.499 274.063C182.499 274.063 180.803 259.48 190.808 256.936C200.814 254.393 191.147 274.063 191.147 274.063C191.147 274.063 202.678 265.756 204.204 273.047C204.625 275.055 202.753 276.599 199.823 277.784C190.597 277.801 181.527 277.858 172.647 277.955Z" fill="#0751B9"/>
<path fill-rule="evenodd" clip-rule="evenodd" d="M241.872 278.299C241.145 277.639 232.906 274.578 227.728 268.335C221.617 260.964 219.402 250.819 233.535 259.038C239.06 262.249 245.63 270.086 245.63 270.086C245.63 270.086 237.999 248.04 245.968 246.175C253.939 244.309 251.905 269.408 251.905 269.408C251.905 269.408 275.308 239.9 285.652 244.649C295.996 249.398 263.437 270.256 263.437 270.256C263.437 270.256 288.368 259.913 292.438 267.713C294.778 272.198 279.123 276.234 265.393 278.855C257.781 278.638 249.93 278.452 241.872 278.299Z" fill="#054194"/>
<path fill-rule="evenodd" clip-rule="evenodd" d="M64.5999 281.55C64.5999 281.55 30.1685 259.576 33.7287 248.214C37.2899 236.852 57.301 262.628 57.301 262.628C57.301 262.628 44.5836 232.105 57.8102 231.086C71.0378 230.069 69.3422 259.576 69.3422 259.576C69.3422 259.576 75.9555 232.952 83.5872 238.039C91.2168 243.126 81.8906 259.236 81.8906 259.236C81.8906 259.236 102.241 239.394 110.213 246.179C118.181 252.962 90.5407 267.207 90.5407 267.207C90.5407 267.207 131.071 258.049 130.223 267.037C129.792 271.588 116.798 276.529 102.135 279.651C88.5134 280.187 75.9204 280.825 64.6031 281.55H64.5999Z" fill="#054194"/>
<path fill-rule="evenodd" clip-rule="evenodd" d="M349.132 281.729C349.132 281.729 328.906 272.056 330.602 261.033C332.297 250.011 349.595 267.817 349.595 267.817C349.595 267.817 340.437 246.28 351.122 242.889C361.806 239.497 360.278 270.191 360.278 270.191C360.278 270.191 365.873 246.959 377.576 249.164C389.278 251.369 365.197 273.752 365.197 273.752C373.582 267.244 395.952 266.621 396.873 271.537C397.52 274.991 384.603 282.518 369.533 283.315C363.356 282.752 356.538 282.223 349.14 281.73L349.132 281.729Z" fill="#0751B9"/>
<path fill-rule="evenodd" clip-rule="evenodd" d="M45.5413 282.954C30.6223 279.467 32.9546 261.024 49.5086 275.946C49.5086 275.946 55.7838 262.549 62.5662 267.298C67.2521 270.577 64.5721 278.63 57.4709 282.031C53.291 282.326 49.3077 282.635 45.5413 282.954Z" fill="#0751B9"/>
</svg>
