<svg width="411" height="310" viewBox="0 0 411 310" fill="none" xmlns="http://www.w3.org/2000/svg">
<g clip-path="url(#clip0_330_29719)">
<rect width="411" height="310" fill="white"/>
<path fill-rule="evenodd" clip-rule="evenodd" d="M205.092 30C308.42 30 392.185 113.763 392.185 217.091C392.185 243.224 386.823 268.105 377.144 290.694C350.467 286.132 283.499 282.897 205.092 282.897C126.686 282.897 59.7176 286.132 33.0402 290.694C23.3618 268.105 18 243.225 18 217.091C18 113.763 101.764 30 205.092 30Z" fill="#DAE9FE"/>
<path fill-rule="evenodd" clip-rule="evenodd" d="M205.092 282.896C306.94 282.896 389.503 288.354 389.503 295.089C389.503 301.823 306.94 307.282 205.092 307.282C103.244 307.282 20.6807 301.823 20.6807 295.089C20.6807 288.354 103.244 282.896 205.092 282.896Z" fill="#0751B9"/>
<path fill-rule="evenodd" clip-rule="evenodd" d="M175.182 283.056C172.464 280.399 169.698 276.459 171.645 272.567C175.042 265.774 184.151 279.513 184.151 279.513C184.151 279.513 182.607 266.236 191.717 263.92C200.826 261.605 192.024 279.513 192.024 279.513C192.024 279.513 202.523 271.951 203.912 278.588C204.296 280.416 202.591 281.822 199.924 282.901C191.524 282.916 183.266 282.968 175.182 283.056Z" fill="#0751B9"/>
<path fill-rule="evenodd" clip-rule="evenodd" d="M238.207 283.371C237.545 282.769 230.043 279.983 225.33 274.299C219.766 267.588 217.749 258.352 230.616 265.834C235.646 268.758 241.628 275.893 241.628 275.893C241.628 275.893 234.68 255.822 241.936 254.123C249.193 252.425 247.34 275.276 247.34 275.276C247.34 275.276 268.647 248.411 278.065 252.735C287.482 257.058 257.839 276.048 257.839 276.048C257.839 276.048 280.537 266.631 284.243 273.733C286.373 277.816 272.121 281.49 259.62 283.877C252.69 283.679 245.543 283.51 238.207 283.371Z" fill="#054194"/>
<path fill-rule="evenodd" clip-rule="evenodd" d="M76.8132 286.33C76.8132 286.33 45.466 266.325 48.7073 255.98C51.9495 245.636 70.168 269.103 70.168 269.103C70.168 269.103 58.5898 241.314 70.6316 240.387C82.6744 239.46 81.1307 266.325 81.1307 266.325C81.1307 266.325 87.1516 242.085 94.0997 246.716C101.046 251.348 92.5551 266.015 92.5551 266.015C92.5551 266.015 111.082 247.95 118.34 254.127C125.595 260.303 100.43 273.272 100.43 273.272C100.43 273.272 137.33 264.934 136.558 273.117C136.166 277.26 124.336 281.759 110.987 284.601C98.5847 285.089 87.1197 285.67 76.8161 286.33H76.8132Z" fill="#054194"/>
<path fill-rule="evenodd" clip-rule="evenodd" d="M335.858 286.493C335.858 286.493 317.444 277.686 318.988 267.651C320.532 257.616 336.28 273.827 336.28 273.827C336.28 273.827 327.942 254.219 337.67 251.132C347.397 248.044 346.006 275.989 346.006 275.989C346.006 275.989 351.1 254.838 361.755 256.845C372.409 258.852 350.484 279.231 350.484 279.231C358.118 273.306 378.485 272.739 379.323 277.214C379.912 280.358 368.152 287.212 354.432 287.937C348.808 287.425 342.601 286.943 335.866 286.494L335.858 286.493Z" fill="#0751B9"/>
<path fill-rule="evenodd" clip-rule="evenodd" d="M59.4617 287.608C45.8791 284.434 48.0026 267.643 63.0737 281.228C63.0737 281.228 68.7868 269.032 74.9616 273.355C79.2278 276.341 76.7879 283.672 70.3228 286.768C66.5173 287.037 62.8908 287.318 59.4617 287.608Z" fill="#0751B9"/>
<path d="M132.96 281.999C150.766 254.709 158.708 232.156 164.536 200.615L183.588 284.937C184.307 288.117 181.838 291.124 178.578 291.037L137.039 289.937C133.06 289.832 130.785 285.332 132.96 281.999Z" fill="#FFBC01" stroke="black" stroke-width="2.5"/>
<path d="M273.03 281.638C260.014 261.988 252.987 246.954 247.85 227.641C246.473 222.467 238.688 222.266 237.352 227.451L222.67 284.407C221.84 287.624 224.322 290.741 227.644 290.653L268.98 289.558C272.958 289.453 275.228 284.955 273.03 281.638Z" fill="#FFBC01" stroke="black" stroke-width="2.5"/>
<path d="M178.757 237.874H192.062C196.894 237.874 200.812 241.792 200.812 246.624V286.514C200.811 291.346 196.894 295.264 192.062 295.264H162.755C162.736 295.26 162.712 295.255 162.686 295.249C162.576 295.223 162.405 295.175 162.194 295.096C161.771 294.936 161.195 294.649 160.616 294.147C159.5 293.18 158.205 291.267 158.205 287.416C158.205 285.132 159.007 283.523 160.086 282.355C161.615 280.7 163.616 278.817 165.166 276.865C166.753 274.867 168.08 272.562 168.281 269.816L170.03 245.983C170.366 241.412 174.173 237.874 178.757 237.874ZM162.816 295.275C162.818 295.276 162.818 295.276 162.818 295.276C162.818 295.276 162.816 295.276 162.812 295.275C162.814 295.276 162.815 295.275 162.816 295.275Z" fill="#FFD8BD" stroke="black" stroke-width="2.5"/>
<path d="M225.366 237.874H212.062C207.229 237.874 203.312 241.792 203.312 246.624V286.514C203.312 291.346 207.229 295.264 212.062 295.264H241.368C241.387 295.26 241.411 295.255 241.438 295.249C241.548 295.223 241.718 295.175 241.929 295.096C242.352 294.936 242.929 294.649 243.507 294.147C244.623 293.18 245.918 291.267 245.918 287.416C245.918 285.132 245.116 283.523 244.037 282.355C242.508 280.7 240.507 278.817 238.957 276.865C237.37 274.867 236.044 272.562 235.842 269.816L234.093 245.983C233.757 241.412 229.95 237.874 225.366 237.874ZM241.307 295.275C241.306 295.276 241.305 295.276 241.305 295.276C241.305 295.276 241.307 295.276 241.311 295.275C241.309 295.276 241.308 295.275 241.307 295.275Z" fill="#FFD8BD" stroke="black" stroke-width="2.5"/>
<mask id="path-12-inside-1_330_29719" fill="white">
<path d="M192.062 236.3C197.585 236.3 202.062 240.777 202.062 246.3V267.236C189.094 270.116 181.378 270.115 167.189 267.332L168.452 245.717C168.76 240.429 173.138 236.3 178.434 236.3H192.062Z"/>
</mask>
<path d="M192.062 236.3C197.585 236.3 202.062 240.777 202.062 246.3V267.236C189.094 270.116 181.378 270.115 167.189 267.332L168.452 245.717C168.76 240.429 173.138 236.3 178.434 236.3H192.062Z" fill="#FF4A3D"/>
<path d="M192.062 236.3L192.062 233.8H192.062V236.3ZM202.062 267.236L202.604 269.677L204.562 269.242V267.236H202.062ZM167.189 267.332L164.693 267.186L164.566 269.365L166.708 269.785L167.189 267.332ZM168.452 245.717L170.947 245.863L170.947 245.862L168.452 245.717ZM178.434 236.3L178.434 233.8L178.434 233.8L178.434 236.3ZM192.062 236.3L192.062 238.8C196.204 238.8 199.562 242.158 199.562 246.3H202.062H204.562C204.562 239.396 198.965 233.8 192.062 233.8L192.062 236.3ZM202.062 246.3H199.562V267.236H202.062H204.562V246.3H202.062ZM202.062 267.236L201.52 264.796C188.921 267.593 181.556 267.603 167.67 264.879L167.189 267.332L166.708 269.785C181.201 272.628 189.266 272.638 202.604 269.677L202.062 267.236ZM167.189 267.332L169.685 267.478L170.947 245.863L168.452 245.717L165.956 245.571L164.693 267.186L167.189 267.332ZM168.452 245.717L170.947 245.862C171.179 241.897 174.462 238.8 178.434 238.8L178.434 236.3L178.434 233.8C171.814 233.8 166.342 238.962 165.956 245.571L168.452 245.717ZM178.434 236.3V238.8H192.062V236.3V233.8H178.434V236.3Z" fill="black" mask="url(#path-12-inside-1_330_29719)"/>
<mask id="path-14-inside-2_330_29719" fill="white">
<path d="M212.062 243.447C206.539 243.447 202.062 247.925 202.062 253.447V267.706C215.03 269.964 222.745 269.963 236.934 267.78L235.811 252.705C235.422 247.485 231.074 243.447 225.839 243.447H212.062Z"/>
</mask>
<path d="M212.062 243.447C206.539 243.447 202.062 247.925 202.062 253.447V267.706C215.03 269.964 222.745 269.963 236.934 267.78L235.811 252.705C235.422 247.485 231.074 243.447 225.839 243.447H212.062Z" fill="#FF4A3D"/>
<path d="M202.062 253.447L199.562 253.447L199.562 253.447L202.062 253.447ZM202.062 267.706L201.633 270.169L199.562 269.808V267.706H202.062ZM236.934 267.78L239.427 267.595L239.599 269.9L237.314 270.251L236.934 267.78ZM235.811 252.705L233.318 252.891L233.318 252.891L235.811 252.705ZM225.839 243.447L225.839 240.947L225.839 240.947L225.839 243.447ZM212.062 243.447V245.947C207.92 245.947 204.562 249.305 204.562 253.447L202.062 253.447L199.562 253.447C199.562 246.544 205.158 240.947 212.062 240.947V243.447ZM202.062 253.447H204.562V267.706H202.062H199.562V253.447H202.062ZM202.062 267.706L202.491 265.243C215.165 267.45 222.605 267.455 236.554 265.309L236.934 267.78L237.314 270.251C222.885 272.471 214.895 272.478 201.633 270.169L202.062 267.706ZM236.934 267.78L234.441 267.966L233.318 252.891L235.811 252.705L238.304 252.519L239.427 267.595L236.934 267.78ZM235.811 252.705L233.318 252.891C233.026 248.975 229.765 245.947 225.839 245.947L225.839 243.447L225.839 240.947C232.383 240.948 237.818 245.994 238.304 252.519L235.811 252.705ZM225.839 243.447V245.947H212.062V243.447V240.947H225.839V243.447Z" fill="black" mask="url(#path-14-inside-2_330_29719)"/>
<path d="M215.702 197.196C215.804 197.714 215.949 198.432 216.137 199.321C216.551 201.28 217.174 204.071 218.004 207.386C219.667 214.023 222.159 222.743 225.481 231.119C228.813 239.522 232.935 247.458 237.808 252.623C240.237 255.198 242.8 257.028 245.487 257.92C248.146 258.804 251 258.795 254.103 257.575C257.234 256.343 259.277 254.404 260.523 251.964C261.783 249.494 262.27 246.423 262.11 242.89C261.788 235.801 258.876 227.203 255.049 218.801C251.235 210.427 246.571 202.371 242.852 196.4C240.995 193.416 239.376 190.958 238.223 189.247C237.71 188.486 237.289 187.873 236.98 187.427L215.702 197.196Z" fill="#FF4A3D" stroke="black" stroke-width="2.5"/>
<path d="M231.234 190.114C231.33 190.307 231.445 190.538 231.574 190.807C232.002 191.696 232.605 192.99 233.299 194.593C234.688 197.802 236.436 202.242 237.881 207.179C239.327 212.121 240.458 217.52 240.635 222.655C240.812 227.8 240.029 232.574 237.758 236.36C233.737 243.063 228.745 247.546 222.837 250.359C216.912 253.181 209.99 254.359 202.067 254.326C194.205 254.293 187.32 253.11 181.444 250.302C175.588 247.503 170.662 243.056 166.752 236.372C164.516 232.549 163.838 227.762 164.159 222.612C164.48 217.472 165.791 212.08 167.417 207.149C169.04 202.225 170.964 197.802 172.483 194.607C173.242 193.011 173.899 191.725 174.365 190.84C174.515 190.555 174.647 190.313 174.754 190.114H231.234Z" fill="#FF4A3D" stroke="black" stroke-width="2.5"/>
<path d="M237.279 187.34L244.412 198.614C244.392 198.617 244.372 198.622 244.352 198.625C243.589 198.747 242.481 198.923 241.097 199.133C238.328 199.553 234.456 200.113 230.046 200.672C221.217 201.792 210.263 202.904 201.684 202.896C193.476 202.889 182.994 201.852 174.545 200.812C170.325 200.293 166.62 199.774 163.97 199.385C162.651 199.191 161.593 199.029 160.864 198.916L168.355 187.34H237.279Z" fill="#FFBC01" stroke="black" stroke-width="1.5"/>
<mask id="path-19-inside-3_330_29719" fill="white">
<path d="M205.944 5.57699C208.132 3.4771 211.566 3.40246 213.841 5.41156C216.903 8.11676 219.173 10.7329 220.83 13.8611C222.446 16.9112 223.441 20.3779 224.084 24.7665C229.01 21.7816 233.211 20.0287 237.45 19.5047C241.784 18.9693 246.031 19.7321 250.985 21.563C253.829 22.6142 255.381 25.6664 254.59 28.5817C253.132 33.9479 251.277 37.9327 247.927 42.8654C282.527 58.8083 304.082 92.7547 297.903 127.798C294.105 149.334 279.079 166.752 259.75 179.059C240.407 191.374 216.486 198.759 194.292 200.137L193.7 200.174L193.154 199.94C172.91 191.27 152.955 176.144 138.954 157.903C124.964 139.676 116.721 118.06 120.519 96.5203C126.717 61.3717 158.756 36.8028 196.872 33.7749C196.665 33.2456 196.531 32.6789 196.484 32.0861C196.008 26.1239 196.355 21.3905 197.866 17.1707C199.38 12.9409 202.024 9.34101 205.944 5.57699ZM160.976 46.673L160.977 46.6732L160.976 46.673Z"/>
</mask>
<path d="M205.944 5.57699C208.132 3.4771 211.566 3.40246 213.841 5.41156C216.903 8.11676 219.173 10.7329 220.83 13.8611C222.446 16.9112 223.441 20.3779 224.084 24.7665C229.01 21.7816 233.211 20.0287 237.45 19.5047C241.784 18.9693 246.031 19.7321 250.985 21.563C253.829 22.6142 255.381 25.6664 254.59 28.5817C253.132 33.9479 251.277 37.9327 247.927 42.8654C282.527 58.8083 304.082 92.7547 297.903 127.798C294.105 149.334 279.079 166.752 259.75 179.059C240.407 191.374 216.486 198.759 194.292 200.137L193.7 200.174L193.154 199.94C172.91 191.27 152.955 176.144 138.954 157.903C124.964 139.676 116.721 118.06 120.519 96.5203C126.717 61.3717 158.756 36.8028 196.872 33.7749C196.665 33.2456 196.531 32.6789 196.484 32.0861C196.008 26.1239 196.355 21.3905 197.866 17.1707C199.38 12.9409 202.024 9.34101 205.944 5.57699ZM160.976 46.673L160.977 46.6732L160.976 46.673Z" fill="#FF4A3D"/>
<path d="M205.944 5.57699L204.213 3.77339L204.212 3.77364L205.944 5.57699ZM213.841 5.41156L215.496 3.53787L215.496 3.53785L213.841 5.41156ZM220.83 13.8611L223.039 12.6906L223.039 12.6905L220.83 13.8611ZM224.084 24.7665L221.61 25.1285L222.156 28.8576L225.379 26.9047L224.084 24.7665ZM237.45 19.5047L237.144 17.0236L237.144 17.0236L237.45 19.5047ZM250.985 21.563L251.852 19.2181L251.852 19.2181L250.985 21.563ZM254.59 28.5817L257.002 29.237L257.002 29.2368L254.59 28.5817ZM247.927 42.8654L245.859 41.4609L244.202 43.9014L246.881 45.136L247.927 42.8654ZM297.903 127.798L300.365 128.232L300.365 128.232L297.903 127.798ZM259.75 179.059L261.093 181.168L261.093 181.168L259.75 179.059ZM194.292 200.137L194.445 202.633L194.447 202.633L194.292 200.137ZM193.7 200.174L192.715 202.471L193.26 202.705L193.853 202.669L193.7 200.174ZM193.154 199.94L194.14 197.642L194.138 197.642L193.154 199.94ZM138.954 157.903L136.97 159.425L136.97 159.425L138.954 157.903ZM120.519 96.5203L118.057 96.0861L118.057 96.0861L120.519 96.5203ZM196.872 33.7749L197.07 36.267L200.43 36.0002L199.2 32.8626L196.872 33.7749ZM196.484 32.0861L193.992 32.2852L193.992 32.2852L196.484 32.0861ZM197.866 17.1707L195.512 16.3278L195.512 16.3279L197.866 17.1707ZM205.944 5.57699L207.675 7.3806C208.926 6.18007 210.888 6.1389 212.186 7.28526L213.841 5.41156L215.496 3.53785C212.245 0.66603 207.337 0.774127 204.213 3.77339L205.944 5.57699ZM213.841 5.41156L212.186 7.28524C215.104 9.86275 217.147 12.2503 218.621 15.0316L220.83 13.8611L223.039 12.6905C221.198 9.21547 218.703 6.37077 215.496 3.53787L213.841 5.41156ZM220.83 13.8611L218.621 15.0316C220.062 17.7502 220.994 20.9178 221.61 25.1285L224.084 24.7665L226.557 24.4044C225.889 19.838 224.831 16.0722 223.039 12.6906L220.83 13.8611ZM224.084 24.7665L225.379 26.9047C230.153 24.0125 234.007 22.4494 237.757 21.9859L237.45 19.5047L237.144 17.0236C232.415 17.608 227.868 19.5507 222.788 22.6283L224.084 24.7665ZM237.45 19.5047L237.757 21.9859C241.564 21.5154 245.393 22.1616 250.118 23.908L250.985 21.563L251.852 19.2181C246.669 17.3027 242.004 16.4231 237.144 17.0236L237.45 19.5047ZM250.985 21.563L250.118 23.908C251.737 24.5063 252.632 26.2495 252.177 27.9267L254.59 28.5817L257.002 29.2368C258.13 25.0832 255.921 20.7222 251.852 19.2181L250.985 21.563ZM254.59 28.5817L252.177 27.9264C250.797 33.0081 249.063 36.7418 245.859 41.4609L247.927 42.8654L249.995 44.2699C253.49 39.1236 255.467 34.8876 257.002 29.237L254.59 28.5817ZM247.927 42.8654L246.881 45.136C280.685 60.7122 301.381 93.6758 295.441 127.364L297.903 127.798L300.365 128.232C306.783 91.8336 284.369 56.9044 248.973 40.5949L247.927 42.8654ZM297.903 127.798L295.441 127.364C291.806 147.979 277.376 164.872 258.407 176.95L259.75 179.059L261.093 181.168C280.783 168.631 296.405 150.689 300.365 128.232L297.903 127.798ZM259.75 179.059L258.407 176.95C239.439 189.027 215.93 196.289 194.137 197.642L194.292 200.137L194.447 202.633C217.041 201.229 241.375 193.722 261.093 181.168L259.75 179.059ZM194.292 200.137L194.139 197.642L193.547 197.678L193.7 200.174L193.853 202.669L194.445 202.633L194.292 200.137ZM193.7 200.174L194.685 197.876L194.14 197.642L193.154 199.94L192.169 202.237L192.715 202.471L193.7 200.174ZM193.154 199.94L194.138 197.642C174.277 189.136 154.669 174.272 140.937 156.381L138.954 157.903L136.97 159.425C151.24 178.016 171.544 193.405 192.17 202.238L193.154 199.94ZM138.954 157.903L140.937 156.381C127.204 138.489 119.346 117.57 122.981 96.9544L120.519 96.5203L118.057 96.0861C114.096 118.55 122.724 140.864 136.97 159.425L138.954 157.903ZM120.519 96.5203L122.981 96.9544C128.939 63.1654 159.829 39.2254 197.07 36.267L196.872 33.7749L196.675 31.2827C157.683 34.3801 124.495 59.5781 118.057 96.0861L120.519 96.5203ZM196.872 33.7749L199.2 32.8626C199.081 32.5591 199.004 32.2325 198.976 31.8869L196.484 32.0861L193.992 32.2852C194.059 33.1252 194.249 33.932 194.545 34.6871L196.872 33.7749ZM196.484 32.0861L198.976 31.887C198.515 26.1119 198.873 21.7721 200.219 18.0134L197.866 17.1707L195.512 16.3279C193.836 21.0088 193.501 26.1359 193.992 32.2852L196.484 32.0861ZM197.866 17.1707L200.219 18.0135C201.562 14.2649 203.928 10.9787 207.675 7.38035L205.944 5.57699L204.212 3.77364C200.12 7.7033 197.199 11.6169 195.512 16.3278L197.866 17.1707ZM160.976 46.673L160.542 49.135L160.543 49.1352L160.977 46.6732L161.411 44.2112L161.41 44.211L160.976 46.673ZM160.977 46.6732L161.411 44.2112L161.41 44.211L160.976 46.673L160.542 49.135L160.543 49.1352L160.977 46.6732Z" fill="black" mask="url(#path-19-inside-3_330_29719)"/>
<path d="M151.833 144.692L185.919 173.664C192.811 179.522 202.329 181.201 210.809 178.053L252.748 162.486C266.607 157.342 273 141.361 266.513 128.078L265.295 125.584C259.932 114.602 247.417 109.107 235.703 112.591L220.052 117.247C212.509 119.49 204.351 118.052 198.031 113.364L184.916 103.636C175.1 96.3557 161.46 97.2387 152.664 105.724L150.667 107.651C140.028 117.915 140.57 135.118 151.833 144.692Z" fill="#FFD8BD" stroke="black" stroke-width="2.5"/>
<path d="M192.436 154.747C188.949 156.695 192.217 159.334 195.948 157.909C197.982 157.132 200.085 156.738 202.059 157.086C204.034 157.434 205.875 158.523 207.52 159.949C210.538 162.565 214.512 161.203 211.903 158.179C209.991 155.965 207.093 154.125 202.717 153.353C198.342 152.582 194.989 153.32 192.436 154.747Z" fill="black"/>
<circle cx="159.701" cy="141.919" r="3.79047" transform="rotate(10 159.701 141.919)" fill="#FFA3A3"/>
<circle cx="247.797" cy="157.454" r="3.79047" transform="rotate(10 247.797 157.454)" fill="#FFA3A3"/>
<ellipse cx="175.354" cy="127.358" rx="9.09713" ry="12.5086" transform="rotate(10 175.354 127.358)" fill="black"/>
<circle cx="178.142" cy="122.461" r="2.65333" transform="rotate(10 178.142 122.461)" fill="white"/>
<circle cx="179.9" cy="127.775" r="1.51619" transform="rotate(10 179.9 127.775)" fill="white"/>
<ellipse cx="9.09713" cy="12.5086" rx="9.09713" ry="12.5086" transform="matrix(-0.984808 -0.173648 -0.173648 0.984808 249.198 127.678)" fill="black"/>
<circle cx="2.65333" cy="2.65333" r="2.65333" transform="matrix(-0.984808 -0.173648 -0.173648 0.984808 240.196 130.71)" fill="white"/>
<circle cx="1.51619" cy="1.51619" r="1.51619" transform="matrix(-0.984808 -0.173648 -0.173648 0.984808 235.41 136.023)" fill="white"/>
<circle cx="188.894" cy="65.8529" r="12.5086" transform="rotate(10 188.894 65.8529)" fill="black"/>
<circle cx="184.765" cy="60.8911" r="3.79047" transform="rotate(10 184.765 60.8911)" fill="white"/>
<circle cx="12.5086" cy="12.5086" r="12.5086" transform="matrix(-0.984808 -0.173648 -0.173648 0.984808 258.632 65.4492)" fill="black"/>
<circle cx="240.012" cy="70.6333" r="3.79047" transform="rotate(10 240.012 70.6333)" fill="white"/>
<path d="M214.655 81.2869C217.594 81.8053 220.066 83.8389 221.644 86.8706C223.224 89.9037 223.868 93.8771 223.13 98.0622C222.392 102.247 220.427 105.762 217.906 108.072C215.386 110.381 212.368 111.446 209.429 110.927C206.489 110.409 204.017 108.376 202.438 105.344C200.859 102.311 200.216 98.3372 200.954 94.1521C201.692 89.9671 203.656 86.4533 206.177 84.1432C208.697 81.8342 211.716 80.7686 214.655 81.2869Z" fill="#EF8D2F" stroke="black" stroke-width="2.5"/>
<path d="M214.655 81.2869C217.594 81.8053 220.066 83.8389 221.644 86.8706C223.224 89.9037 223.868 93.8771 223.13 98.0622C222.745 100.244 222.231 101.056 221.879 101.332C221.652 101.51 221.283 101.618 220.314 101.28C219.319 100.934 218.222 100.316 216.714 99.5924C215.281 98.9045 213.603 98.1921 211.732 97.8623C209.862 97.5325 208.042 97.6281 206.46 97.7844C204.795 97.9488 203.553 98.1536 202.499 98.1391C201.474 98.125 201.163 97.897 201.011 97.6527C200.775 97.2729 200.569 96.3343 200.954 94.1521C201.692 89.9671 203.656 86.4533 206.177 84.1432C208.697 81.8342 211.716 80.7686 214.655 81.2869Z" fill="#EF8D2F" stroke="black" stroke-width="2.5"/>
<path d="M210.887 83.1014C208.256 84.4995 206.82 85.837 205.072 88.3404C204.736 88.821 205.021 89.4815 205.598 89.5833C205.975 89.6498 206.346 89.4433 206.506 89.0951C207.733 86.4229 209.144 85.4609 211.473 84.2487C211.867 84.0436 211.945 83.5124 211.624 83.2056C211.426 83.0164 211.129 82.9728 210.887 83.1014Z" fill="white"/>
<mask id="path-38-inside-4_330_29719" fill="white">
<path d="M166.052 273.771C180.157 278.627 188.13 278.382 202.44 273.771V286.274C202.44 291.797 197.963 296.274 192.44 296.274H163.02C162.987 296.27 157.334 295.492 157.334 287.177C157.334 284.561 158.267 282.653 159.547 281.268C161.763 278.869 164.454 276.479 166.052 273.686V273.771Z"/>
</mask>
<path d="M166.052 273.771C180.157 278.627 188.13 278.382 202.44 273.771V286.274C202.44 291.797 197.963 296.274 192.44 296.274H163.02C162.987 296.27 157.334 295.492 157.334 287.177C157.334 284.561 158.267 282.653 159.547 281.268C161.763 278.869 164.454 276.479 166.052 273.686V273.771Z" fill="white"/>
<path d="M166.052 273.771H163.552V275.554L165.238 276.134L166.052 273.771ZM202.44 273.771H204.94V270.338L201.674 271.391L202.44 273.771ZM202.44 286.274L204.94 286.274V286.274H202.44ZM163.02 296.274L162.684 298.752L162.851 298.774H163.02V296.274ZM157.334 287.177L154.834 287.177V287.177L157.334 287.177ZM159.547 281.268L157.711 279.571L157.711 279.571L159.547 281.268ZM166.052 273.686H168.552V264.279L163.882 272.444L166.052 273.686ZM166.052 273.771L165.238 276.134C172.439 278.614 178.254 279.854 184.183 279.821C190.097 279.788 195.948 278.489 203.207 276.15L202.44 273.771L201.674 271.391C194.622 273.663 189.331 274.792 184.155 274.821C178.993 274.85 173.769 273.784 166.866 271.407L166.052 273.771ZM202.44 273.771H199.94V286.274H202.44H204.94V273.771H202.44ZM202.44 286.274L199.94 286.274C199.94 290.417 196.583 293.774 192.44 293.774V296.274V298.774C199.344 298.774 204.94 293.178 204.94 286.274L202.44 286.274ZM192.44 296.274V293.774H163.02V296.274V298.774H192.44V296.274ZM163.02 296.274L163.355 293.797C163.588 293.829 162.71 293.744 161.807 292.957C160.998 292.252 159.834 290.7 159.834 287.177L157.334 287.177L154.834 287.177C154.834 291.969 156.497 294.963 158.522 296.727C160.453 298.409 162.419 298.716 162.684 298.752L163.02 296.274ZM157.334 287.177L159.834 287.177C159.834 285.224 160.506 283.914 161.383 282.964L159.547 281.268L157.711 279.571C156.027 281.393 154.834 283.898 154.834 287.177L157.334 287.177ZM159.547 281.268L161.383 282.964C161.911 282.393 162.471 281.818 163.065 281.207C163.651 280.606 164.268 279.971 164.869 279.319C166.065 278.022 167.285 276.565 168.222 274.927L166.052 273.686L163.882 272.444C163.221 273.599 162.297 274.733 161.193 275.93C160.645 276.524 160.074 277.112 159.482 277.72C158.898 278.32 158.291 278.943 157.711 279.571L159.547 281.268ZM166.052 273.686H163.552V273.771H166.052H168.552V273.686H166.052Z" fill="black" mask="url(#path-38-inside-4_330_29719)"/>
<mask id="path-40-inside-5_330_29719" fill="white">
<path d="M238.449 273.771C224.345 278.627 216.372 278.382 202.062 273.771V286.274C202.062 291.797 206.539 296.274 212.062 296.274H241.483C241.527 296.268 247.168 295.483 247.168 287.177C247.168 284.561 246.235 282.653 244.955 281.268C242.739 278.869 240.047 276.478 238.449 273.685V273.771Z"/>
</mask>
<path d="M238.449 273.771C224.345 278.627 216.372 278.382 202.062 273.771V286.274C202.062 291.797 206.539 296.274 212.062 296.274H241.483C241.527 296.268 247.168 295.483 247.168 287.177C247.168 284.561 246.235 282.653 244.955 281.268C242.739 278.869 240.047 276.478 238.449 273.685V273.771Z" fill="white"/>
<path d="M238.449 273.771H240.949V275.554L239.263 276.134L238.449 273.771ZM202.062 273.771H199.562V270.338L202.829 271.391L202.062 273.771ZM202.062 286.274L199.562 286.274V286.274H202.062ZM241.483 296.274L241.82 298.752L241.652 298.774H241.483V296.274ZM247.168 287.177L249.668 287.177V287.177L247.168 287.177ZM244.955 281.268L246.792 279.571L246.792 279.571L244.955 281.268ZM238.449 273.685H235.949V264.277L240.62 272.444L238.449 273.685ZM238.449 273.771L239.263 276.134C232.062 278.614 226.247 279.854 220.319 279.821C214.404 279.788 208.554 278.489 201.295 276.15L202.062 273.771L202.829 271.391C209.88 273.663 215.171 274.792 220.347 274.821C225.508 274.85 230.732 273.784 237.636 271.407L238.449 273.771ZM202.062 273.771H204.562V286.274H202.062H199.562V273.771H202.062ZM202.062 286.274L204.562 286.274C204.562 290.417 207.92 293.774 212.062 293.774V296.274V298.774C205.158 298.774 199.562 293.178 199.562 286.274L202.062 286.274ZM212.062 296.274V293.774H241.483V296.274V298.774H212.062V296.274ZM241.483 296.274L241.145 293.797C240.918 293.828 241.796 293.742 242.698 292.954C243.507 292.249 244.668 290.696 244.668 287.177L247.168 287.177L249.668 287.177C249.668 291.963 248.009 294.956 245.986 296.722C244.057 298.405 242.092 298.715 241.82 298.752L241.483 296.274ZM247.168 287.177L244.668 287.177C244.668 285.224 243.996 283.914 243.119 282.964L244.955 281.268L246.792 279.571C248.475 281.393 249.668 283.898 249.668 287.177L247.168 287.177ZM244.955 281.268L243.119 282.964C242.591 282.393 242.031 281.818 241.437 281.207C240.851 280.605 240.234 279.971 239.633 279.319C238.436 278.022 237.216 276.564 236.279 274.926L238.449 273.685L240.62 272.444C241.28 273.598 242.205 274.733 243.308 275.929C243.857 276.524 244.428 277.111 245.02 277.72C245.604 278.32 246.211 278.943 246.792 279.571L244.955 281.268ZM238.449 273.685H240.949V273.771H238.449H235.949V273.685H238.449Z" fill="black" mask="url(#path-40-inside-5_330_29719)"/>
<path d="M157.461 149.35C160.638 151.256 161.434 154.925 160.889 159.337C160.35 163.704 158.532 168.333 157.104 171.432C155.929 173.984 156.365 177.179 158.619 179.105C164.218 183.889 166.649 184.578 173.916 188.302C170.524 196.136 168.688 201.34 166.035 209.231C155.922 205.51 149.007 203.043 143.064 199.99C136.587 196.662 133.016 190.713 131.989 183.916C130.957 177.094 132.503 169.461 136.248 162.973L137.996 159.946C137.999 159.941 138.003 159.936 138.006 159.93C138.025 159.901 138.055 159.856 138.093 159.797C138.17 159.68 138.287 159.506 138.439 159.286C138.745 158.843 139.197 158.214 139.77 157.476C140.921 155.997 142.549 154.104 144.474 152.408C148.424 148.928 153.077 146.72 157.461 149.35Z" fill="#FF4A3D" stroke="black" stroke-width="2.5"/>
<rect x="177.537" y="212.857" width="48.2923" height="16.4524" rx="8.22618" fill="#D9D9D9" stroke="black" stroke-width="2.5"/>
</g>
<defs>
<clipPath id="clip0_330_29719">
<rect width="411" height="310" fill="white"/>
</clipPath>
</defs>
</svg>
