<svg width="40" height="39" viewBox="0 0 40 39" fill="none" xmlns="http://www.w3.org/2000/svg">
<path fill-rule="evenodd" clip-rule="evenodd" d="M28.195 11.2205C28.195 14.0326 27.4784 17.7002 26.3759 17.1436C25.925 18.5791 24.9786 19.8182 23.6971 20.6505C22.4157 21.4828 20.8783 21.857 19.346 21.7097C17.8137 21.5623 16.381 20.9024 15.291 19.842C14.2011 18.7816 13.5212 17.3861 13.3667 15.8924C12.2725 14.0261 10.8375 10.2861 14.5267 7.37089C14.5934 7.34976 14.6334 7.17426 14.6934 6.91589C14.9217 5.93845 15.4275 3.76583 18.6184 4.18101C21.0792 4.50033 28.195 5.73858 28.195 11.2205ZM25.0234 12.9942C25.0234 12.9942 24.6467 14.0683 25 15.2651C24.9954 16.5412 24.4778 17.7647 23.5584 18.6729C22.6389 19.581 21.3908 20.1014 20.0822 20.1224C18.7735 20.1433 17.5086 19.6632 16.559 18.7849C15.6095 17.9067 15.0509 16.7005 15.0034 15.4252C15.1242 14.9783 15.1242 14.2219 15.1234 13.381C15.1225 11.864 15.1209 10.0741 15.8334 9.34445C20.8242 12.5855 25.0234 12.9942 25.0234 12.9942Z" fill="white"/>
<path d="M10.8333 29.2498C10.8333 28.3706 11.3108 27.6004 12.0275 27.1714C12.0003 27.0702 11.9747 26.9687 11.9508 26.8667C11.8249 26.3115 11.7261 25.7508 11.655 25.1865C11.5839 24.6456 11.5408 24.1016 11.5258 23.5566C8.00833 24.9029 5 27.2494 5 29.7129V34.1248H35V29.7129C35 27.3534 32.2417 25.102 28.9183 23.7329V23.7556C28.9333 24.2513 28.905 24.82 28.85 25.3668C28.8 25.8738 28.7258 26.3792 28.6367 26.8123H29.1667C29.3214 26.8123 29.473 26.8544 29.6046 26.9338C29.7362 27.0131 29.8425 27.1266 29.9117 27.2616L30.745 28.8866C30.8033 28.9995 30.8333 29.1238 30.8333 29.2498V30.8748C30.8333 31.0903 30.7455 31.2969 30.5893 31.4493C30.433 31.6017 30.221 31.6873 30 31.6873H28.3333V30.0623H29.1667V29.4415L28.6517 28.4373H26.3483L25.8333 29.4415V30.0623H26.6667V31.6873H25C24.779 31.6873 24.567 31.6017 24.4107 31.4493C24.2545 31.2969 24.1667 31.0903 24.1667 30.8748V29.2498C24.1667 29.1238 24.1967 28.9995 24.255 28.8866L25.0883 27.2616C25.1575 27.1266 25.2638 27.0131 25.3954 26.9338C25.527 26.8544 25.6786 26.8123 25.8333 26.8123H26.9292C26.9475 26.7424 26.9658 26.6649 26.9842 26.5799C27.0675 26.1972 27.1417 25.7121 27.1917 25.2108C27.2417 24.7087 27.265 24.2106 27.2525 23.8011C27.2498 23.6315 27.2361 23.4621 27.2117 23.2941C27.1933 23.1788 27.175 23.126 27.1717 23.1146C27.1706 23.1119 27.1706 23.1113 27.1717 23.113L27.1742 23.1121C26.7319 22.9784 26.2847 22.8611 25.8333 22.7603C25.4142 22.6669 24.9808 23.2291 24.7917 23.581H15L14.9283 23.4445C14.7517 23.1016 14.5342 22.6783 14.1667 22.7603C13.8456 22.8313 13.5247 22.9117 13.2042 23.0016C13.1942 23.1442 13.1898 23.287 13.1908 23.4298C13.1942 23.8791 13.2383 24.4292 13.3092 24.985C13.38 25.5391 13.4758 26.0786 13.5758 26.5043C13.6047 26.6273 13.6325 26.7367 13.6592 26.8326C14.1356 26.8936 14.5839 27.0873 14.9504 27.3903C15.3168 27.6934 15.586 28.093 15.7255 28.5413C15.8651 28.9896 15.8692 29.4676 15.7374 29.9181C15.6055 30.3687 15.3433 30.7726 14.9821 31.0816C14.6208 31.3906 14.176 31.5915 13.7006 31.6603C13.2253 31.7292 12.7397 31.663 12.302 31.4697C11.8643 31.2764 11.4929 30.9643 11.2325 30.5706C10.972 30.1768 10.8334 29.7183 10.8333 29.2498Z" fill="white"/>
<path d="M14.1667 29.2495C14.1667 29.7159 13.7817 30.0742 13.3333 30.0742C12.885 30.0742 12.5 29.7167 12.5 29.2495C12.5 28.7831 12.885 28.4248 13.3333 28.4248C13.7817 28.4248 14.1667 28.7823 14.1667 29.2495Z" fill="white"/>
</svg>
