<svg width="40" height="39" viewBox="0 0 40 39" fill="none" xmlns="http://www.w3.org/2000/svg">
<path d="M19.9999 5.28125C18.5633 5.28125 17.1856 5.83767 16.1698 6.82809C15.1539 7.81852 14.5833 9.16183 14.5833 10.5625V20.3125C14.5833 21.7132 15.1539 23.0565 16.1698 24.0469C17.1856 25.0373 18.5633 25.5938 19.9999 25.5938C21.4365 25.5938 22.8143 25.0373 23.8301 24.0469C24.8459 23.0565 25.4166 21.7132 25.4166 20.3125V10.5625C25.4166 9.16183 24.8459 7.81852 23.8301 6.82809C22.8143 5.83767 21.4365 5.28125 19.9999 5.28125Z" fill="white"/>
<path d="M12.9167 20.3125C12.9167 19.9893 12.7851 19.6793 12.5506 19.4507C12.3162 19.2222 11.9983 19.0938 11.6667 19.0938C11.3352 19.0938 11.0173 19.2222 10.7829 19.4507C10.5484 19.6793 10.4167 19.9893 10.4167 20.3125C10.4167 22.5796 11.262 24.7693 12.7952 26.4737C14.3283 28.1781 16.4448 29.2809 18.7501 29.5766V31.2812H15.0001C14.6686 31.2812 14.3506 31.4097 14.1162 31.6382C13.8818 31.8668 13.7501 32.1768 13.7501 32.5C13.7501 32.8232 13.8818 33.1332 14.1162 33.3618C14.3506 33.5903 14.6686 33.7188 15.0001 33.7188H25.0001C25.3316 33.7188 25.6495 33.5903 25.884 33.3618C26.1184 33.1332 26.2501 32.8232 26.2501 32.5C26.2501 32.1768 26.1184 31.8668 25.884 31.6382C25.6495 31.4097 25.3316 31.2812 25.0001 31.2812H21.2501V29.5766C23.5554 29.2809 25.6718 28.1781 27.205 26.4737C28.7382 24.7693 29.5835 22.5796 29.5834 20.3125C29.5834 19.9893 29.4517 19.6793 29.2173 19.4507C28.9829 19.2222 28.6649 19.0938 28.3334 19.0938C28.0019 19.0938 27.684 19.2222 27.4495 19.4507C27.2151 19.6793 27.0834 19.9893 27.0834 20.3125C27.0834 22.1442 26.3371 23.9008 25.0088 25.196C23.6804 26.4911 21.8787 27.2188 20.0001 27.2188C18.1215 27.2188 16.3198 26.4911 14.9914 25.196C13.663 23.9008 12.9167 22.1442 12.9167 20.3125Z" fill="white"/>
</svg>
